<svg xmlns="http://www.w3.org/2000/svg" xmlns:xlink="http://www.w3.org/1999/xlink" width="1080" zoomAndPan="magnify" viewBox="0 0 810 809.999993" height="1080" preserveAspectRatio="xMidYMid meet" version="1.0"><defs><g/><clipPath id="24f3a5e4b3"><path d="M 6.792969 6.792969 L 803.292969 6.792969 L 803.292969 803.292969 L 6.792969 803.292969 Z M 6.792969 6.792969 " clip-rule="nonzero"/></clipPath><clipPath id="4817da71e8"><path d="M 0.679688 0.0390625 L 714.199219 0.0390625 L 714.199219 609.160156 L 0.679688 609.160156 Z M 0.679688 0.0390625 " clip-rule="nonzero"/></clipPath><clipPath id="80995c803b"><rect x="0" width="715" y="0" height="610"/></clipPath><clipPath id="7c413c6d57"><rect x="0" width="715" y="0" height="610"/></clipPath><clipPath id="815ba0f2e5"><path d="M 337.800781 677 L 471 677 L 471 731 L 337.800781 731 Z M 337.800781 677 " clip-rule="nonzero"/></clipPath></defs><g clip-path="url(#24f3a5e4b3)"><path fill="#ffdb1c" d="M 404.988281 42.742188 C 205.242188 42.742188 42.738281 205.242188 42.738281 404.992188 C 42.738281 604.738281 205.242188 767.246094 404.988281 767.246094 C 604.730469 767.246094 767.234375 604.738281 767.234375 404.992188 C 767.234375 205.242188 604.730469 42.742188 404.988281 42.742188 Z M 404.988281 803.1875 C 185.425781 803.1875 6.800781 624.554688 6.800781 404.992188 C 6.800781 185.429688 185.425781 6.800781 404.988281 6.800781 C 624.550781 6.800781 803.179688 185.429688 803.179688 404.992188 C 803.179688 624.554688 624.550781 803.1875 404.988281 803.1875 " fill-opacity="1" fill-rule="nonzero"/></g><g transform="matrix(1, 0, 0, 1, 67, 83)"><g clip-path="url(#7c413c6d57)"><g clip-path="url(#4817da71e8)"><g transform="matrix(1, 0, 0, 1, 0.000000000000014211, 0.000000000000042633)"><g clip-path="url(#80995c803b)"><g fill="#000000" fill-opacity="1"><g transform="translate(61.449149, 195.955588)"><g><path d="M -5.609375 -86.1875 C -7.078125 -85.875 -8.421875 -86.269531 -9.640625 -87.375 C -10.867188 -88.488281 -11.546875 -89.785156 -11.671875 -91.265625 C -11.804688 -92.847656 -11.359375 -94.171875 -10.328125 -95.234375 C -9.304688 -96.304688 -8.0625 -97.003906 -6.59375 -97.328125 C -1.988281 -98.109375 2.582031 -98.695312 7.125 -99.09375 C 11.675781 -99.5 16.289062 -99.765625 20.96875 -99.890625 C 22.21875 -100.460938 23.613281 -100.488281 25.15625 -99.96875 C 33.84375 -100.070312 42.660156 -99.726562 51.609375 -98.9375 C 53.117188 -98.78125 54.304688 -97.992188 55.171875 -96.578125 C 56.046875 -95.160156 56.3125 -93.785156 55.96875 -92.453125 C 55.644531 -90.828125 54.882812 -89.660156 53.6875 -88.953125 C 52.488281 -88.242188 51.085938 -87.910156 49.484375 -87.953125 C 45.910156 -88.285156 42.382812 -88.535156 38.90625 -88.703125 C 35.4375 -88.867188 31.925781 -88.9375 28.375 -88.90625 C 27.644531 -82.289062 27.445312 -75.722656 27.78125 -69.203125 C 28.125 -62.691406 28.914062 -56.128906 30.15625 -49.515625 C 31.394531 -42.691406 32.914062 -35.96875 34.71875 -29.34375 C 36.519531 -22.71875 38.367188 -16.082031 40.265625 -9.4375 C 40.679688 -7.882812 40.644531 -6.453125 40.15625 -5.140625 C 39.664062 -3.835938 38.65625 -2.878906 37.125 -2.265625 C 35.757812 -1.691406 34.320312 -1.710938 32.8125 -2.328125 C 31.3125 -2.941406 30.359375 -3.976562 29.953125 -5.4375 C 27.804688 -12.820312 25.734375 -20.144531 23.734375 -27.40625 C 21.742188 -34.664062 20.09375 -42.019531 18.78125 -49.46875 C 17.65625 -56.019531 16.941406 -62.550781 16.640625 -69.0625 C 16.347656 -75.582031 16.53125 -82.097656 17.1875 -88.609375 C 9.539062 -88.222656 1.941406 -87.414062 -5.609375 -86.1875 Z M -5.609375 -86.1875 "/></g></g></g><g fill="#000000" fill-opacity="1"><g transform="translate(118.215484, 190.965609)"><g><path d="M 5.6875 -54.9375 C 7.25 -57.5 9.175781 -59.8125 11.46875 -61.875 C 13.769531 -63.945312 16.257812 -65.640625 18.9375 -66.953125 C 21.625 -68.273438 24.453125 -69.085938 27.421875 -69.390625 C 30.390625 -69.691406 33.414062 -69.367188 36.5 -68.421875 C 39.46875 -67.566406 42.191406 -66.289062 44.671875 -64.59375 C 47.160156 -62.894531 49.179688 -60.617188 50.734375 -57.765625 C 51.953125 -55.617188 52.769531 -53.253906 53.1875 -50.671875 C 53.601562 -48.097656 53.113281 -45.671875 51.71875 -43.390625 C 50.507812 -41.316406 48.953125 -39.6875 47.046875 -38.5 C 45.140625 -37.3125 43.066406 -36.378906 40.828125 -35.703125 C 38.597656 -35.035156 36.300781 -34.597656 33.9375 -34.390625 C 31.570312 -34.179688 29.320312 -34.03125 27.1875 -33.9375 C 24.757812 -33.820312 22.347656 -33.800781 19.953125 -33.875 C 17.554688 -33.945312 15.144531 -34.015625 12.71875 -34.078125 C 13.820312 -29.960938 15.628906 -26.378906 18.140625 -23.328125 C 20.648438 -20.285156 23.882812 -18.09375 27.84375 -16.75 C 28.882812 -16.46875 29.695312 -16.257812 30.28125 -16.125 C 30.570312 -16.0625 30.832031 -16.015625 31.0625 -15.984375 C 31.300781 -15.960938 31.554688 -15.96875 31.828125 -16 C 32.585938 -15.96875 33.222656 -15.945312 33.734375 -15.9375 C 34.242188 -15.9375 34.726562 -16.003906 35.1875 -16.140625 C 35.832031 -16.296875 36.269531 -16.40625 36.5 -16.46875 C 36.726562 -16.539062 36.976562 -16.628906 37.25 -16.734375 C 38.238281 -17.109375 39.109375 -17.515625 39.859375 -17.953125 C 40.617188 -18.390625 41.519531 -19.070312 42.5625 -20 C 43.070312 -20.519531 43.75 -21.285156 44.59375 -22.296875 C 45.445312 -23.304688 46.164062 -24.207031 46.75 -25 C 47.5625 -26.382812 48.625 -27.367188 49.9375 -27.953125 C 51.25 -28.535156 52.632812 -28.472656 54.09375 -27.765625 C 55.363281 -27.128906 56.316406 -26.066406 56.953125 -24.578125 C 57.597656 -23.085938 57.519531 -21.648438 56.71875 -20.265625 C 54.34375 -16.421875 51.429688 -13.054688 47.984375 -10.171875 C 44.535156 -7.296875 40.457031 -5.5625 35.75 -4.96875 C 31.957031 -4.445312 28.234375 -4.789062 24.578125 -6 C 20.921875 -7.21875 17.632812 -9.019531 14.71875 -11.40625 C 11.082031 -14.351562 8.101562 -17.875 5.78125 -21.96875 C 3.457031 -26.070312 2.007812 -30.34375 1.4375 -34.78125 C 0.539062 -35.34375 -0.15625 -36.09375 -0.65625 -37.03125 C -1.15625 -37.976562 -1.382812 -38.96875 -1.34375 -40 C -1.300781 -41.03125 -1.035156 -42.007812 -0.546875 -42.9375 C -0.0664062 -43.875 0.71875 -44.53125 1.8125 -44.90625 C 2.519531 -48.425781 3.8125 -51.769531 5.6875 -54.9375 Z M 39.390625 -54.515625 C 38.253906 -55.722656 36.570312 -56.75 34.34375 -57.59375 C 32.519531 -58.164062 30.425781 -58.347656 28.0625 -58.140625 C 25.695312 -57.929688 23.710938 -57.34375 22.109375 -56.375 C 20.066406 -55.15625 18.285156 -53.566406 16.765625 -51.609375 C 15.253906 -49.660156 14.09375 -47.523438 13.28125 -45.203125 C 15.539062 -45.117188 17.789062 -45.035156 20.03125 -44.953125 C 22.28125 -44.878906 24.519531 -44.890625 26.75 -44.984375 C 27.96875 -45.097656 29.175781 -45.207031 30.375 -45.3125 C 31.582031 -45.414062 32.785156 -45.566406 33.984375 -45.765625 C 34.359375 -45.796875 34.703125 -45.847656 35.015625 -45.921875 C 35.335938 -45.992188 35.6875 -46.046875 36.0625 -46.078125 C 36.882812 -46.335938 37.5 -46.507812 37.90625 -46.59375 C 38.320312 -46.675781 38.753906 -46.832031 39.203125 -47.0625 C 39.566406 -47.1875 40.019531 -47.367188 40.5625 -47.609375 C 41.007812 -47.835938 41.273438 -48 41.359375 -48.09375 C 41.441406 -48.195312 41.570312 -48.304688 41.75 -48.421875 L 42.03125 -50.125 C 41.8125 -50.476562 41.660156 -50.8125 41.578125 -51.125 C 41.503906 -51.445312 41.363281 -51.738281 41.15625 -52 C 41.039062 -52.269531 40.796875 -52.671875 40.421875 -53.203125 C 40.046875 -53.734375 39.703125 -54.171875 39.390625 -54.515625 Z M 39.390625 -54.515625 "/></g></g></g><g fill="#000000" fill-opacity="1"><g transform="translate(185.699279, 185.033523)"><g><path d="M 15.953125 -5.1875 C 12.671875 -6.3125 10.015625 -8.019531 7.984375 -10.3125 C 5.960938 -12.613281 4.472656 -15.21875 3.515625 -18.125 C 2.554688 -21.039062 2.078125 -24.109375 2.078125 -27.328125 C 2.078125 -30.546875 2.453125 -33.6875 3.203125 -36.75 C 3.847656 -39.144531 4.59375 -41.640625 5.4375 -44.234375 C 6.289062 -46.828125 7.363281 -49.257812 8.65625 -51.53125 C 9.957031 -53.800781 11.5625 -55.789062 13.46875 -57.5 C 15.375 -59.21875 17.695312 -60.425781 20.4375 -61.125 C 23.28125 -61.832031 26.164062 -62.25 29.09375 -62.375 C 32.019531 -62.5 34.941406 -62.457031 37.859375 -62.25 C 39.179688 -62.175781 40.460938 -61.976562 41.703125 -61.65625 C 42.953125 -61.34375 44.203125 -61.007812 45.453125 -60.65625 C 45.421875 -62.0625 45.941406 -63.28125 47.015625 -64.3125 C 48.097656 -65.34375 49.285156 -65.914062 50.578125 -66.03125 C 52.160156 -66.164062 53.484375 -65.742188 54.546875 -64.765625 C 55.617188 -63.785156 56.316406 -62.554688 56.640625 -61.078125 C 57.472656 -56.859375 58.050781 -52.609375 58.375 -48.328125 C 58.707031 -44.054688 58.945312 -39.773438 59.09375 -35.484375 C 59.238281 -31.191406 59.425781 -26.90625 59.65625 -22.625 C 59.894531 -18.351562 60.296875 -14.09375 60.859375 -9.84375 C 61.109375 -8.082031 60.691406 -6.707031 59.609375 -5.71875 C 58.523438 -4.738281 57.285156 -4.1875 55.890625 -4.0625 C 54.503906 -3.9375 53.191406 -4.265625 51.953125 -5.046875 C 50.710938 -5.835938 49.96875 -7.109375 49.71875 -8.859375 C 44.632812 -6.171875 39.132812 -4.398438 33.21875 -3.546875 C 27.300781 -2.703125 21.546875 -3.25 15.953125 -5.1875 Z M 14.28125 -35.484375 C 13.863281 -33.753906 13.515625 -31.804688 13.234375 -29.640625 C 12.960938 -27.472656 13.003906 -25.421875 13.359375 -23.484375 C 13.722656 -21.546875 14.484375 -19.804688 15.640625 -18.265625 C 16.796875 -16.734375 18.570312 -15.75 20.96875 -15.3125 C 25.820312 -14.226562 30.609375 -14.222656 35.328125 -15.296875 C 40.046875 -16.378906 44.378906 -18.445312 48.328125 -21.5 C 48.296875 -26.070312 48.207031 -30.503906 48.0625 -34.796875 C 47.914062 -39.085938 47.609375 -43.410156 47.140625 -47.765625 C 45.472656 -48.640625 43.789062 -49.398438 42.09375 -50.046875 C 40.40625 -50.691406 38.570312 -51.066406 36.59375 -51.171875 C 34.625 -51.285156 32.539062 -51.316406 30.34375 -51.265625 C 28.15625 -51.210938 26.046875 -51.003906 24.015625 -50.640625 C 23.828125 -50.617188 23.347656 -50.457031 22.578125 -50.15625 C 21.816406 -49.851562 21.394531 -49.648438 21.3125 -49.546875 C 20.425781 -49.003906 19.648438 -48.191406 18.984375 -47.109375 C 17.929688 -45.328125 17.019531 -43.445312 16.25 -41.46875 C 15.488281 -39.488281 14.832031 -37.492188 14.28125 -35.484375 Z M 14.28125 -35.484375 "/></g></g></g><g fill="#000000" fill-opacity="1"><g transform="translate(259.864077, 178.514152)"><g><path d="M 44.3125 -52.84375 C 46.070312 -53 47.441406 -52.554688 48.421875 -51.515625 C 49.410156 -50.484375 49.960938 -49.269531 50.078125 -47.875 C 50.203125 -46.488281 49.875 -45.175781 49.09375 -43.9375 C 48.3125 -42.695312 47.039062 -42 45.28125 -41.84375 C 43.050781 -41.5625 40.835938 -41.394531 38.640625 -41.34375 C 36.453125 -41.289062 34.28125 -41.265625 32.125 -41.265625 C 32.863281 -33.929688 33.394531 -26.585938 33.71875 -19.234375 C 34.039062 -11.878906 33.914062 -4.523438 33.34375 2.828125 C 33.300781 4.421875 32.566406 5.648438 31.140625 6.515625 C 29.722656 7.390625 28.300781 7.660156 26.875 7.328125 C 25.25 6.992188 24.082031 6.226562 23.375 5.03125 C 22.664062 3.832031 22.378906 2.429688 22.515625 0.828125 C 23.003906 -6.328125 23.007812 -13.4375 22.53125 -20.5 C 22.050781 -27.5625 21.40625 -34.65625 20.59375 -41.78125 C 17.007812 -42.03125 13.382812 -42.296875 9.71875 -42.578125 C 6.050781 -42.867188 2.429688 -43.085938 -1.140625 -43.234375 C -2.722656 -43.285156 -3.929688 -44.046875 -4.765625 -45.515625 C -5.597656 -46.984375 -5.882812 -48.382812 -5.625 -49.71875 C -5.3125 -51.332031 -4.53125 -52.5 -3.28125 -53.21875 C -2.03125 -53.945312 -0.648438 -54.28125 0.859375 -54.21875 C 3.953125 -54.019531 7.050781 -53.800781 10.15625 -53.5625 C 13.257812 -53.320312 16.410156 -53.101562 19.609375 -52.90625 C 19.472656 -53.375 19.363281 -54.070312 19.28125 -55 C 18.550781 -63.351562 17.800781 -71.609375 17.03125 -79.765625 C 16.269531 -87.929688 15.945312 -96.226562 16.0625 -104.65625 C 16.113281 -106.15625 16.570312 -107.5 17.4375 -108.6875 C 18.3125 -109.882812 19.535156 -110.550781 21.109375 -110.6875 C 22.503906 -110.8125 23.878906 -110.375 25.234375 -109.375 C 26.585938 -108.375 27.238281 -107.128906 27.1875 -105.640625 C 27.039062 -96.640625 27.375 -87.753906 28.1875 -78.984375 C 29.007812 -70.222656 29.90625 -61.351562 30.875 -52.375 C 33.113281 -52.382812 35.351562 -52.414062 37.59375 -52.46875 C 39.84375 -52.519531 42.082031 -52.644531 44.3125 -52.84375 Z M 44.3125 -52.84375 "/></g></g></g><g fill="#000000" fill-opacity="1"><g transform="translate(320.249308, 173.206058)"><g><path d="M 3.234375 -57.375 C 3.179688 -59.132812 3.71875 -60.507812 4.84375 -61.5 C 5.96875 -62.488281 7.222656 -63.046875 8.609375 -63.171875 C 10.003906 -63.296875 11.273438 -62.960938 12.421875 -62.171875 C 13.566406 -61.378906 14.164062 -60.101562 14.21875 -58.34375 C 14.269531 -57.78125 14.296875 -57.195312 14.296875 -56.59375 C 14.304688 -55.988281 14.335938 -55.40625 14.390625 -54.84375 C 17.222656 -56.582031 20.238281 -58.132812 23.4375 -59.5 C 26.644531 -60.863281 29.882812 -61.820312 33.15625 -62.375 C 36.425781 -62.9375 39.648438 -62.960938 42.828125 -62.453125 C 46.003906 -61.941406 48.992188 -60.691406 51.796875 -58.703125 C 53.203125 -57.609375 53.894531 -56.351562 53.875 -54.9375 C 53.851562 -53.53125 53.394531 -52.296875 52.5 -51.234375 C 51.613281 -50.179688 50.4375 -49.472656 48.96875 -49.109375 C 47.507812 -48.753906 46.035156 -49.070312 44.546875 -50.0625 C 43.453125 -50.8125 42.257812 -51.3125 40.96875 -51.5625 C 39.6875 -51.820312 38.328125 -51.863281 36.890625 -51.6875 C 35.460938 -51.519531 34.039062 -51.234375 32.625 -50.828125 C 31.21875 -50.421875 29.878906 -49.976562 28.609375 -49.5 C 23.835938 -47.5 19.425781 -45.003906 15.375 -42.015625 C 15.957031 -37.492188 16.640625 -32.972656 17.421875 -28.453125 C 18.128906 -24.679688 18.796875 -20.789062 19.421875 -16.78125 C 20.054688 -12.769531 21.175781 -9.015625 22.78125 -5.515625 C 23.488281 -3.898438 23.5 -2.472656 22.8125 -1.234375 C 22.132812 -0.00390625 21.140625 0.851562 19.828125 1.34375 C 18.515625 1.832031 17.113281 1.863281 15.625 1.4375 C 14.144531 1.007812 13.050781 -0.0195312 12.34375 -1.65625 C 11.40625 -3.707031 10.695312 -5.835938 10.21875 -8.046875 C 9.75 -10.253906 9.285156 -12.457031 8.828125 -14.65625 C 8.441406 -16.78125 8.035156 -18.921875 7.609375 -21.078125 C 7.191406 -23.234375 6.796875 -25.367188 6.421875 -27.484375 C 5.515625 -32.460938 4.773438 -37.425781 4.203125 -42.375 C 3.628906 -47.332031 3.304688 -52.332031 3.234375 -57.375 Z M 3.234375 -57.375 "/></g></g></g><g fill="#000000" fill-opacity="1"><g transform="translate(383.557467, 167.641027)"><g><path d="M 34.578125 -67.6875 C 37.523438 -68.320312 40.625 -68.710938 43.875 -68.859375 C 47.132812 -69.003906 50.289062 -68.722656 53.34375 -68.015625 C 56.40625 -67.304688 59.226562 -66.082031 61.8125 -64.34375 C 64.40625 -62.601562 66.484375 -60.210938 68.046875 -57.171875 C 69.171875 -55.023438 69.851562 -52.816406 70.09375 -50.546875 C 70.34375 -48.273438 70.210938 -46.066406 69.703125 -43.921875 C 69.191406 -41.785156 68.347656 -39.703125 67.171875 -37.671875 C 65.992188 -35.648438 64.59375 -33.773438 62.96875 -32.046875 C 59.457031 -28.273438 55.535156 -24.984375 51.203125 -22.171875 C 46.878906 -19.359375 42.269531 -17.082031 37.375 -15.34375 C 35.269531 -14.59375 33.097656 -13.910156 30.859375 -13.296875 C 28.628906 -12.691406 26.351562 -12.285156 24.03125 -12.078125 C 21.71875 -11.878906 19.425781 -11.929688 17.15625 -12.234375 C 14.882812 -12.546875 12.722656 -13.226562 10.671875 -14.28125 C 9.210938 -14.976562 8.28125 -16.007812 7.875 -17.375 C 7.175781 -18.90625 6.4375 -20.335938 5.65625 -21.671875 C 4.882812 -23.003906 4.132812 -24.390625 3.40625 -25.828125 C 2.675781 -27.265625 2.0625 -28.707031 1.5625 -30.15625 C 1.0625 -31.601562 0.742188 -33.117188 0.609375 -34.703125 C 0.328125 -37.847656 0.734375 -40.894531 1.828125 -43.84375 C 2.921875 -46.789062 4.53125 -49.4375 6.65625 -51.78125 C 10.238281 -55.84375 14.484375 -59.207031 19.390625 -61.875 C 24.296875 -64.550781 29.359375 -66.488281 34.578125 -67.6875 Z M 51.359375 -57.109375 C 48.773438 -57.828125 46.046875 -58.054688 43.171875 -57.796875 C 40.097656 -57.617188 37.0625 -57.046875 34.0625 -56.078125 C 31.0625 -55.117188 28.226562 -53.910156 25.5625 -52.453125 C 23.039062 -51.203125 20.492188 -49.550781 17.921875 -47.5 C 15.347656 -45.445312 13.519531 -43.066406 12.4375 -40.359375 C 11.8125 -38.910156 11.585938 -37.46875 11.765625 -36.03125 C 11.941406 -34.601562 12.300781 -33.1875 12.84375 -31.78125 C 13.382812 -30.375 14.0625 -28.984375 14.875 -27.609375 C 15.695312 -26.234375 16.453125 -24.875 17.140625 -23.53125 C 18.660156 -23.289062 19.609375 -23.1875 19.984375 -23.21875 C 20.179688 -23.144531 20.414062 -23.117188 20.6875 -23.140625 C 20.957031 -23.160156 21.1875 -23.179688 21.375 -23.203125 C 23.257812 -23.171875 24.925781 -23.363281 26.375 -23.78125 C 27.40625 -23.875 28.691406 -24.175781 30.234375 -24.6875 C 32.597656 -25.351562 34.859375 -26.179688 37.015625 -27.171875 C 39.179688 -28.160156 41.148438 -29.195312 42.921875 -30.28125 C 44.960938 -31.476562 46.953125 -32.769531 48.890625 -34.15625 C 50.828125 -35.550781 52.4375 -36.960938 53.71875 -38.390625 C 54.570312 -39.296875 55.367188 -40.25 56.109375 -41.25 C 56.535156 -41.757812 56.832031 -42.164062 57 -42.46875 C 57.40625 -43.15625 57.734375 -43.671875 57.984375 -44.015625 C 58.234375 -44.367188 58.429688 -44.785156 58.578125 -45.265625 C 58.898438 -45.941406 59.039062 -46.46875 59 -46.84375 C 59.070312 -47.039062 59.117188 -47.28125 59.140625 -47.5625 C 59.160156 -47.84375 59.210938 -48.078125 59.296875 -48.265625 L 59.15625 -49.8125 C 59.03125 -50.164062 58.957031 -50.4375 58.9375 -50.625 C 58.925781 -50.8125 58.863281 -50.992188 58.75 -51.171875 C 58.425781 -51.796875 58.128906 -52.257812 57.859375 -52.5625 C 57.597656 -52.863281 57.316406 -53.191406 57.015625 -53.546875 C 57.117188 -53.453125 56.988281 -53.578125 56.625 -53.921875 C 56.269531 -54.273438 56.039062 -54.492188 55.9375 -54.578125 L 54.734375 -55.59375 C 54.242188 -55.820312 53.703125 -56.097656 53.109375 -56.421875 C 52.515625 -56.742188 51.929688 -56.972656 51.359375 -57.109375 Z M 51.359375 -57.109375 "/></g></g></g><g fill="#000000" fill-opacity="1"><g transform="translate(464.681651, 160.509899)"><g/></g></g><g fill="#000000" fill-opacity="1"><g transform="translate(513.792682, 156.19285)"><g><path d="M 53.515625 -67.828125 C 54.878906 -67.203125 55.859375 -66.164062 56.453125 -64.71875 C 57.046875 -63.269531 56.9375 -61.851562 56.125 -60.46875 C 54.09375 -56.925781 52.671875 -53.109375 51.859375 -49.015625 C 51.054688 -44.929688 50.082031 -40.921875 48.9375 -36.984375 C 47.71875 -32.765625 46.320312 -28.664062 44.75 -24.6875 C 43.175781 -20.71875 41.492188 -16.691406 39.703125 -12.609375 C 39.554688 -12.128906 39.378906 -11.710938 39.171875 -11.359375 C 38.972656 -11.015625 38.800781 -10.601562 38.65625 -10.125 C 39.164062 -8.675781 39.078125 -7.335938 38.390625 -6.109375 C 37.703125 -4.890625 36.722656 -3.988281 35.453125 -3.40625 C 32.234375 3.425781 28.972656 10.1875 25.671875 16.875 C 22.367188 23.570312 19.109375 30.34375 15.890625 37.1875 C 15.097656 38.832031 13.988281 39.8125 12.5625 40.125 C 11.144531 40.445312 9.800781 40.3125 8.53125 39.71875 C 7.269531 39.125 6.300781 38.175781 5.625 36.875 C 4.945312 35.570312 5.003906 34.097656 5.796875 32.453125 C 9.109375 25.429688 12.46875 18.472656 15.875 11.578125 C 19.289062 4.679688 22.65625 -2.273438 25.96875 -9.296875 C 21.132812 -16.429688 16.476562 -23.660156 12 -30.984375 C 7.519531 -38.316406 2.953125 -45.609375 -1.703125 -52.859375 C -2.671875 -54.359375 -2.910156 -55.8125 -2.421875 -57.21875 C -1.941406 -58.625 -1.15625 -59.722656 -0.0625 -60.515625 C 1.03125 -61.316406 2.300781 -61.6875 3.75 -61.625 C 5.207031 -61.5625 6.429688 -60.78125 7.421875 -59.28125 C 11.441406 -52.894531 15.410156 -46.53125 19.328125 -40.1875 C 23.253906 -33.851562 27.269531 -27.546875 31.375 -21.265625 C 34.25 -27.878906 36.734375 -34.785156 38.828125 -41.984375 C 39.878906 -45.910156 40.851562 -49.898438 41.75 -53.953125 C 42.65625 -58.003906 44.128906 -61.757812 46.171875 -65.21875 C 46.890625 -66.59375 47.925781 -67.546875 49.28125 -68.078125 C 50.632812 -68.617188 52.046875 -68.535156 53.515625 -67.828125 Z M 53.515625 -67.828125 "/></g></g></g><g fill="#000000" fill-opacity="1"><g transform="translate(581.278967, 150.260546)"><g/></g></g><g fill="#000000" fill-opacity="1"><g transform="translate(38.240934, 377.070594)"><g><path d="M -0.96875 -84.34375 C -2.863281 -84.738281 -4.082031 -85.847656 -4.625 -87.671875 C -5.207031 -88.929688 -5.191406 -90.359375 -4.578125 -91.953125 C -3.960938 -93.554688 -2.878906 -94.519531 -1.328125 -94.84375 C 7.554688 -97.019531 16.515625 -98.578125 25.546875 -99.515625 C 34.578125 -100.453125 43.640625 -101.367188 52.734375 -102.265625 C 54.492188 -102.410156 55.882812 -101.96875 56.90625 -100.9375 C 57.9375 -99.90625 58.507812 -98.691406 58.625 -97.296875 C 58.75 -95.910156 58.398438 -94.59375 57.578125 -93.34375 C 56.753906 -92.101562 55.460938 -91.410156 53.703125 -91.265625 C 46.472656 -90.441406 39.191406 -89.707031 31.859375 -89.0625 C 24.523438 -88.425781 17.234375 -87.410156 9.984375 -86.015625 C 10.492188 -82.316406 11.046875 -78.644531 11.640625 -75 C 12.234375 -71.363281 12.832031 -67.703125 13.4375 -64.015625 C 20.46875 -65.003906 27.460938 -66.082031 34.421875 -67.25 C 41.378906 -68.425781 48.398438 -69.140625 55.484375 -69.390625 C 57.253906 -69.460938 58.65625 -68.929688 59.6875 -67.796875 C 60.71875 -66.671875 61.289062 -65.410156 61.40625 -64.015625 C 61.53125 -62.628906 61.175781 -61.335938 60.34375 -60.140625 C 59.519531 -58.953125 58.222656 -58.328125 56.453125 -58.265625 C 49.453125 -58.023438 42.566406 -57.328125 35.796875 -56.171875 C 29.035156 -55.015625 22.191406 -53.941406 15.265625 -52.953125 C 16.398438 -46.328125 17.515625 -39.71875 18.609375 -33.125 C 19.710938 -26.539062 20.648438 -19.910156 21.421875 -13.234375 C 24.597656 -14.265625 27.828125 -15.273438 31.109375 -16.265625 C 34.398438 -17.253906 37.691406 -18.101562 40.984375 -18.8125 C 44.285156 -19.519531 47.609375 -20.019531 50.953125 -20.3125 C 54.296875 -20.613281 57.660156 -20.632812 61.046875 -20.375 C 62.554688 -20.21875 63.742188 -19.429688 64.609375 -18.015625 C 65.484375 -16.609375 65.800781 -15.238281 65.5625 -13.90625 C 65.226562 -12.289062 64.4375 -11.097656 63.1875 -10.328125 C 61.945312 -9.554688 60.523438 -9.238281 58.921875 -9.375 C 55.898438 -9.675781 52.867188 -9.597656 49.828125 -9.140625 C 46.785156 -8.691406 43.800781 -8.101562 40.875 -7.375 C 37.488281 -6.519531 34.132812 -5.570312 30.8125 -4.53125 C 27.488281 -3.5 24.191406 -2.410156 20.921875 -1.265625 C 19.367188 -0.753906 17.859375 -0.90625 16.390625 -1.71875 C 15.078125 -1.789062 13.875 -2.195312 12.78125 -2.9375 C 11.6875 -3.6875 11.066406 -4.898438 10.921875 -6.578125 C 10.035156 -14.453125 9 -22.210938 7.8125 -29.859375 C 6.632812 -37.515625 5.375 -45.210938 4.03125 -52.953125 C 2.925781 -53.890625 2.234375 -55.117188 1.953125 -56.640625 C 1.679688 -58.160156 1.96875 -59.507812 2.8125 -60.6875 C 1.363281 -68.507812 0.101562 -76.394531 -0.96875 -84.34375 Z M -0.96875 -84.34375 "/></g></g></g><g fill="#000000" fill-opacity="1"><g transform="translate(115.607044, 370.269815)"><g><path d="M 16.6875 -52.65625 C 19.851562 -55 23.296875 -57.082031 27.015625 -58.90625 C 30.734375 -60.726562 34.59375 -61.769531 38.59375 -62.03125 C 37.519531 -69.882812 36.523438 -77.695312 35.609375 -85.46875 C 34.703125 -93.238281 33.851562 -101.0625 33.0625 -108.9375 C 32.90625 -110.695312 33.34375 -112.066406 34.375 -113.046875 C 35.414062 -114.035156 36.628906 -114.585938 38.015625 -114.703125 C 39.410156 -114.828125 40.726562 -114.5 41.96875 -113.71875 C 43.207031 -112.9375 43.90625 -111.664062 44.0625 -109.90625 C 44.96875 -100.726562 46.007812 -91.539062 47.1875 -82.34375 C 48.363281 -73.144531 49.539062 -63.96875 50.71875 -54.8125 C 51.894531 -45.65625 52.984375 -36.46875 53.984375 -27.25 C 54.984375 -18.03125 55.75 -8.816406 56.28125 0.390625 C 56.34375 2.160156 55.804688 3.5625 54.671875 4.59375 C 53.546875 5.625 52.285156 6.203125 50.890625 6.328125 C 49.503906 6.453125 48.21875 6.117188 47.03125 5.328125 C 45.84375 4.546875 45.21875 3.226562 45.15625 1.375 C 45.09375 0.71875 45.03125 0.0664062 44.96875 -0.578125 C 44.914062 -1.234375 44.90625 -1.890625 44.9375 -2.546875 C 44 -2.554688 43.085938 -2.539062 42.203125 -2.5 C 41.316406 -2.46875 40.457031 -2.414062 39.625 -2.34375 C 38.507812 -2.25 37.394531 -2.148438 36.28125 -2.046875 C 35.164062 -1.953125 34.097656 -1.910156 33.078125 -1.921875 C 30.648438 -1.890625 28.21875 -1.910156 25.78125 -1.984375 C 23.34375 -2.054688 20.921875 -2.40625 18.515625 -3.03125 C 16.117188 -3.75 13.84375 -4.691406 11.6875 -5.859375 C 9.53125 -7.023438 7.703125 -8.664062 6.203125 -10.78125 C 4.515625 -12.96875 3.066406 -15.363281 1.859375 -17.96875 C 0.648438 -20.582031 0.0078125 -23.335938 -0.0625 -26.234375 C -0.132812 -29.117188 0.28125 -31.816406 1.1875 -34.328125 C 2.101562 -36.835938 3.320312 -39.1875 4.84375 -41.375 C 6.375 -43.570312 8.160156 -45.601562 10.203125 -47.46875 C 12.242188 -49.332031 14.40625 -51.0625 16.6875 -52.65625 Z M 44.109375 -13.5625 C 43.015625 -25.988281 41.640625 -38.441406 39.984375 -50.921875 C 36.910156 -50.828125 33.914062 -50.019531 31 -48.5 C 28.09375 -46.988281 25.457031 -45.335938 23.09375 -43.546875 C 21.78125 -42.585938 20.359375 -41.503906 18.828125 -40.296875 C 17.296875 -39.085938 15.914062 -37.75 14.6875 -36.28125 C 13.457031 -34.8125 12.5 -33.25 11.8125 -31.59375 C 11.125 -29.945312 10.859375 -28.203125 11.015625 -26.359375 C 11.242188 -24.691406 11.765625 -22.9375 12.578125 -21.09375 C 13.398438 -19.25 14.425781 -17.773438 15.65625 -16.671875 C 16.863281 -15.554688 18.191406 -14.753906 19.640625 -14.265625 C 21.085938 -13.785156 22.617188 -13.429688 24.234375 -13.203125 C 26.109375 -12.992188 27.910156 -12.914062 29.640625 -12.96875 C 31.367188 -13.03125 33.164062 -13.101562 35.03125 -13.1875 C 36.519531 -13.320312 38.007812 -13.382812 39.5 -13.375 C 40.988281 -13.363281 42.523438 -13.425781 44.109375 -13.5625 Z M 44.109375 -13.5625 "/></g></g></g><g fill="#000000" fill-opacity="1"><g transform="translate(184.482715, 364.215378)"><g><path d="M 61.53125 -54.921875 C 62.320312 -46.953125 63.578125 -39.019531 65.296875 -31.125 C 67.015625 -23.238281 69.046875 -15.46875 71.390625 -7.8125 C 71.921875 -6.082031 71.75 -4.59375 70.875 -3.34375 C 70.007812 -2.101562 68.941406 -1.238281 67.671875 -0.75 C 66.410156 -0.257812 65.109375 -0.238281 63.765625 -0.6875 C 62.421875 -1.132812 61.484375 -2.222656 60.953125 -3.953125 C 59.367188 -9.140625 57.9375 -14.25 56.65625 -19.28125 C 56.320312 -18.789062 56.035156 -18.320312 55.796875 -17.875 C 55.554688 -17.4375 55.269531 -16.96875 54.9375 -16.46875 C 53.28125 -14.082031 51.316406 -11.96875 49.046875 -10.125 C 46.773438 -8.289062 44.304688 -6.8125 41.640625 -5.6875 C 38.984375 -4.570312 36.222656 -3.84375 33.359375 -3.5 C 30.492188 -3.15625 27.632812 -3.226562 24.78125 -3.71875 C 19.75 -4.6875 15.78125 -6.769531 12.875 -9.96875 C 9.976562 -13.175781 7.773438 -16.929688 6.265625 -21.234375 C 4.753906 -25.546875 3.703125 -30.082031 3.109375 -34.84375 C 2.515625 -39.613281 1.988281 -44.03125 1.53125 -48.09375 C 1.375 -49.863281 1.8125 -51.238281 2.84375 -52.21875 C 3.875 -53.195312 5.085938 -53.742188 6.484375 -53.859375 C 7.878906 -53.984375 9.191406 -53.65625 10.421875 -52.875 C 11.660156 -52.101562 12.40625 -50.835938 12.65625 -49.078125 C 13.082031 -45.390625 13.484375 -41.640625 13.859375 -37.828125 C 14.242188 -34.015625 14.945312 -30.476562 15.96875 -27.21875 C 16.507812 -25.394531 17.070312 -23.828125 17.65625 -22.515625 C 18.238281 -21.210938 19.109375 -19.863281 20.265625 -18.46875 C 20.773438 -17.863281 21.054688 -17.515625 21.109375 -17.421875 C 21.171875 -17.335938 21.300781 -17.253906 21.5 -17.171875 C 22.988281 -16.179688 23.972656 -15.59375 24.453125 -15.40625 C 24.941406 -15.21875 25.519531 -15.054688 26.1875 -14.921875 C 30.175781 -14.148438 34.101562 -14.613281 37.96875 -16.3125 C 41.84375 -18.007812 44.832031 -20.726562 46.9375 -24.46875 C 48.132812 -26.8125 48.972656 -29.21875 49.453125 -31.6875 C 49.941406 -34.164062 50.21875 -36.644531 50.28125 -39.125 C 50.34375 -41.613281 50.332031 -44.140625 50.25 -46.703125 C 50.164062 -49.273438 50.191406 -51.828125 50.328125 -54.359375 C 50.085938 -57.148438 50.648438 -59.046875 52.015625 -60.046875 C 53.378906 -61.054688 54.863281 -61.488281 56.46875 -61.34375 C 57.414062 -61.144531 58.1875 -60.882812 58.78125 -60.5625 L 59.96875 -59.703125 C 61.144531 -58.117188 61.664062 -56.523438 61.53125 -54.921875 Z M 61.53125 -54.921875 "/></g></g></g><g fill="#000000" fill-opacity="1"><g transform="translate(265.328514, 357.108721)"><g><path d="M 45.265625 -14.921875 C 45.742188 -13.648438 45.675781 -12.238281 45.0625 -10.6875 C 44.457031 -9.144531 43.421875 -8.164062 41.953125 -7.75 C 37.015625 -6.476562 32.046875 -6.113281 27.046875 -6.65625 C 22.046875 -7.207031 17.3125 -8.914062 12.84375 -11.78125 C 8.476562 -14.675781 5.210938 -18.570312 3.046875 -23.46875 C 0.890625 -28.375 0.144531 -33.429688 0.8125 -38.640625 C 1.4375 -43.273438 3.222656 -47.40625 6.171875 -51.03125 C 9.128906 -54.65625 12.613281 -57.582031 16.625 -59.8125 C 20.175781 -61.894531 23.945312 -63.625 27.9375 -65 C 31.9375 -66.382812 35.992188 -67.070312 40.109375 -67.0625 C 41.703125 -67.007812 43.070312 -66.539062 44.21875 -65.65625 C 45.375 -64.78125 46.023438 -63.554688 46.171875 -61.984375 C 46.285156 -60.585938 45.863281 -59.238281 44.90625 -57.9375 C 43.945312 -56.644531 42.675781 -55.976562 41.09375 -55.9375 C 38.101562 -55.945312 35.191406 -55.546875 32.359375 -54.734375 C 29.535156 -53.921875 26.828125 -52.796875 24.234375 -51.359375 C 22.722656 -50.472656 21.238281 -49.546875 19.78125 -48.578125 C 18.332031 -47.609375 17.09375 -46.566406 16.0625 -45.453125 C 14.96875 -44.242188 14.066406 -43.039062 13.359375 -41.84375 C 12.660156 -40.65625 12.195312 -39.304688 11.96875 -37.796875 C 11.71875 -36.285156 11.710938 -34.695312 11.953125 -33.03125 C 12.203125 -31.375 12.648438 -29.753906 13.296875 -28.171875 C 13.953125 -26.585938 14.800781 -25.164062 15.84375 -23.90625 C 16.894531 -22.644531 18.113281 -21.601562 19.5 -20.78125 C 22.363281 -19.070312 25.425781 -18.007812 28.6875 -17.59375 C 31.945312 -17.1875 35.082031 -17.394531 38.09375 -18.21875 C 39.5625 -18.625 40.972656 -18.5625 42.328125 -18.03125 C 43.679688 -17.5 44.660156 -16.460938 45.265625 -14.921875 Z M 45.265625 -14.921875 "/></g></g></g><g fill="#000000" fill-opacity="1"><g transform="translate(322.929995, 352.04533)"><g><path d="M 15.953125 -5.1875 C 12.671875 -6.3125 10.015625 -8.019531 7.984375 -10.3125 C 5.960938 -12.613281 4.472656 -15.21875 3.515625 -18.125 C 2.554688 -21.039062 2.078125 -24.109375 2.078125 -27.328125 C 2.078125 -30.546875 2.453125 -33.6875 3.203125 -36.75 C 3.847656 -39.144531 4.59375 -41.640625 5.4375 -44.234375 C 6.289062 -46.828125 7.363281 -49.257812 8.65625 -51.53125 C 9.957031 -53.800781 11.5625 -55.789062 13.46875 -57.5 C 15.375 -59.21875 17.695312 -60.425781 20.4375 -61.125 C 23.28125 -61.832031 26.164062 -62.25 29.09375 -62.375 C 32.019531 -62.5 34.941406 -62.457031 37.859375 -62.25 C 39.179688 -62.175781 40.460938 -61.976562 41.703125 -61.65625 C 42.953125 -61.34375 44.203125 -61.007812 45.453125 -60.65625 C 45.421875 -62.0625 45.941406 -63.28125 47.015625 -64.3125 C 48.097656 -65.34375 49.285156 -65.914062 50.578125 -66.03125 C 52.160156 -66.164062 53.484375 -65.742188 54.546875 -64.765625 C 55.617188 -63.785156 56.316406 -62.554688 56.640625 -61.078125 C 57.472656 -56.859375 58.050781 -52.609375 58.375 -48.328125 C 58.707031 -44.054688 58.945312 -39.773438 59.09375 -35.484375 C 59.238281 -31.191406 59.425781 -26.90625 59.65625 -22.625 C 59.894531 -18.351562 60.296875 -14.09375 60.859375 -9.84375 C 61.109375 -8.082031 60.691406 -6.707031 59.609375 -5.71875 C 58.523438 -4.738281 57.285156 -4.1875 55.890625 -4.0625 C 54.503906 -3.9375 53.191406 -4.265625 51.953125 -5.046875 C 50.710938 -5.835938 49.96875 -7.109375 49.71875 -8.859375 C 44.632812 -6.171875 39.132812 -4.398438 33.21875 -3.546875 C 27.300781 -2.703125 21.546875 -3.25 15.953125 -5.1875 Z M 14.28125 -35.484375 C 13.863281 -33.753906 13.515625 -31.804688 13.234375 -29.640625 C 12.960938 -27.472656 13.003906 -25.421875 13.359375 -23.484375 C 13.722656 -21.546875 14.484375 -19.804688 15.640625 -18.265625 C 16.796875 -16.734375 18.570312 -15.75 20.96875 -15.3125 C 25.820312 -14.226562 30.609375 -14.222656 35.328125 -15.296875 C 40.046875 -16.378906 44.378906 -18.445312 48.328125 -21.5 C 48.296875 -26.070312 48.207031 -30.503906 48.0625 -34.796875 C 47.914062 -39.085938 47.609375 -43.410156 47.140625 -47.765625 C 45.472656 -48.640625 43.789062 -49.398438 42.09375 -50.046875 C 40.40625 -50.691406 38.570312 -51.066406 36.59375 -51.171875 C 34.625 -51.285156 32.539062 -51.316406 30.34375 -51.265625 C 28.15625 -51.210938 26.046875 -51.003906 24.015625 -50.640625 C 23.828125 -50.617188 23.347656 -50.457031 22.578125 -50.15625 C 21.816406 -49.851562 21.394531 -49.648438 21.3125 -49.546875 C 20.425781 -49.003906 19.648438 -48.191406 18.984375 -47.109375 C 17.929688 -45.328125 17.019531 -43.445312 16.25 -41.46875 C 15.488281 -39.488281 14.832031 -37.492188 14.28125 -35.484375 Z M 14.28125 -35.484375 "/></g></g></g><g fill="#000000" fill-opacity="1"><g transform="translate(397.094803, 345.525958)"><g><path d="M 45.265625 -14.921875 C 45.742188 -13.648438 45.675781 -12.238281 45.0625 -10.6875 C 44.457031 -9.144531 43.421875 -8.164062 41.953125 -7.75 C 37.015625 -6.476562 32.046875 -6.113281 27.046875 -6.65625 C 22.046875 -7.207031 17.3125 -8.914062 12.84375 -11.78125 C 8.476562 -14.675781 5.210938 -18.570312 3.046875 -23.46875 C 0.890625 -28.375 0.144531 -33.429688 0.8125 -38.640625 C 1.4375 -43.273438 3.222656 -47.40625 6.171875 -51.03125 C 9.128906 -54.65625 12.613281 -57.582031 16.625 -59.8125 C 20.175781 -61.894531 23.945312 -63.625 27.9375 -65 C 31.9375 -66.382812 35.992188 -67.070312 40.109375 -67.0625 C 41.703125 -67.007812 43.070312 -66.539062 44.21875 -65.65625 C 45.375 -64.78125 46.023438 -63.554688 46.171875 -61.984375 C 46.285156 -60.585938 45.863281 -59.238281 44.90625 -57.9375 C 43.945312 -56.644531 42.675781 -55.976562 41.09375 -55.9375 C 38.101562 -55.945312 35.191406 -55.546875 32.359375 -54.734375 C 29.535156 -53.921875 26.828125 -52.796875 24.234375 -51.359375 C 22.722656 -50.472656 21.238281 -49.546875 19.78125 -48.578125 C 18.332031 -47.609375 17.09375 -46.566406 16.0625 -45.453125 C 14.96875 -44.242188 14.066406 -43.039062 13.359375 -41.84375 C 12.660156 -40.65625 12.195312 -39.304688 11.96875 -37.796875 C 11.71875 -36.285156 11.710938 -34.695312 11.953125 -33.03125 C 12.203125 -31.375 12.648438 -29.753906 13.296875 -28.171875 C 13.953125 -26.585938 14.800781 -25.164062 15.84375 -23.90625 C 16.894531 -22.644531 18.113281 -21.601562 19.5 -20.78125 C 22.363281 -19.070312 25.425781 -18.007812 28.6875 -17.59375 C 31.945312 -17.1875 35.082031 -17.394531 38.09375 -18.21875 C 39.5625 -18.625 40.972656 -18.5625 42.328125 -18.03125 C 43.679688 -17.5 44.660156 -16.460938 45.265625 -14.921875 Z M 45.265625 -14.921875 "/></g></g></g><g fill="#000000" fill-opacity="1"><g transform="translate(454.696262, 340.462568)"><g><path d="M 6.40625 -1.96875 C 6.769531 -6.488281 7.25 -10.945312 7.84375 -15.34375 C 8.4375 -19.75 8.765625 -24.195312 8.828125 -28.6875 C 8.816406 -33.09375 8.507812 -37.394531 7.90625 -41.59375 C 7.300781 -45.789062 7.179688 -50.101562 7.546875 -54.53125 C 7.609375 -56.019531 8.367188 -57.203125 9.828125 -58.078125 C 11.296875 -58.960938 12.691406 -59.273438 14.015625 -59.015625 C 15.640625 -58.703125 16.804688 -57.921875 17.515625 -56.671875 C 18.234375 -55.421875 18.566406 -54.046875 18.515625 -52.546875 C 18.335938 -50.367188 18.367188 -48.171875 18.609375 -45.953125 C 18.847656 -43.734375 19.113281 -41.519531 19.40625 -39.3125 C 19.78125 -35.03125 19.878906 -30.734375 19.703125 -26.421875 C 19.535156 -21.921875 19.195312 -17.492188 18.6875 -13.140625 C 18.175781 -8.796875 17.75 -4.410156 17.40625 0.015625 C 17.25 1.515625 16.460938 2.703125 15.046875 3.578125 C 13.628906 4.460938 12.253906 4.773438 10.921875 4.515625 C 9.304688 4.191406 8.113281 3.410156 7.34375 2.171875 C 6.570312 0.929688 6.257812 -0.445312 6.40625 -1.96875 Z M 7.484375 -66.578125 C 6.804688 -66.710938 6.125 -66.957031 5.4375 -67.3125 C 4.75 -67.664062 4.242188 -68.160156 3.921875 -68.796875 C 3.578125 -69.503906 3.285156 -70.128906 3.046875 -70.671875 C 2.804688 -71.222656 2.65625 -71.863281 2.59375 -72.59375 C 2.519531 -73.4375 2.585938 -74.285156 2.796875 -75.140625 C 3.023438 -76.847656 3.660156 -78.125 4.703125 -78.96875 C 5.023438 -79.550781 5.503906 -80.007812 6.140625 -80.34375 C 7.085938 -81.082031 8.207031 -81.53125 9.5 -81.6875 C 10.789062 -81.851562 11.988281 -81.609375 13.09375 -80.953125 C 13.582031 -80.628906 14.078125 -80.28125 14.578125 -79.90625 C 15.085938 -79.53125 15.503906 -79.023438 15.828125 -78.390625 C 16.054688 -77.941406 16.3125 -77.445312 16.59375 -76.90625 C 16.875 -76.375 16.988281 -75.832031 16.9375 -75.28125 C 16.90625 -74.613281 16.863281 -74 16.8125 -73.4375 C 16.769531 -72.875 16.585938 -72.34375 16.265625 -71.84375 C 15.859375 -71.144531 15.523438 -70.644531 15.265625 -70.34375 C 15.015625 -70.039062 14.585938 -69.628906 13.984375 -69.109375 C 13.640625 -68.703125 13.101562 -68.378906 12.375 -68.140625 C 10.53125 -66.847656 8.898438 -66.328125 7.484375 -66.578125 Z M 7.484375 -66.578125 "/></g></g></g><g fill="#000000" fill-opacity="1"><g transform="translate(491.698009, 337.209972)"><g><path d="M 34.578125 -67.6875 C 37.523438 -68.320312 40.625 -68.710938 43.875 -68.859375 C 47.132812 -69.003906 50.289062 -68.722656 53.34375 -68.015625 C 56.40625 -67.304688 59.226562 -66.082031 61.8125 -64.34375 C 64.40625 -62.601562 66.484375 -60.210938 68.046875 -57.171875 C 69.171875 -55.023438 69.851562 -52.816406 70.09375 -50.546875 C 70.34375 -48.273438 70.210938 -46.066406 69.703125 -43.921875 C 69.191406 -41.785156 68.347656 -39.703125 67.171875 -37.671875 C 65.992188 -35.648438 64.59375 -33.773438 62.96875 -32.046875 C 59.457031 -28.273438 55.535156 -24.984375 51.203125 -22.171875 C 46.878906 -19.359375 42.269531 -17.082031 37.375 -15.34375 C 35.269531 -14.59375 33.097656 -13.910156 30.859375 -13.296875 C 28.628906 -12.691406 26.351562 -12.285156 24.03125 -12.078125 C 21.71875 -11.878906 19.425781 -11.929688 17.15625 -12.234375 C 14.882812 -12.546875 12.722656 -13.226562 10.671875 -14.28125 C 9.210938 -14.976562 8.28125 -16.007812 7.875 -17.375 C 7.175781 -18.90625 6.4375 -20.335938 5.65625 -21.671875 C 4.882812 -23.003906 4.132812 -24.390625 3.40625 -25.828125 C 2.675781 -27.265625 2.0625 -28.707031 1.5625 -30.15625 C 1.0625 -31.601562 0.742188 -33.117188 0.609375 -34.703125 C 0.328125 -37.847656 0.734375 -40.894531 1.828125 -43.84375 C 2.921875 -46.789062 4.53125 -49.4375 6.65625 -51.78125 C 10.238281 -55.84375 14.484375 -59.207031 19.390625 -61.875 C 24.296875 -64.550781 29.359375 -66.488281 34.578125 -67.6875 Z M 51.359375 -57.109375 C 48.773438 -57.828125 46.046875 -58.054688 43.171875 -57.796875 C 40.097656 -57.617188 37.0625 -57.046875 34.0625 -56.078125 C 31.0625 -55.117188 28.226562 -53.910156 25.5625 -52.453125 C 23.039062 -51.203125 20.492188 -49.550781 17.921875 -47.5 C 15.347656 -45.445312 13.519531 -43.066406 12.4375 -40.359375 C 11.8125 -38.910156 11.585938 -37.46875 11.765625 -36.03125 C 11.941406 -34.601562 12.300781 -33.1875 12.84375 -31.78125 C 13.382812 -30.375 14.0625 -28.984375 14.875 -27.609375 C 15.695312 -26.234375 16.453125 -24.875 17.140625 -23.53125 C 18.660156 -23.289062 19.609375 -23.1875 19.984375 -23.21875 C 20.179688 -23.144531 20.414062 -23.117188 20.6875 -23.140625 C 20.957031 -23.160156 21.1875 -23.179688 21.375 -23.203125 C 23.257812 -23.171875 24.925781 -23.363281 26.375 -23.78125 C 27.40625 -23.875 28.691406 -24.175781 30.234375 -24.6875 C 32.597656 -25.351562 34.859375 -26.179688 37.015625 -27.171875 C 39.179688 -28.160156 41.148438 -29.195312 42.921875 -30.28125 C 44.960938 -31.476562 46.953125 -32.769531 48.890625 -34.15625 C 50.828125 -35.550781 52.4375 -36.960938 53.71875 -38.390625 C 54.570312 -39.296875 55.367188 -40.25 56.109375 -41.25 C 56.535156 -41.757812 56.832031 -42.164062 57 -42.46875 C 57.40625 -43.15625 57.734375 -43.671875 57.984375 -44.015625 C 58.234375 -44.367188 58.429688 -44.785156 58.578125 -45.265625 C 58.898438 -45.941406 59.039062 -46.46875 59 -46.84375 C 59.070312 -47.039062 59.117188 -47.28125 59.140625 -47.5625 C 59.160156 -47.84375 59.210938 -48.078125 59.296875 -48.265625 L 59.15625 -49.8125 C 59.03125 -50.164062 58.957031 -50.4375 58.9375 -50.625 C 58.925781 -50.8125 58.863281 -50.992188 58.75 -51.171875 C 58.425781 -51.796875 58.128906 -52.257812 57.859375 -52.5625 C 57.597656 -52.863281 57.316406 -53.191406 57.015625 -53.546875 C 57.117188 -53.453125 56.988281 -53.578125 56.625 -53.921875 C 56.269531 -54.273438 56.039062 -54.492188 55.9375 -54.578125 L 54.734375 -55.59375 C 54.242188 -55.820312 53.703125 -56.097656 53.109375 -56.421875 C 52.515625 -56.742188 51.929688 -56.972656 51.359375 -57.109375 Z M 38.421875 -97.203125 C 39.554688 -98.242188 40.8125 -98.894531 42.1875 -99.15625 C 43.570312 -99.425781 44.921875 -99.003906 46.234375 -97.890625 C 47.335938 -96.960938 48.003906 -95.691406 48.234375 -94.078125 C 48.472656 -92.460938 48.039062 -91.09375 46.9375 -89.96875 C 40.695312 -84.28125 34.125 -79.257812 27.21875 -74.90625 C 25.707031 -73.9375 24.226562 -73.691406 22.78125 -74.171875 C 21.332031 -74.648438 20.207031 -75.457031 19.40625 -76.59375 C 18.613281 -77.738281 18.25 -79.015625 18.3125 -80.421875 C 18.375 -81.835938 19.15625 -83.035156 20.65625 -84.015625 C 23.851562 -85.972656 26.925781 -88.015625 29.875 -90.140625 C 32.820312 -92.273438 35.671875 -94.628906 38.421875 -97.203125 Z M 38.421875 -97.203125 "/></g></g></g><g fill="#000000" fill-opacity="1"><g transform="translate(572.822151, 330.078847)"><g><path d="M 6.0625 -14 C 5.707031 -17.988281 5.632812 -22.046875 5.84375 -26.171875 C 6.050781 -31.148438 6.265625 -36.101562 6.484375 -41.03125 C 6.703125 -45.957031 6.550781 -50.921875 6.03125 -55.921875 C 5.875 -57.691406 6.304688 -59.085938 7.328125 -60.109375 C 8.359375 -61.140625 9.566406 -61.710938 10.953125 -61.828125 C 12.347656 -61.953125 13.691406 -61.601562 14.984375 -60.78125 C 16.285156 -59.96875 17.015625 -58.675781 17.171875 -56.90625 C 20.753906 -57.5 24.171875 -57.941406 27.421875 -58.234375 C 31.140625 -58.460938 34.390625 -57.671875 37.171875 -55.859375 C 39.953125 -54.054688 42.140625 -51.492188 43.734375 -48.171875 C 45.128906 -45.109375 46.066406 -41.914062 46.546875 -38.59375 C 47.023438 -35.269531 47.457031 -31.941406 47.84375 -28.609375 C 48.351562 -23.890625 48.90625 -19.191406 49.5 -14.515625 C 50.09375 -9.847656 50.597656 -5.148438 51.015625 -0.421875 C 51.171875 1.429688 50.707031 2.851562 49.625 3.84375 C 48.539062 4.832031 47.328125 5.382812 45.984375 5.5 C 44.640625 5.613281 43.347656 5.28125 42.109375 4.5 C 40.878906 3.71875 40.1875 2.398438 40.03125 0.546875 C 39.632812 -3.898438 39.175781 -8.253906 38.65625 -12.515625 C 38.144531 -16.773438 37.597656 -21.125 37.015625 -25.5625 C 36.617188 -27.957031 36.332031 -30.429688 36.15625 -32.984375 C 35.976562 -35.535156 35.566406 -37.863281 34.921875 -39.96875 C 34.523438 -41.226562 34.144531 -42.335938 33.78125 -43.296875 C 33.425781 -44.253906 32.832031 -45.15625 32 -46 C 31.78125 -46.363281 31.359375 -46.65625 30.734375 -46.875 C 30.109375 -47.101562 29.5625 -47.203125 29.09375 -47.171875 C 27.695312 -47.046875 26.40625 -46.832031 25.21875 -46.53125 C 24.03125 -46.238281 22.804688 -45.851562 21.546875 -45.375 C 21.003906 -45.132812 20.460938 -44.894531 19.921875 -44.65625 C 19.378906 -44.425781 18.890625 -44.160156 18.453125 -43.859375 C 17.804688 -40.429688 17.40625 -37.1875 17.25 -34.125 C 17.101562 -31.070312 16.976562 -27.992188 16.875 -24.890625 C 16.789062 -22.648438 16.820312 -20.390625 16.96875 -18.109375 C 17.125 -15.835938 17.234375 -13.578125 17.296875 -11.328125 C 17.367188 -9.085938 17.289062 -6.835938 17.0625 -4.578125 C 16.84375 -2.316406 16.3125 -0.117188 15.46875 2.015625 C 14.769531 3.671875 13.734375 4.671875 12.359375 5.015625 C 10.992188 5.359375 9.695312 5.234375 8.46875 4.640625 C 7.238281 4.054688 6.265625 3.09375 5.546875 1.75 C 4.828125 0.414062 4.769531 -1.066406 5.375 -2.703125 C 6.050781 -4.453125 6.347656 -6.304688 6.265625 -8.265625 C 6.191406 -10.222656 6.125 -12.132812 6.0625 -14 Z M 6.0625 -14 "/></g></g></g><g fill="#000000" fill-opacity="1"><g transform="translate(635.717673, 324.550089)"><g/></g></g><g fill="#000000" fill-opacity="1"><g transform="translate(44.956993, 555.555141)"><g><path d="M -0.96875 -84.34375 C -2.863281 -84.738281 -4.082031 -85.847656 -4.625 -87.671875 C -5.207031 -88.929688 -5.191406 -90.359375 -4.578125 -91.953125 C -3.960938 -93.554688 -2.878906 -94.519531 -1.328125 -94.84375 C 7.554688 -97.019531 16.515625 -98.578125 25.546875 -99.515625 C 34.578125 -100.453125 43.640625 -101.367188 52.734375 -102.265625 C 54.492188 -102.410156 55.882812 -101.96875 56.90625 -100.9375 C 57.9375 -99.90625 58.507812 -98.691406 58.625 -97.296875 C 58.75 -95.910156 58.398438 -94.59375 57.578125 -93.34375 C 56.753906 -92.101562 55.460938 -91.410156 53.703125 -91.265625 C 46.472656 -90.441406 39.191406 -89.707031 31.859375 -89.0625 C 24.523438 -88.425781 17.234375 -87.410156 9.984375 -86.015625 C 10.492188 -82.316406 11.046875 -78.644531 11.640625 -75 C 12.234375 -71.363281 12.832031 -67.703125 13.4375 -64.015625 C 20.46875 -65.003906 27.460938 -66.082031 34.421875 -67.25 C 41.378906 -68.425781 48.398438 -69.140625 55.484375 -69.390625 C 57.253906 -69.460938 58.65625 -68.929688 59.6875 -67.796875 C 60.71875 -66.671875 61.289062 -65.410156 61.40625 -64.015625 C 61.53125 -62.628906 61.175781 -61.335938 60.34375 -60.140625 C 59.519531 -58.953125 58.222656 -58.328125 56.453125 -58.265625 C 49.453125 -58.023438 42.566406 -57.328125 35.796875 -56.171875 C 29.035156 -55.015625 22.191406 -53.941406 15.265625 -52.953125 C 16.398438 -46.328125 17.515625 -39.71875 18.609375 -33.125 C 19.710938 -26.539062 20.648438 -19.910156 21.421875 -13.234375 C 24.597656 -14.265625 27.828125 -15.273438 31.109375 -16.265625 C 34.398438 -17.253906 37.691406 -18.101562 40.984375 -18.8125 C 44.285156 -19.519531 47.609375 -20.019531 50.953125 -20.3125 C 54.296875 -20.613281 57.660156 -20.632812 61.046875 -20.375 C 62.554688 -20.21875 63.742188 -19.429688 64.609375 -18.015625 C 65.484375 -16.609375 65.800781 -15.238281 65.5625 -13.90625 C 65.226562 -12.289062 64.4375 -11.097656 63.1875 -10.328125 C 61.945312 -9.554688 60.523438 -9.238281 58.921875 -9.375 C 55.898438 -9.675781 52.867188 -9.597656 49.828125 -9.140625 C 46.785156 -8.691406 43.800781 -8.101562 40.875 -7.375 C 37.488281 -6.519531 34.132812 -5.570312 30.8125 -4.53125 C 27.488281 -3.5 24.191406 -2.410156 20.921875 -1.265625 C 19.367188 -0.753906 17.859375 -0.90625 16.390625 -1.71875 C 15.078125 -1.789062 13.875 -2.195312 12.78125 -2.9375 C 11.6875 -3.6875 11.066406 -4.898438 10.921875 -6.578125 C 10.035156 -14.453125 9 -22.210938 7.8125 -29.859375 C 6.632812 -37.515625 5.375 -45.210938 4.03125 -52.953125 C 2.925781 -53.890625 2.234375 -55.117188 1.953125 -56.640625 C 1.679688 -58.160156 1.96875 -59.507812 2.8125 -60.6875 C 1.363281 -68.507812 0.101562 -76.394531 -0.96875 -84.34375 Z M -0.96875 -84.34375 "/></g></g></g><g fill="#000000" fill-opacity="1"><g transform="translate(122.323104, 548.754362)"><g><path d="M 18.375 0.203125 C 17.125 0.773438 15.703125 0.757812 14.109375 0.15625 C 12.515625 -0.445312 11.554688 -1.484375 11.234375 -2.953125 C 9.222656 -10.992188 7.703125 -19.015625 6.671875 -27.015625 C 5.640625 -35.023438 4.765625 -43.113281 4.046875 -51.28125 C 3.921875 -52.664062 4.191406 -53.804688 4.859375 -54.703125 C 5.535156 -55.597656 6.367188 -56.226562 7.359375 -56.59375 C 8.359375 -56.96875 9.421875 -57.109375 10.546875 -57.015625 C 11.679688 -56.929688 12.648438 -56.5625 13.453125 -55.90625 C 15.441406 -57.84375 17.582031 -59.566406 19.875 -61.078125 C 22.175781 -62.585938 24.535156 -63.660156 26.953125 -64.296875 C 29.378906 -64.929688 31.828125 -65.003906 34.296875 -64.515625 C 36.773438 -64.023438 39.179688 -62.769531 41.515625 -60.75 C 43.441406 -59.039062 45.144531 -57.195312 46.625 -55.21875 C 48.101562 -53.238281 49.457031 -51.140625 50.6875 -48.921875 C 51.769531 -52.578125 53.429688 -56 55.671875 -59.1875 C 57.910156 -62.375 60.9375 -64.644531 64.75 -66 C 67.5625 -67 69.847656 -67.035156 71.609375 -66.109375 C 73.367188 -65.191406 75.09375 -63.6875 76.78125 -61.59375 C 78.550781 -59.40625 80.21875 -57.164062 81.78125 -54.875 C 83.34375 -52.582031 84.835938 -50.234375 86.265625 -47.828125 C 87.679688 -45.429688 89.0625 -43.03125 90.40625 -40.625 C 91.75 -38.21875 93.078125 -35.859375 94.390625 -33.546875 C 95.929688 -30.960938 97.300781 -28.394531 98.5 -25.84375 C 99.707031 -23.289062 100.582031 -20.535156 101.125 -17.578125 C 101.457031 -16.015625 101.039062 -14.644531 99.875 -13.46875 C 98.71875 -12.300781 97.441406 -11.65625 96.046875 -11.53125 C 94.472656 -11.382812 93.148438 -11.800781 92.078125 -12.78125 C 91.015625 -13.757812 90.316406 -15.03125 89.984375 -16.59375 C 89.617188 -18.8125 88.851562 -20.914062 87.6875 -22.90625 C 86.519531 -24.90625 85.382812 -26.894531 84.28125 -28.875 C 83.070312 -30.914062 81.882812 -33.003906 80.71875 -35.140625 C 79.550781 -37.285156 78.363281 -39.382812 77.15625 -41.4375 C 75.945312 -43.46875 74.664062 -45.5 73.3125 -47.53125 C 71.96875 -49.570312 70.554688 -51.554688 69.078125 -53.484375 C 68.867188 -53.734375 68.65625 -53.988281 68.4375 -54.25 C 68.226562 -54.519531 68.019531 -54.789062 67.8125 -55.0625 C 66.050781 -53.863281 64.789062 -52.765625 64.03125 -51.765625 C 63.269531 -50.773438 62.597656 -49.460938 62.015625 -47.828125 C 61.472656 -46.359375 61.0625 -44.835938 60.78125 -43.265625 C 60.5 -41.703125 60.285156 -40.125 60.140625 -38.53125 C 59.859375 -35.507812 59.71875 -32.363281 59.71875 -29.09375 C 59.75 -26.664062 59.976562 -24.347656 60.40625 -22.140625 C 60.832031 -19.929688 60.921875 -17.601562 60.671875 -15.15625 C 60.523438 -13.644531 59.757812 -12.453125 58.375 -11.578125 C 57 -10.710938 55.597656 -10.410156 54.171875 -10.671875 C 52.847656 -10.910156 51.84375 -11.492188 51.15625 -12.421875 C 50.46875 -13.347656 49.972656 -14.445312 49.671875 -15.71875 C 49.046875 -18.65625 48.359375 -21.679688 47.609375 -24.796875 C 46.867188 -27.921875 45.992188 -31.003906 44.984375 -34.046875 C 43.972656 -37.085938 42.753906 -40.015625 41.328125 -42.828125 C 39.910156 -45.648438 38.160156 -48.234375 36.078125 -50.578125 C 34.640625 -52.128906 33.222656 -53.125 31.828125 -53.5625 C 30.441406 -54.007812 28.816406 -53.632812 26.953125 -52.4375 C 24.910156 -51.132812 22.941406 -49.601562 21.046875 -47.84375 C 19.148438 -46.09375 17.492188 -44.171875 16.078125 -42.078125 C 16.691406 -36.148438 17.421875 -30.253906 18.265625 -24.390625 C 19.109375 -18.535156 20.253906 -12.726562 21.703125 -6.96875 C 22.015625 -5.394531 21.921875 -3.953125 21.421875 -2.640625 C 20.929688 -1.335938 19.914062 -0.390625 18.375 0.203125 Z M 18.375 0.203125 "/></g></g></g><g fill="#000000" fill-opacity="1"><g transform="translate(231.423972, 539.163976)"><g><path d="M 34.578125 -67.6875 C 37.523438 -68.320312 40.625 -68.710938 43.875 -68.859375 C 47.132812 -69.003906 50.289062 -68.722656 53.34375 -68.015625 C 56.40625 -67.304688 59.226562 -66.082031 61.8125 -64.34375 C 64.40625 -62.601562 66.484375 -60.210938 68.046875 -57.171875 C 69.171875 -55.023438 69.851562 -52.816406 70.09375 -50.546875 C 70.34375 -48.273438 70.210938 -46.066406 69.703125 -43.921875 C 69.191406 -41.785156 68.347656 -39.703125 67.171875 -37.671875 C 65.992188 -35.648438 64.59375 -33.773438 62.96875 -32.046875 C 59.457031 -28.273438 55.535156 -24.984375 51.203125 -22.171875 C 46.878906 -19.359375 42.269531 -17.082031 37.375 -15.34375 C 35.269531 -14.59375 33.097656 -13.910156 30.859375 -13.296875 C 28.628906 -12.691406 26.351562 -12.285156 24.03125 -12.078125 C 21.71875 -11.878906 19.425781 -11.929688 17.15625 -12.234375 C 14.882812 -12.546875 12.722656 -13.226562 10.671875 -14.28125 C 9.210938 -14.976562 8.28125 -16.007812 7.875 -17.375 C 7.175781 -18.90625 6.4375 -20.335938 5.65625 -21.671875 C 4.882812 -23.003906 4.132812 -24.390625 3.40625 -25.828125 C 2.675781 -27.265625 2.0625 -28.707031 1.5625 -30.15625 C 1.0625 -31.601562 0.742188 -33.117188 0.609375 -34.703125 C 0.328125 -37.847656 0.734375 -40.894531 1.828125 -43.84375 C 2.921875 -46.789062 4.53125 -49.4375 6.65625 -51.78125 C 10.238281 -55.84375 14.484375 -59.207031 19.390625 -61.875 C 24.296875 -64.550781 29.359375 -66.488281 34.578125 -67.6875 Z M 51.359375 -57.109375 C 48.773438 -57.828125 46.046875 -58.054688 43.171875 -57.796875 C 40.097656 -57.617188 37.0625 -57.046875 34.0625 -56.078125 C 31.0625 -55.117188 28.226562 -53.910156 25.5625 -52.453125 C 23.039062 -51.203125 20.492188 -49.550781 17.921875 -47.5 C 15.347656 -45.445312 13.519531 -43.066406 12.4375 -40.359375 C 11.8125 -38.910156 11.585938 -37.46875 11.765625 -36.03125 C 11.941406 -34.601562 12.300781 -33.1875 12.84375 -31.78125 C 13.382812 -30.375 14.0625 -28.984375 14.875 -27.609375 C 15.695312 -26.234375 16.453125 -24.875 17.140625 -23.53125 C 18.660156 -23.289062 19.609375 -23.1875 19.984375 -23.21875 C 20.179688 -23.144531 20.414062 -23.117188 20.6875 -23.140625 C 20.957031 -23.160156 21.1875 -23.179688 21.375 -23.203125 C 23.257812 -23.171875 24.925781 -23.363281 26.375 -23.78125 C 27.40625 -23.875 28.691406 -24.175781 30.234375 -24.6875 C 32.597656 -25.351562 34.859375 -26.179688 37.015625 -27.171875 C 39.179688 -28.160156 41.148438 -29.195312 42.921875 -30.28125 C 44.960938 -31.476562 46.953125 -32.769531 48.890625 -34.15625 C 50.828125 -35.550781 52.4375 -36.960938 53.71875 -38.390625 C 54.570312 -39.296875 55.367188 -40.25 56.109375 -41.25 C 56.535156 -41.757812 56.832031 -42.164062 57 -42.46875 C 57.40625 -43.15625 57.734375 -43.671875 57.984375 -44.015625 C 58.234375 -44.367188 58.429688 -44.785156 58.578125 -45.265625 C 58.898438 -45.941406 59.039062 -46.46875 59 -46.84375 C 59.070312 -47.039062 59.117188 -47.28125 59.140625 -47.5625 C 59.160156 -47.84375 59.210938 -48.078125 59.296875 -48.265625 L 59.15625 -49.8125 C 59.03125 -50.164062 58.957031 -50.4375 58.9375 -50.625 C 58.925781 -50.8125 58.863281 -50.992188 58.75 -51.171875 C 58.425781 -51.796875 58.128906 -52.257812 57.859375 -52.5625 C 57.597656 -52.863281 57.316406 -53.191406 57.015625 -53.546875 C 57.117188 -53.453125 56.988281 -53.578125 56.625 -53.921875 C 56.269531 -54.273438 56.039062 -54.492188 55.9375 -54.578125 L 54.734375 -55.59375 C 54.242188 -55.820312 53.703125 -56.097656 53.109375 -56.421875 C 52.515625 -56.742188 51.929688 -56.972656 51.359375 -57.109375 Z M 51.359375 -57.109375 "/></g></g></g><g fill="#000000" fill-opacity="1"><g transform="translate(312.548156, 532.032848)"><g><path d="M 45.265625 -14.921875 C 45.742188 -13.648438 45.675781 -12.238281 45.0625 -10.6875 C 44.457031 -9.144531 43.421875 -8.164062 41.953125 -7.75 C 37.015625 -6.476562 32.046875 -6.113281 27.046875 -6.65625 C 22.046875 -7.207031 17.3125 -8.914062 12.84375 -11.78125 C 8.476562 -14.675781 5.210938 -18.570312 3.046875 -23.46875 C 0.890625 -28.375 0.144531 -33.429688 0.8125 -38.640625 C 1.4375 -43.273438 3.222656 -47.40625 6.171875 -51.03125 C 9.128906 -54.65625 12.613281 -57.582031 16.625 -59.8125 C 20.175781 -61.894531 23.945312 -63.625 27.9375 -65 C 31.9375 -66.382812 35.992188 -67.070312 40.109375 -67.0625 C 41.703125 -67.007812 43.070312 -66.539062 44.21875 -65.65625 C 45.375 -64.78125 46.023438 -63.554688 46.171875 -61.984375 C 46.285156 -60.585938 45.863281 -59.238281 44.90625 -57.9375 C 43.945312 -56.644531 42.675781 -55.976562 41.09375 -55.9375 C 38.101562 -55.945312 35.191406 -55.546875 32.359375 -54.734375 C 29.535156 -53.921875 26.828125 -52.796875 24.234375 -51.359375 C 22.722656 -50.472656 21.238281 -49.546875 19.78125 -48.578125 C 18.332031 -47.609375 17.09375 -46.566406 16.0625 -45.453125 C 14.96875 -44.242188 14.066406 -43.039062 13.359375 -41.84375 C 12.660156 -40.65625 12.195312 -39.304688 11.96875 -37.796875 C 11.71875 -36.285156 11.710938 -34.695312 11.953125 -33.03125 C 12.203125 -31.375 12.648438 -29.753906 13.296875 -28.171875 C 13.953125 -26.585938 14.800781 -25.164062 15.84375 -23.90625 C 16.894531 -22.644531 18.113281 -21.601562 19.5 -20.78125 C 22.363281 -19.070312 25.425781 -18.007812 28.6875 -17.59375 C 31.945312 -17.1875 35.082031 -17.394531 38.09375 -18.21875 C 39.5625 -18.625 40.972656 -18.5625 42.328125 -18.03125 C 43.679688 -17.5 44.660156 -16.460938 45.265625 -14.921875 Z M 45.265625 -14.921875 "/></g></g></g><g fill="#000000" fill-opacity="1"><g transform="translate(370.149615, 526.969458)"><g><path d="M 6.40625 -1.96875 C 6.769531 -6.488281 7.25 -10.945312 7.84375 -15.34375 C 8.4375 -19.75 8.765625 -24.195312 8.828125 -28.6875 C 8.816406 -33.09375 8.507812 -37.394531 7.90625 -41.59375 C 7.300781 -45.789062 7.179688 -50.101562 7.546875 -54.53125 C 7.609375 -56.019531 8.367188 -57.203125 9.828125 -58.078125 C 11.296875 -58.960938 12.691406 -59.273438 14.015625 -59.015625 C 15.640625 -58.703125 16.804688 -57.921875 17.515625 -56.671875 C 18.234375 -55.421875 18.566406 -54.046875 18.515625 -52.546875 C 18.335938 -50.367188 18.367188 -48.171875 18.609375 -45.953125 C 18.847656 -43.734375 19.113281 -41.519531 19.40625 -39.3125 C 19.78125 -35.03125 19.878906 -30.734375 19.703125 -26.421875 C 19.535156 -21.921875 19.195312 -17.492188 18.6875 -13.140625 C 18.175781 -8.796875 17.75 -4.410156 17.40625 0.015625 C 17.25 1.515625 16.460938 2.703125 15.046875 3.578125 C 13.628906 4.460938 12.253906 4.773438 10.921875 4.515625 C 9.304688 4.191406 8.113281 3.410156 7.34375 2.171875 C 6.570312 0.929688 6.257812 -0.445312 6.40625 -1.96875 Z M 7.484375 -66.578125 C 6.804688 -66.710938 6.125 -66.957031 5.4375 -67.3125 C 4.75 -67.664062 4.242188 -68.160156 3.921875 -68.796875 C 3.578125 -69.503906 3.285156 -70.128906 3.046875 -70.671875 C 2.804688 -71.222656 2.65625 -71.863281 2.59375 -72.59375 C 2.519531 -73.4375 2.585938 -74.285156 2.796875 -75.140625 C 3.023438 -76.847656 3.660156 -78.125 4.703125 -78.96875 C 5.023438 -79.550781 5.503906 -80.007812 6.140625 -80.34375 C 7.085938 -81.082031 8.207031 -81.53125 9.5 -81.6875 C 10.789062 -81.851562 11.988281 -81.609375 13.09375 -80.953125 C 13.582031 -80.628906 14.078125 -80.28125 14.578125 -79.90625 C 15.085938 -79.53125 15.503906 -79.023438 15.828125 -78.390625 C 16.054688 -77.941406 16.3125 -77.445312 16.59375 -76.90625 C 16.875 -76.375 16.988281 -75.832031 16.9375 -75.28125 C 16.90625 -74.613281 16.863281 -74 16.8125 -73.4375 C 16.769531 -72.875 16.585938 -72.34375 16.265625 -71.84375 C 15.859375 -71.144531 15.523438 -70.644531 15.265625 -70.34375 C 15.015625 -70.039062 14.585938 -69.628906 13.984375 -69.109375 C 13.640625 -68.703125 13.101562 -68.378906 12.375 -68.140625 C 10.53125 -66.847656 8.898438 -66.328125 7.484375 -66.578125 Z M 7.484375 -66.578125 "/></g></g></g><g fill="#000000" fill-opacity="1"><g transform="translate(407.151362, 523.716862)"><g><path d="M 34.578125 -67.6875 C 37.523438 -68.320312 40.625 -68.710938 43.875 -68.859375 C 47.132812 -69.003906 50.289062 -68.722656 53.34375 -68.015625 C 56.40625 -67.304688 59.226562 -66.082031 61.8125 -64.34375 C 64.40625 -62.601562 66.484375 -60.210938 68.046875 -57.171875 C 69.171875 -55.023438 69.851562 -52.816406 70.09375 -50.546875 C 70.34375 -48.273438 70.210938 -46.066406 69.703125 -43.921875 C 69.191406 -41.785156 68.347656 -39.703125 67.171875 -37.671875 C 65.992188 -35.648438 64.59375 -33.773438 62.96875 -32.046875 C 59.457031 -28.273438 55.535156 -24.984375 51.203125 -22.171875 C 46.878906 -19.359375 42.269531 -17.082031 37.375 -15.34375 C 35.269531 -14.59375 33.097656 -13.910156 30.859375 -13.296875 C 28.628906 -12.691406 26.351562 -12.285156 24.03125 -12.078125 C 21.71875 -11.878906 19.425781 -11.929688 17.15625 -12.234375 C 14.882812 -12.546875 12.722656 -13.226562 10.671875 -14.28125 C 9.210938 -14.976562 8.28125 -16.007812 7.875 -17.375 C 7.175781 -18.90625 6.4375 -20.335938 5.65625 -21.671875 C 4.882812 -23.003906 4.132812 -24.390625 3.40625 -25.828125 C 2.675781 -27.265625 2.0625 -28.707031 1.5625 -30.15625 C 1.0625 -31.601562 0.742188 -33.117188 0.609375 -34.703125 C 0.328125 -37.847656 0.734375 -40.894531 1.828125 -43.84375 C 2.921875 -46.789062 4.53125 -49.4375 6.65625 -51.78125 C 10.238281 -55.84375 14.484375 -59.207031 19.390625 -61.875 C 24.296875 -64.550781 29.359375 -66.488281 34.578125 -67.6875 Z M 51.359375 -57.109375 C 48.773438 -57.828125 46.046875 -58.054688 43.171875 -57.796875 C 40.097656 -57.617188 37.0625 -57.046875 34.0625 -56.078125 C 31.0625 -55.117188 28.226562 -53.910156 25.5625 -52.453125 C 23.039062 -51.203125 20.492188 -49.550781 17.921875 -47.5 C 15.347656 -45.445312 13.519531 -43.066406 12.4375 -40.359375 C 11.8125 -38.910156 11.585938 -37.46875 11.765625 -36.03125 C 11.941406 -34.601562 12.300781 -33.1875 12.84375 -31.78125 C 13.382812 -30.375 14.0625 -28.984375 14.875 -27.609375 C 15.695312 -26.234375 16.453125 -24.875 17.140625 -23.53125 C 18.660156 -23.289062 19.609375 -23.1875 19.984375 -23.21875 C 20.179688 -23.144531 20.414062 -23.117188 20.6875 -23.140625 C 20.957031 -23.160156 21.1875 -23.179688 21.375 -23.203125 C 23.257812 -23.171875 24.925781 -23.363281 26.375 -23.78125 C 27.40625 -23.875 28.691406 -24.175781 30.234375 -24.6875 C 32.597656 -25.351562 34.859375 -26.179688 37.015625 -27.171875 C 39.179688 -28.160156 41.148438 -29.195312 42.921875 -30.28125 C 44.960938 -31.476562 46.953125 -32.769531 48.890625 -34.15625 C 50.828125 -35.550781 52.4375 -36.960938 53.71875 -38.390625 C 54.570312 -39.296875 55.367188 -40.25 56.109375 -41.25 C 56.535156 -41.757812 56.832031 -42.164062 57 -42.46875 C 57.40625 -43.15625 57.734375 -43.671875 57.984375 -44.015625 C 58.234375 -44.367188 58.429688 -44.785156 58.578125 -45.265625 C 58.898438 -45.941406 59.039062 -46.46875 59 -46.84375 C 59.070312 -47.039062 59.117188 -47.28125 59.140625 -47.5625 C 59.160156 -47.84375 59.210938 -48.078125 59.296875 -48.265625 L 59.15625 -49.8125 C 59.03125 -50.164062 58.957031 -50.4375 58.9375 -50.625 C 58.925781 -50.8125 58.863281 -50.992188 58.75 -51.171875 C 58.425781 -51.796875 58.128906 -52.257812 57.859375 -52.5625 C 57.597656 -52.863281 57.316406 -53.191406 57.015625 -53.546875 C 57.117188 -53.453125 56.988281 -53.578125 56.625 -53.921875 C 56.269531 -54.273438 56.039062 -54.492188 55.9375 -54.578125 L 54.734375 -55.59375 C 54.242188 -55.820312 53.703125 -56.097656 53.109375 -56.421875 C 52.515625 -56.742188 51.929688 -56.972656 51.359375 -57.109375 Z M 51.359375 -57.109375 "/></g></g></g><g fill="#000000" fill-opacity="1"><g transform="translate(488.275504, 516.585737)"><g><path d="M 6.0625 -14 C 5.707031 -17.988281 5.632812 -22.046875 5.84375 -26.171875 C 6.050781 -31.148438 6.265625 -36.101562 6.484375 -41.03125 C 6.703125 -45.957031 6.550781 -50.921875 6.03125 -55.921875 C 5.875 -57.691406 6.304688 -59.085938 7.328125 -60.109375 C 8.359375 -61.140625 9.566406 -61.710938 10.953125 -61.828125 C 12.347656 -61.953125 13.691406 -61.601562 14.984375 -60.78125 C 16.285156 -59.96875 17.015625 -58.675781 17.171875 -56.90625 C 20.753906 -57.5 24.171875 -57.941406 27.421875 -58.234375 C 31.140625 -58.460938 34.390625 -57.671875 37.171875 -55.859375 C 39.953125 -54.054688 42.140625 -51.492188 43.734375 -48.171875 C 45.128906 -45.109375 46.066406 -41.914062 46.546875 -38.59375 C 47.023438 -35.269531 47.457031 -31.941406 47.84375 -28.609375 C 48.351562 -23.890625 48.90625 -19.191406 49.5 -14.515625 C 50.09375 -9.847656 50.597656 -5.148438 51.015625 -0.421875 C 51.171875 1.429688 50.707031 2.851562 49.625 3.84375 C 48.539062 4.832031 47.328125 5.382812 45.984375 5.5 C 44.640625 5.613281 43.347656 5.28125 42.109375 4.5 C 40.878906 3.71875 40.1875 2.398438 40.03125 0.546875 C 39.632812 -3.898438 39.175781 -8.253906 38.65625 -12.515625 C 38.144531 -16.773438 37.597656 -21.125 37.015625 -25.5625 C 36.617188 -27.957031 36.332031 -30.429688 36.15625 -32.984375 C 35.976562 -35.535156 35.566406 -37.863281 34.921875 -39.96875 C 34.523438 -41.226562 34.144531 -42.335938 33.78125 -43.296875 C 33.425781 -44.253906 32.832031 -45.15625 32 -46 C 31.78125 -46.363281 31.359375 -46.65625 30.734375 -46.875 C 30.109375 -47.101562 29.5625 -47.203125 29.09375 -47.171875 C 27.695312 -47.046875 26.40625 -46.832031 25.21875 -46.53125 C 24.03125 -46.238281 22.804688 -45.851562 21.546875 -45.375 C 21.003906 -45.132812 20.460938 -44.894531 19.921875 -44.65625 C 19.378906 -44.425781 18.890625 -44.160156 18.453125 -43.859375 C 17.804688 -40.429688 17.40625 -37.1875 17.25 -34.125 C 17.101562 -31.070312 16.976562 -27.992188 16.875 -24.890625 C 16.789062 -22.648438 16.820312 -20.390625 16.96875 -18.109375 C 17.125 -15.835938 17.234375 -13.578125 17.296875 -11.328125 C 17.367188 -9.085938 17.289062 -6.835938 17.0625 -4.578125 C 16.84375 -2.316406 16.3125 -0.117188 15.46875 2.015625 C 14.769531 3.671875 13.734375 4.671875 12.359375 5.015625 C 10.992188 5.359375 9.695312 5.234375 8.46875 4.640625 C 7.238281 4.054688 6.265625 3.09375 5.546875 1.75 C 4.828125 0.414062 4.769531 -1.066406 5.375 -2.703125 C 6.050781 -4.453125 6.347656 -6.304688 6.265625 -8.265625 C 6.191406 -10.222656 6.125 -12.132812 6.0625 -14 Z M 6.0625 -14 "/></g></g></g><g fill="#000000" fill-opacity="1"><g transform="translate(551.166111, 511.057411)"><g><path d="M 15.953125 -5.1875 C 12.671875 -6.3125 10.015625 -8.019531 7.984375 -10.3125 C 5.960938 -12.613281 4.472656 -15.21875 3.515625 -18.125 C 2.554688 -21.039062 2.078125 -24.109375 2.078125 -27.328125 C 2.078125 -30.546875 2.453125 -33.6875 3.203125 -36.75 C 3.847656 -39.144531 4.59375 -41.640625 5.4375 -44.234375 C 6.289062 -46.828125 7.363281 -49.257812 8.65625 -51.53125 C 9.957031 -53.800781 11.5625 -55.789062 13.46875 -57.5 C 15.375 -59.21875 17.695312 -60.425781 20.4375 -61.125 C 23.28125 -61.832031 26.164062 -62.25 29.09375 -62.375 C 32.019531 -62.5 34.941406 -62.457031 37.859375 -62.25 C 39.179688 -62.175781 40.460938 -61.976562 41.703125 -61.65625 C 42.953125 -61.34375 44.203125 -61.007812 45.453125 -60.65625 C 45.421875 -62.0625 45.941406 -63.28125 47.015625 -64.3125 C 48.097656 -65.34375 49.285156 -65.914062 50.578125 -66.03125 C 52.160156 -66.164062 53.484375 -65.742188 54.546875 -64.765625 C 55.617188 -63.785156 56.316406 -62.554688 56.640625 -61.078125 C 57.472656 -56.859375 58.050781 -52.609375 58.375 -48.328125 C 58.707031 -44.054688 58.945312 -39.773438 59.09375 -35.484375 C 59.238281 -31.191406 59.425781 -26.90625 59.65625 -22.625 C 59.894531 -18.351562 60.296875 -14.09375 60.859375 -9.84375 C 61.109375 -8.082031 60.691406 -6.707031 59.609375 -5.71875 C 58.523438 -4.738281 57.285156 -4.1875 55.890625 -4.0625 C 54.503906 -3.9375 53.191406 -4.265625 51.953125 -5.046875 C 50.710938 -5.835938 49.96875 -7.109375 49.71875 -8.859375 C 44.632812 -6.171875 39.132812 -4.398438 33.21875 -3.546875 C 27.300781 -2.703125 21.546875 -3.25 15.953125 -5.1875 Z M 14.28125 -35.484375 C 13.863281 -33.753906 13.515625 -31.804688 13.234375 -29.640625 C 12.960938 -27.472656 13.003906 -25.421875 13.359375 -23.484375 C 13.722656 -21.546875 14.484375 -19.804688 15.640625 -18.265625 C 16.796875 -16.734375 18.570312 -15.75 20.96875 -15.3125 C 25.820312 -14.226562 30.609375 -14.222656 35.328125 -15.296875 C 40.046875 -16.378906 44.378906 -18.445312 48.328125 -21.5 C 48.296875 -26.070312 48.207031 -30.503906 48.0625 -34.796875 C 47.914062 -39.085938 47.609375 -43.410156 47.140625 -47.765625 C 45.472656 -48.640625 43.789062 -49.398438 42.09375 -50.046875 C 40.40625 -50.691406 38.570312 -51.066406 36.59375 -51.171875 C 34.625 -51.285156 32.539062 -51.316406 30.34375 -51.265625 C 28.15625 -51.210938 26.046875 -51.003906 24.015625 -50.640625 C 23.828125 -50.617188 23.347656 -50.457031 22.578125 -50.15625 C 21.816406 -49.851562 21.394531 -49.648438 21.3125 -49.546875 C 20.425781 -49.003906 19.648438 -48.191406 18.984375 -47.109375 C 17.929688 -45.328125 17.019531 -43.445312 16.25 -41.46875 C 15.488281 -39.488281 14.832031 -37.492188 14.28125 -35.484375 Z M 14.28125 -35.484375 "/></g></g></g><g fill="#000000" fill-opacity="1"><g transform="translate(625.33094, 504.538037)"><g><path d="M 5.28125 -110.578125 C 6.957031 -110.722656 8.304688 -110.28125 9.328125 -109.25 C 10.359375 -108.21875 11.035156 -106.960938 11.359375 -105.484375 C 13.054688 -96.765625 14.335938 -88 15.203125 -79.1875 C 16.078125 -70.375 16.738281 -61.546875 17.1875 -52.703125 C 17.632812 -43.859375 17.914062 -35 18.03125 -26.125 C 18.15625 -17.25 18.273438 -8.425781 18.390625 0.34375 C 18.359375 1.9375 17.898438 3.304688 17.015625 4.453125 C 16.128906 5.609375 14.898438 6.257812 13.328125 6.40625 C 11.929688 6.519531 10.582031 6.097656 9.28125 5.140625 C 7.976562 4.179688 7.304688 2.910156 7.265625 1.328125 C 7.148438 -7.441406 7.050781 -16.265625 6.96875 -25.140625 C 6.894531 -34.023438 6.628906 -42.890625 6.171875 -51.734375 C 5.722656 -60.578125 5.066406 -69.40625 4.203125 -78.21875 C 3.335938 -87.03125 2.054688 -95.796875 0.359375 -104.515625 C 0.0351562 -105.992188 0.425781 -107.34375 1.53125 -108.5625 C 2.644531 -109.78125 3.894531 -110.453125 5.28125 -110.578125 Z M 5.28125 -110.578125 "/></g></g></g><g fill="#000000" fill-opacity="1"><g transform="translate(660.253804, 501.468183)"><g/></g></g></g></g></g></g></g><path fill="#000000" d="M 419.878906 701.253906 C 423.761719 701.242188 428.519531 699.976562 434.15625 697.460938 L 434.152344 697.460938 C 436.25 696.523438 438.125 695.46875 439.789062 694.300781 L 439.8125 694.285156 C 440.351562 693.960938 441.605469 692.742188 443.566406 690.628906 C 443.722656 690.464844 443.984375 690.453125 444.152344 690.609375 C 444.320312 690.765625 444.328125 691.023438 444.171875 691.191406 C 442.15625 693.359375 440.847656 694.625 440.238281 694.992188 L 440.265625 694.972656 C 438.558594 696.175781 436.636719 697.253906 434.492188 698.214844 C 428.75 700.777344 423.882812 702.066406 419.878906 702.078125 C 419.652344 702.078125 419.46875 701.894531 419.464844 701.667969 C 419.464844 701.4375 419.648438 701.253906 419.878906 701.253906 Z M 419.878906 701.253906 " fill-opacity="1" fill-rule="nonzero"/><path fill="#000000" d="M 447.738281 698.851562 C 447.71875 698.703125 447.523438 698.207031 447.152344 697.371094 L 447.160156 697.390625 L 445.246094 693.589844 L 445.257812 693.605469 C 444.726562 692.664062 444.210938 691.863281 443.703125 691.203125 C 443.5625 691.023438 443.597656 690.765625 443.777344 690.625 C 443.960938 690.488281 444.21875 690.523438 444.359375 690.703125 C 444.890625 691.394531 445.429688 692.226562 445.976562 693.199219 L 445.984375 693.21875 L 447.898438 697.019531 L 447.910156 697.039062 C 448.308594 697.945312 448.523438 698.511719 448.558594 698.734375 C 448.589844 698.960938 448.433594 699.171875 448.207031 699.203125 C 447.980469 699.234375 447.769531 699.078125 447.738281 698.851562 Z M 447.738281 698.851562 " fill-opacity="1" fill-rule="nonzero"/><path fill="#000000" d="M 450.078125 706.546875 C 450.027344 706.378906 449.984375 706.230469 449.953125 706.101562 L 449.949219 706.097656 C 449.644531 704.839844 449.476562 704.164062 449.449219 704.070312 C 449.449219 704.074219 449.453125 704.078125 449.453125 704.085938 C 449.449219 704.074219 449.445312 704.058594 449.441406 704.042969 C 449.296875 703.535156 449.179688 703.144531 449.082031 702.871094 L 449.074219 702.851562 C 448.882812 702.203125 448.527344 701.398438 448.015625 700.4375 C 447.910156 700.238281 447.984375 699.988281 448.1875 699.878906 C 448.386719 699.773438 448.636719 699.847656 448.746094 700.050781 C 449.285156 701.058594 449.65625 701.914062 449.867188 702.613281 L 449.859375 702.59375 C 449.964844 702.886719 450.089844 703.296875 450.234375 703.824219 L 450.222656 703.78125 C 450.226562 703.792969 450.230469 703.804688 450.234375 703.820312 C 450.273438 703.933594 450.445312 704.628906 450.753906 705.902344 L 450.753906 705.898438 C 450.78125 706.011719 450.820312 706.144531 450.867188 706.300781 C 450.9375 706.515625 450.816406 706.746094 450.597656 706.816406 C 450.378906 706.882812 450.148438 706.761719 450.078125 706.546875 Z M 450.078125 706.546875 " fill-opacity="1" fill-rule="nonzero"/><path fill="#000000" d="M 448.109375 718.261719 C 447.105469 721.1875 444.925781 723.125 441.570312 724.078125 L 441.546875 724.082031 C 438.855469 724.691406 435.851562 723.980469 432.527344 721.953125 C 428.242188 719.359375 425.070312 716.628906 423.019531 713.757812 L 423.011719 713.75 C 420.777344 710.449219 419.53125 706.582031 419.269531 702.152344 C 419.253906 701.925781 419.429688 701.730469 419.65625 701.714844 C 419.886719 701.703125 420.082031 701.875 420.09375 702.105469 C 420.347656 706.382812 421.546875 710.109375 423.695312 713.289062 L 423.691406 713.28125 C 425.679688 716.058594 428.765625 718.714844 432.957031 721.25 C 436.089844 723.160156 438.894531 723.835938 441.367188 723.277344 L 441.34375 723.285156 C 444.421875 722.410156 446.417969 720.648438 447.328125 717.996094 C 447.402344 717.78125 447.636719 717.664062 447.855469 717.738281 C 448.070312 717.8125 448.183594 718.046875 448.109375 718.261719 Z M 448.109375 718.261719 " fill-opacity="1" fill-rule="nonzero"/><path fill="#000000" d="M 446.433594 705.195312 C 445.382812 704.886719 444.308594 704.90625 443.210938 705.246094 L 443.222656 705.242188 C 441.773438 705.742188 440.679688 706.445312 439.933594 707.339844 L 439.949219 707.320312 C 439.3125 708.1875 439.019531 708.828125 439.0625 709.246094 C 439.074219 709.339844 439.050781 709.433594 439 709.515625 C 439.023438 709.476562 439.035156 709.445312 439.039062 709.414062 C 439.023438 709.675781 439.359375 710.519531 440.050781 711.949219 C 440.0625 711.96875 440.066406 711.984375 440.074219 712.003906 C 440.1875 712.363281 440.222656 712.683594 440.175781 712.960938 L 440.179688 712.933594 C 440.109375 713.617188 439.65625 714.117188 438.816406 714.441406 L 438.789062 714.453125 C 437.789062 714.761719 436.921875 714.621094 436.191406 714.039062 L 436.167969 714.019531 C 435.789062 713.667969 435.464844 713.289062 435.203125 712.878906 C 435.195312 712.867188 435.1875 712.855469 435.179688 712.839844 C 433.933594 710.386719 433.15625 709.054688 432.851562 708.855469 C 432.855469 708.855469 432.859375 708.855469 432.863281 708.859375 C 432.824219 708.839844 432.789062 708.816406 432.757812 708.785156 C 431.867188 707.917969 430.988281 707.476562 430.132812 707.46875 C 429.304688 707.460938 428.539062 707.992188 427.839844 709.070312 L 427.820312 709.09375 C 427.503906 709.503906 427.222656 709.9375 426.96875 710.394531 L 426.988281 710.355469 C 426.148438 712.292969 425.441406 713.699219 424.871094 714.570312 L 424.929688 714.246094 C 424.863281 713.988281 424.707031 713.890625 424.449219 713.953125 C 424.417969 713.960938 424.390625 713.972656 424.375 713.984375 C 424.445312 713.9375 424.621094 713.773438 424.902344 713.492188 L 424.890625 713.507812 C 426.140625 712.117188 426.871094 711.347656 427.074219 711.199219 C 427.128906 711.15625 427.183594 711.128906 427.238281 711.113281 L 427.089844 711.195312 C 427.570312 710.789062 428.195312 710.386719 428.972656 709.980469 L 428.988281 709.972656 C 430.703125 709.160156 432.296875 708.917969 433.769531 709.246094 C 433.992188 709.296875 434.132812 709.515625 434.082031 709.738281 C 434.035156 709.960938 433.8125 710.101562 433.589844 710.050781 C 432.300781 709.765625 430.886719 709.984375 429.34375 710.71875 L 429.355469 710.710938 C 428.632812 711.089844 428.054688 711.460938 427.621094 711.824219 C 427.578125 711.863281 427.527344 711.890625 427.472656 711.90625 C 427.511719 711.894531 427.542969 711.878906 427.566406 711.863281 C 427.40625 711.980469 426.71875 712.710938 425.503906 714.058594 L 425.488281 714.074219 C 425.160156 714.402344 424.9375 714.601562 424.8125 714.679688 L 424.816406 714.679688 C 424.757812 714.714844 424.703125 714.742188 424.648438 714.753906 C 424.367188 714.824219 424.195312 714.71875 424.125 714.441406 C 424.097656 714.332031 424.117188 714.214844 424.179688 714.117188 C 424.726562 713.285156 425.40625 711.921875 426.230469 710.03125 C 426.234375 710.019531 426.238281 710.003906 426.246094 709.996094 C 426.519531 709.503906 426.824219 709.035156 427.164062 708.59375 L 427.144531 708.617188 C 428.011719 707.292969 429.011719 706.632812 430.140625 706.640625 C 431.21875 706.65625 432.285156 707.171875 433.335938 708.195312 L 433.234375 708.121094 C 433.257812 708.136719 433.285156 708.148438 433.3125 708.167969 C 433.734375 708.449219 434.605469 709.882812 435.917969 712.46875 L 435.894531 712.433594 C 436.121094 712.78125 436.398438 713.109375 436.730469 713.414062 L 436.707031 713.394531 C 437.210938 713.796875 437.824219 713.886719 438.546875 713.664062 L 438.515625 713.671875 C 439.042969 713.472656 439.324219 713.195312 439.359375 712.851562 L 439.363281 712.824219 C 439.386719 712.679688 439.359375 712.488281 439.285156 712.253906 L 439.308594 712.308594 C 438.554688 710.75 438.191406 709.773438 438.210938 709.367188 C 438.21875 709.253906 438.25 709.152344 438.304688 709.066406 L 438.242188 709.335938 C 438.171875 708.707031 438.519531 707.871094 439.285156 706.832031 L 439.300781 706.8125 C 440.140625 705.800781 441.359375 705.015625 442.953125 704.460938 L 442.964844 704.457031 C 444.21875 704.066406 445.453125 704.050781 446.664062 704.402344 C 446.882812 704.464844 447.007812 704.695312 446.945312 704.914062 C 446.882812 705.132812 446.652344 705.257812 446.433594 705.195312 Z M 446.433594 705.195312 " fill-opacity="1" fill-rule="nonzero"/><path fill="#000000" d="M 438.214844 708.921875 C 437.851562 707.824219 437.671875 707.136719 437.683594 706.855469 C 437.683594 706.835938 437.683594 706.816406 437.6875 706.796875 L 437.6875 706.882812 C 437.640625 706.367188 437.722656 705.789062 437.933594 705.152344 L 437.929688 705.164062 C 438.265625 704.023438 439.109375 703.042969 440.46875 702.222656 C 440.480469 702.214844 440.496094 702.207031 440.507812 702.203125 C 441.644531 701.679688 442.835938 701.628906 444.078125 702.046875 L 444.046875 702.035156 C 444.925781 702.257812 445.878906 703.082031 446.902344 704.507812 C 447.035156 704.695312 446.992188 704.953125 446.804688 705.085938 C 446.621094 705.21875 446.363281 705.175781 446.230469 704.988281 C 445.324219 703.726562 444.53125 703.007812 443.84375 702.835938 L 443.8125 702.828125 C 442.777344 702.480469 441.792969 702.519531 440.851562 702.953125 L 440.894531 702.929688 C 439.722656 703.640625 438.996094 704.460938 438.722656 705.398438 L 438.71875 705.410156 C 438.542969 705.941406 438.472656 706.40625 438.507812 706.808594 C 438.511719 706.835938 438.511719 706.863281 438.507812 706.894531 C 438.507812 706.890625 438.507812 706.886719 438.507812 706.886719 C 438.503906 707.066406 438.664062 707.660156 439 708.664062 C 439.070312 708.878906 438.953125 709.113281 438.738281 709.183594 C 438.519531 709.253906 438.285156 709.136719 438.214844 708.921875 Z M 438.214844 708.921875 " fill-opacity="1" fill-rule="nonzero"/><g clip-path="url(#815ba0f2e5)"><path fill="#000000" d="M 338.652344 722.523438 C 344.359375 728.238281 350.34375 730.285156 356.609375 728.667969 L 356.617188 728.664062 C 359.460938 728.015625 361.460938 727.199219 362.621094 726.210938 L 362.578125 726.253906 C 367.453125 720.65625 371.527344 716.941406 374.804688 715.109375 C 378.449219 713.074219 381.527344 712.183594 384.046875 712.441406 L 384.03125 712.4375 C 388.382812 712.710938 391.355469 715.589844 392.949219 721.082031 C 392.957031 721.097656 392.960938 721.117188 392.960938 721.136719 C 393.554688 725.308594 391.804688 728.269531 387.71875 730.015625 L 387.71875 730.011719 C 385.203125 731.109375 381.8125 730.308594 377.550781 727.613281 L 377.523438 727.59375 C 374.09375 725 371.890625 721.828125 370.914062 718.074219 C 370.910156 718.058594 370.90625 718.042969 370.90625 718.027344 C 369.535156 708.5625 372.128906 701.214844 378.683594 695.984375 L 378.671875 695.996094 C 382.996094 692.285156 387.957031 690.148438 393.550781 689.574219 L 393.53125 689.578125 C 394.699219 689.402344 396.453125 689.429688 398.792969 689.667969 L 398.824219 689.671875 C 407.652344 691.300781 413.175781 692.113281 415.402344 692.105469 L 415.4375 692.105469 C 418.09375 692.335938 420.476562 692.148438 422.589844 691.546875 L 422.621094 691.539062 C 424.636719 691.121094 426.945312 690.152344 429.550781 688.640625 L 429.519531 688.65625 L 441.644531 680.203125 C 441.660156 680.191406 441.675781 680.183594 441.691406 680.175781 C 444.710938 678.617188 447.3125 677.660156 449.492188 677.300781 L 449.507812 677.296875 C 454.410156 676.652344 458.320312 677.222656 461.234375 679.007812 L 461.253906 679.019531 C 465.886719 682.171875 468.875 685.71875 470.214844 689.664062 C 470.21875 689.679688 470.222656 689.695312 470.226562 689.710938 C 471.386719 695.160156 470.421875 699.117188 467.328125 701.582031 L 467.429688 701.464844 C 466.417969 703.25 462.507812 703.503906 455.699219 702.226562 C 455.472656 702.183594 455.324219 701.96875 455.367188 701.746094 C 455.410156 701.523438 455.625 701.375 455.851562 701.417969 C 462.273438 702.621094 465.890625 702.5 466.710938 701.058594 C 466.738281 701.011719 466.769531 700.972656 466.8125 700.9375 C 469.640625 698.683594 470.507812 694.996094 469.417969 689.882812 L 469.433594 689.929688 C 468.148438 686.160156 465.269531 682.75 460.785156 679.703125 L 460.804688 679.710938 C 458.054688 678.027344 454.324219 677.496094 449.613281 678.117188 L 449.628906 678.113281 C 447.53125 678.460938 445.011719 679.390625 442.070312 680.910156 L 442.117188 680.878906 L 429.992188 689.335938 L 429.964844 689.351562 C 427.285156 690.910156 424.894531 691.910156 422.789062 692.347656 L 422.816406 692.339844 C 420.605469 692.972656 418.121094 693.167969 415.367188 692.929688 L 415.402344 692.929688 C 413.128906 692.9375 407.554688 692.121094 398.675781 690.484375 L 398.710938 690.488281 C 396.4375 690.257812 394.753906 690.226562 393.65625 690.390625 L 393.636719 690.394531 C 388.210938 690.949219 383.402344 693.023438 379.207031 696.621094 L 379.199219 696.628906 C 372.890625 701.664062 370.398438 708.757812 371.722656 717.910156 L 371.714844 717.867188 C 372.640625 721.433594 374.746094 724.457031 378.023438 726.933594 L 377.992188 726.914062 C 382.007812 729.457031 385.140625 730.234375 387.390625 729.257812 L 387.390625 729.253906 C 391.089844 727.675781 392.675781 725.007812 392.144531 721.253906 L 392.15625 721.308594 C 390.671875 716.191406 387.945312 713.511719 383.980469 713.261719 L 383.964844 713.261719 C 381.617188 713.019531 378.699219 713.878906 375.207031 715.828125 C 372.015625 717.613281 368.011719 721.269531 363.199219 726.796875 C 363.1875 726.8125 363.171875 726.824219 363.15625 726.839844 C 361.894531 727.914062 359.773438 728.792969 356.804688 729.46875 L 356.8125 729.464844 C 350.246094 731.164062 343.996094 729.042969 338.066406 723.105469 C 337.90625 722.945312 337.90625 722.683594 338.070312 722.523438 C 338.230469 722.363281 338.492188 722.363281 338.652344 722.523438 Z M 338.652344 722.523438 " fill-opacity="1" fill-rule="nonzero"/></g><path fill="#000000" d="M 446.128906 704.691406 C 445.792969 702.308594 446.535156 700.632812 448.351562 699.664062 C 448.378906 699.648438 448.40625 699.636719 448.4375 699.628906 C 449.070312 699.457031 449.703125 699.46875 450.339844 699.664062 L 450.316406 699.65625 C 450.609375 699.726562 450.878906 699.804688 451.121094 699.890625 L 451.144531 699.898438 C 452.925781 700.640625 453.917969 701.03125 454.121094 701.070312 C 454.136719 701.074219 454.15625 701.078125 454.175781 701.085938 C 454.488281 701.191406 454.980469 701.265625 455.648438 701.3125 C 455.664062 701.3125 455.675781 701.3125 455.6875 701.316406 L 455.621094 701.3125 L 455.6875 701.316406 C 455.804688 701.335938 455.933594 701.375 456.070312 701.433594 C 456.28125 701.519531 456.378906 701.761719 456.289062 701.972656 C 456.203125 702.183594 455.960938 702.28125 455.75 702.191406 C 455.671875 702.160156 455.605469 702.140625 455.554688 702.128906 L 455.621094 702.136719 L 455.59375 702.136719 C 454.851562 702.085938 454.289062 701.996094 453.90625 701.863281 L 453.964844 701.878906 C 453.703125 701.828125 452.660156 701.421875 450.824219 700.660156 L 450.847656 700.667969 C 450.628906 700.59375 450.386719 700.523438 450.125 700.460938 L 450.097656 700.453125 C 449.613281 700.304688 449.132812 700.292969 448.652344 700.425781 L 448.742188 700.390625 C 447.261719 701.179688 446.664062 702.574219 446.949219 704.574219 C 446.980469 704.800781 446.820312 705.007812 446.597656 705.039062 C 446.371094 705.074219 446.160156 704.914062 446.128906 704.691406 Z M 446.128906 704.691406 " fill-opacity="1" fill-rule="nonzero"/><path fill="#000000" d="M 451.820312 719.449219 C 451.449219 719.023438 450.867188 718.5625 450.070312 718.066406 C 449.460938 717.6875 448.625 717.320312 447.566406 716.96875 C 447.550781 716.964844 447.539062 716.960938 447.527344 716.957031 C 447.398438 716.898438 447.292969 716.832031 447.210938 716.753906 C 447.144531 716.691406 447.089844 716.621094 447.054688 716.542969 L 447.050781 716.53125 C 447.023438 716.472656 447.003906 716.40625 446.996094 716.335938 C 446.984375 716.25 446.984375 716.15625 447 716.050781 L 447.007812 716.015625 C 447.117188 715.515625 447.207031 714.972656 447.269531 714.390625 L 447.269531 714.394531 C 447.351562 713.542969 447.398438 712.953125 447.40625 712.628906 L 447.40625 712.609375 C 447.449219 711.988281 447.441406 711.074219 447.375 709.859375 L 447.375 709.878906 C 447.292969 709.070312 447.179688 708.460938 447.039062 708.046875 C 447.035156 708.035156 447.03125 708.019531 447.027344 708.007812 C 446.972656 707.769531 446.644531 707.171875 446.050781 706.214844 C 445.929688 706.023438 445.992188 705.769531 446.183594 705.648438 C 446.378906 705.527344 446.632812 705.589844 446.753906 705.78125 C 447.394531 706.8125 447.753906 707.492188 447.832031 707.820312 L 447.820312 707.78125 C 447.984375 708.25 448.109375 708.921875 448.199219 709.796875 L 448.199219 709.816406 C 448.265625 711.0625 448.277344 712.015625 448.230469 712.667969 L 448.230469 712.648438 C 448.222656 712.992188 448.175781 713.601562 448.09375 714.476562 L 448.089844 714.480469 C 448.023438 715.09375 447.929688 715.664062 447.8125 716.195312 L 447.820312 716.160156 C 447.816406 716.191406 447.8125 716.21875 447.816406 716.230469 C 447.8125 716.222656 447.808594 716.210938 447.804688 716.199219 L 447.796875 716.1875 C 447.792969 716.171875 447.785156 716.160156 447.777344 716.152344 C 447.789062 716.164062 447.820312 716.179688 447.863281 716.199219 L 447.824219 716.1875 C 448.949219 716.558594 449.84375 716.953125 450.507812 717.367188 L 450.503906 717.367188 C 451.371094 717.90625 452.019531 718.417969 452.445312 718.90625 C 452.59375 719.078125 452.574219 719.339844 452.402344 719.488281 C 452.230469 719.640625 451.96875 719.621094 451.820312 719.449219 Z M 451.820312 719.449219 " fill-opacity="1" fill-rule="nonzero"/><path fill="#000000" d="M 433.292969 716.667969 C 434.085938 717.039062 434.996094 717.160156 436.019531 717.023438 L 436.023438 717.023438 C 437.722656 716.816406 439.144531 716.445312 440.285156 715.910156 L 440.304688 715.902344 C 441.382812 715.457031 442.316406 714.839844 443.101562 714.054688 C 443.113281 714.042969 443.125 714.03125 443.136719 714.023438 C 443.300781 713.894531 443.753906 713.371094 444.5 712.453125 L 444.519531 712.429688 C 444.652344 712.289062 444.824219 711.945312 445.035156 711.394531 C 445.046875 711.367188 445.0625 711.339844 445.078125 711.3125 C 445.261719 711.042969 445.480469 710.992188 445.734375 711.164062 C 445.761719 711.179688 445.785156 711.203125 445.808594 711.222656 C 445.871094 711.285156 445.910156 711.367188 445.921875 711.457031 C 446.070312 712.5 445.695312 714.230469 444.800781 716.648438 L 444.789062 716.675781 C 444.257812 717.839844 443.238281 718.777344 441.722656 719.496094 L 441.726562 719.492188 C 438.660156 721.007812 435.746094 720.351562 432.976562 717.53125 C 432.816406 717.367188 432.820312 717.105469 432.984375 716.945312 C 433.148438 716.789062 433.410156 716.789062 433.566406 716.953125 C 436.054688 719.492188 438.652344 720.089844 441.359375 718.753906 L 441.367188 718.75 C 442.699219 718.121094 443.589844 717.3125 444.039062 716.332031 L 444.027344 716.363281 C 444.871094 714.074219 445.230469 712.476562 445.105469 711.570312 L 445.21875 711.804688 C 445.234375 711.820312 445.253906 711.835938 445.273438 711.847656 C 445.472656 711.984375 445.636719 711.960938 445.761719 711.777344 L 445.808594 711.691406 C 445.558594 712.339844 445.332031 712.773438 445.125 712.992188 L 445.144531 712.972656 C 444.359375 713.9375 443.863281 714.5 443.652344 714.667969 L 443.6875 714.636719 C 442.824219 715.5 441.800781 716.175781 440.621094 716.664062 L 440.636719 716.65625 C 439.414062 717.230469 437.910156 717.625 436.125 717.84375 L 436.128906 717.839844 C 434.945312 717.996094 433.882812 717.855469 432.941406 717.414062 C 432.734375 717.320312 432.644531 717.074219 432.742188 716.867188 C 432.839844 716.660156 433.085938 716.574219 433.292969 716.667969 Z M 433.292969 716.667969 " fill-opacity="1" fill-rule="nonzero"/><path fill="#000000" d="M 468.726562 711.542969 C 467.386719 712.078125 464.03125 711.894531 458.660156 711 L 458.632812 710.996094 C 454.535156 710.015625 450.390625 708.464844 446.210938 706.335938 C 446.007812 706.234375 445.925781 705.984375 446.03125 705.78125 C 446.132812 705.578125 446.382812 705.496094 446.585938 705.601562 C 450.707031 707.699219 454.789062 709.230469 458.824219 710.191406 L 458.796875 710.1875 C 464.015625 711.058594 467.222656 711.253906 468.421875 710.777344 C 468.632812 710.695312 468.875 710.796875 468.957031 711.007812 C 469.042969 711.21875 468.9375 711.460938 468.726562 711.542969 Z M 468.726562 711.542969 " fill-opacity="1" fill-rule="nonzero"/><path fill="#000000" d="M 468.855469 711.019531 C 469.582031 714.082031 468.785156 718.023438 466.464844 722.851562 L 466.453125 722.871094 C 464.277344 726.75 461.65625 729.5625 458.585938 731.304688 L 458.589844 731.300781 C 454.984375 733.378906 451.90625 733.867188 449.351562 732.765625 L 449.371094 732.773438 C 448.191406 732.328125 447.101562 731.492188 446.097656 730.261719 L 446.105469 730.269531 C 444.757812 728.714844 443.976562 727.1875 443.753906 725.691406 C 443.722656 725.464844 443.878906 725.257812 444.101562 725.222656 C 444.328125 725.191406 444.539062 725.34375 444.570312 725.570312 C 444.769531 726.910156 445.488281 728.296875 446.730469 729.730469 L 446.742188 729.742188 C 447.648438 730.859375 448.621094 731.609375 449.660156 732 L 449.679688 732.007812 C 451.980469 733 454.8125 732.527344 458.175781 730.585938 L 458.179688 730.585938 C 461.113281 728.917969 463.632812 726.214844 465.730469 722.46875 L 465.71875 722.492188 C 467.953125 717.84375 468.730469 714.082031 468.050781 711.210938 C 467.996094 710.988281 468.136719 710.765625 468.355469 710.714844 C 468.578125 710.664062 468.800781 710.800781 468.855469 711.019531 Z M 468.855469 711.019531 " fill-opacity="1" fill-rule="nonzero"/><path fill="#000000" d="M 447.933594 713.609375 C 450.003906 713.363281 451.5 714.140625 452.421875 715.929688 L 452.433594 715.953125 C 452.8125 716.804688 452.992188 717.828125 452.976562 719.023438 L 452.976562 719.035156 C 452.960938 719.359375 452.902344 719.78125 452.789062 720.292969 C 452.789062 720.308594 452.785156 720.320312 452.777344 720.335938 C 452.308594 721.761719 452.078125 722.585938 452.089844 722.8125 C 452.089844 722.796875 452.085938 722.78125 452.078125 722.761719 C 452.09375 722.8125 452.101562 722.863281 452.097656 722.914062 C 452.09375 722.996094 452.226562 723.101562 452.496094 723.226562 L 452.484375 723.21875 C 452.941406 723.414062 453.289062 723.414062 453.523438 723.214844 L 453.546875 723.199219 C 453.542969 723.199219 453.542969 723.199219 453.546875 723.199219 L 453.542969 723.199219 C 453.796875 723.007812 454.429688 721.867188 455.445312 719.785156 C 455.449219 719.769531 455.457031 719.757812 455.464844 719.746094 C 455.664062 719.429688 455.894531 719.117188 456.160156 718.804688 L 456.164062 718.800781 C 457.195312 717.632812 458.339844 716.832031 459.597656 716.398438 L 459.632812 716.386719 C 460.792969 716.09375 461.777344 716.386719 462.582031 717.269531 L 462.605469 717.292969 C 463.296875 718.179688 463.585938 719.304688 463.46875 720.675781 C 463.449219 720.902344 463.25 721.070312 463.023438 721.050781 C 462.796875 721.03125 462.628906 720.832031 462.648438 720.605469 C 462.742188 719.453125 462.511719 718.519531 461.953125 717.800781 L 461.972656 717.828125 C 461.386719 717.1875 460.675781 716.972656 459.835938 717.1875 L 459.867188 717.175781 C 458.746094 717.5625 457.71875 718.285156 456.785156 719.347656 L 456.789062 719.339844 C 456.550781 719.621094 456.339844 719.902344 456.164062 720.183594 L 456.1875 720.144531 C 455.117188 722.347656 454.402344 723.582031 454.042969 723.855469 L 454.042969 723.859375 C 454.039062 723.859375 454.039062 723.859375 454.035156 723.863281 L 454.054688 723.847656 C 453.558594 724.261719 452.925781 724.304688 452.160156 723.980469 L 452.148438 723.972656 C 451.535156 723.6875 451.246094 723.320312 451.273438 722.863281 L 451.292969 723.015625 C 451.277344 722.964844 451.269531 722.910156 451.265625 722.851562 C 451.25 722.523438 451.492188 721.597656 451.992188 720.078125 L 451.984375 720.121094 C 452.082031 719.652344 452.140625 719.28125 452.152344 719 L 452.148438 719.011719 C 452.164062 717.9375 452.007812 717.03125 451.679688 716.285156 L 451.6875 716.308594 C 450.941406 714.855469 449.722656 714.226562 448.03125 714.425781 C 447.804688 714.453125 447.597656 714.292969 447.570312 714.066406 C 447.546875 713.839844 447.707031 713.632812 447.933594 713.609375 Z M 447.933594 713.609375 " fill-opacity="1" fill-rule="nonzero"/><path fill="#000000" d="M 456.277344 719.011719 C 458.257812 718.425781 460.15625 718.664062 461.972656 719.71875 L 461.960938 719.710938 C 463.996094 720.816406 465.210938 722.175781 465.605469 723.785156 C 465.660156 724.007812 465.523438 724.230469 465.300781 724.285156 C 465.082031 724.339844 464.855469 724.203125 464.800781 723.980469 C 464.464844 722.609375 463.386719 721.425781 461.566406 720.4375 L 461.554688 720.429688 C 459.945312 719.496094 458.265625 719.285156 456.511719 719.804688 C 456.292969 719.867188 456.0625 719.742188 455.996094 719.523438 C 455.933594 719.304688 456.058594 719.078125 456.277344 719.011719 Z M 456.277344 719.011719 " fill-opacity="1" fill-rule="nonzero"/><path fill="#000000" d="M 447.351562 722.222656 C 448.121094 724.058594 449.59375 725.21875 451.765625 725.699219 L 451.796875 725.707031 C 452.972656 726.0625 453.972656 726.191406 454.789062 726.09375 L 454.828125 726.089844 C 455.601562 726.066406 456.71875 725.761719 458.179688 725.175781 C 458.207031 725.167969 458.230469 725.160156 458.257812 725.15625 C 458.261719 725.152344 458.265625 725.152344 458.273438 725.152344 C 458.554688 725.101562 458.765625 725.191406 458.902344 725.421875 C 458.953125 725.503906 458.972656 725.605469 458.953125 725.703125 C 458.644531 727.453125 457.554688 729.105469 455.679688 730.660156 L 455.652344 730.679688 C 454.074219 731.792969 452.425781 732.105469 450.707031 731.625 L 450.703125 731.625 C 449.109375 731.164062 447.921875 730.1875 447.140625 728.695312 C 447.128906 728.679688 447.121094 728.660156 447.117188 728.644531 C 446.117188 725.828125 445.914062 723.636719 446.515625 722.074219 C 446.59375 721.863281 446.835938 721.757812 447.046875 721.835938 C 447.261719 721.917969 447.367188 722.15625 447.285156 722.371094 C 446.757812 723.742188 446.960938 725.742188 447.894531 728.367188 L 447.871094 728.3125 C 448.542969 729.597656 449.5625 730.4375 450.933594 730.832031 L 450.929688 730.832031 C 452.398438 731.242188 453.8125 730.96875 455.179688 730.007812 L 455.152344 730.027344 C 456.871094 728.601562 457.867188 727.113281 458.140625 725.558594 L 458.191406 725.84375 C 458.25 725.941406 458.324219 725.980469 458.414062 725.964844 L 458.488281 725.941406 C 456.9375 726.5625 455.726562 726.886719 454.851562 726.914062 L 454.890625 726.910156 C 453.957031 727.023438 452.84375 726.886719 451.554688 726.496094 L 451.585938 726.503906 C 449.136719 725.960938 447.46875 724.640625 446.589844 722.539062 C 446.5 722.328125 446.601562 722.089844 446.8125 722 C 447.019531 721.914062 447.261719 722.011719 447.351562 722.222656 Z M 447.351562 722.222656 " fill-opacity="1" fill-rule="nonzero"/><path fill="#000000" d="M 465.914062 723.5625 C 467.589844 727.539062 466.386719 731.777344 462.300781 736.273438 C 462.285156 736.292969 462.269531 736.308594 462.25 736.320312 C 458.410156 739.335938 453.789062 740.449219 448.382812 739.664062 L 448.34375 739.65625 C 443.929688 738.59375 440.347656 736.332031 437.597656 732.871094 L 437.589844 732.863281 C 436.441406 731.320312 435.824219 729.898438 435.742188 728.585938 L 435.742188 728.566406 C 435.722656 726.355469 436.222656 725.242188 437.238281 725.234375 C 437.445312 725.234375 437.664062 725.28125 437.898438 725.382812 L 437.890625 725.378906 C 438.511719 725.628906 438.671875 726.117188 438.378906 726.839844 C 438.148438 727.398438 437.589844 728.144531 436.695312 729.070312 C 436.679688 729.082031 436.667969 729.09375 436.652344 729.105469 C 435.535156 730 434.0625 730.589844 432.246094 730.875 L 432.261719 730.875 C 429.628906 731.414062 426.945312 730.453125 424.207031 727.996094 C 424.191406 727.980469 424.175781 727.964844 424.160156 727.949219 C 422.671875 726.125 421.917969 724.402344 421.90625 722.789062 L 421.90625 722.808594 C 421.753906 720.289062 422.359375 717.523438 423.722656 714.511719 C 423.816406 714.304688 424.0625 714.210938 424.269531 714.304688 C 424.476562 714.398438 424.570312 714.644531 424.476562 714.851562 C 423.167969 717.738281 422.589844 720.375 422.730469 722.757812 L 422.730469 722.78125 C 422.742188 724.203125 423.433594 725.753906 424.800781 727.429688 L 424.757812 727.382812 C 427.289062 729.65625 429.734375 730.550781 432.097656 730.066406 L 432.117188 730.0625 C 433.789062 729.796875 435.132812 729.261719 436.136719 728.460938 L 436.097656 728.5 C 436.921875 727.648438 437.425781 726.992188 437.613281 726.53125 C 437.699219 726.316406 437.6875 726.1875 437.582031 726.144531 L 437.574219 726.140625 C 437.445312 726.085938 437.335938 726.058594 437.242188 726.058594 C 436.78125 726.0625 436.554688 726.898438 436.570312 728.558594 L 436.570312 728.539062 C 436.640625 729.683594 437.199219 730.960938 438.253906 732.371094 L 438.246094 732.359375 C 440.875 735.671875 444.304688 737.835938 448.539062 738.851562 L 448.5 738.847656 C 453.671875 739.597656 458.085938 738.539062 461.738281 735.671875 L 461.6875 735.71875 C 465.539062 731.484375 466.695312 727.535156 465.152344 723.882812 C 465.0625 723.671875 465.164062 723.429688 465.371094 723.339844 C 465.582031 723.253906 465.824219 723.351562 465.914062 723.5625 Z M 465.914062 723.5625 " fill-opacity="1" fill-rule="nonzero"/></svg>