<svg xmlns="http://www.w3.org/2000/svg" xmlns:xlink="http://www.w3.org/1999/xlink" width="1080" zoomAndPan="magnify" viewBox="0 0 810 809.999993" height="1080" preserveAspectRatio="xMidYMid meet" version="1.0"><defs><g/><clipPath id="6cfc6af7b9"><path d="M 6.792969 6.792969 L 803.292969 6.792969 L 803.292969 803.292969 L 6.792969 803.292969 Z M 6.792969 6.792969 " clip-rule="nonzero"/></clipPath><clipPath id="2dac8885ee"><path d="M 0.71875 0.761719 L 694.558594 0.761719 L 694.558594 460.121094 L 0.71875 460.121094 Z M 0.71875 0.761719 " clip-rule="nonzero"/></clipPath><clipPath id="86f386fdef"><rect x="0" width="695" y="0" height="461"/></clipPath><clipPath id="40b7706014"><rect x="0" width="695" y="0" height="461"/></clipPath></defs><g clip-path="url(#6cfc6af7b9)"><path fill="#ffdb1c" d="M 404.988281 42.742188 C 205.242188 42.742188 42.738281 205.242188 42.738281 404.992188 C 42.738281 604.738281 205.242188 767.246094 404.988281 767.246094 C 604.730469 767.246094 767.234375 604.738281 767.234375 404.992188 C 767.234375 205.242188 604.730469 42.742188 404.988281 42.742188 Z M 404.988281 803.1875 C 185.425781 803.1875 6.800781 624.554688 6.800781 404.992188 C 6.800781 185.429688 185.425781 6.800781 404.988281 6.800781 C 624.550781 6.800781 803.179688 185.429688 803.179688 404.992188 C 803.179688 624.554688 624.550781 803.1875 404.988281 803.1875 " fill-opacity="1" fill-rule="nonzero"/></g><g transform="matrix(1, 0, 0, 1, 60, 173)"><g clip-path="url(#40b7706014)"><g clip-path="url(#2dac8885ee)"><g transform="matrix(1, 0, 0, 1, 0, 0.000000000000056843)"><g clip-path="url(#86f386fdef)"><g fill="#000000" fill-opacity="1"><g transform="translate(27.555903, 209.965219)"><g><path d="M -1.03125 -90.796875 C -3.082031 -91.210938 -4.394531 -92.410156 -4.96875 -94.390625 C -5.59375 -95.722656 -5.578125 -97.25 -4.921875 -98.96875 C -4.265625 -100.695312 -3.101562 -101.734375 -1.4375 -102.078125 C 8.132812 -104.429688 17.78125 -106.109375 27.5 -107.109375 C 37.21875 -108.109375 46.96875 -109.09375 56.75 -110.0625 C 58.644531 -110.226562 60.144531 -109.753906 61.25 -108.640625 C 62.351562 -107.535156 62.96875 -106.234375 63.09375 -104.734375 C 63.226562 -103.234375 62.851562 -101.816406 61.96875 -100.484375 C 61.082031 -99.148438 59.691406 -98.398438 57.796875 -98.234375 C 50.023438 -97.335938 42.191406 -96.539062 34.296875 -95.84375 C 26.410156 -95.15625 18.554688 -94.066406 10.734375 -92.578125 C 11.273438 -88.597656 11.867188 -84.648438 12.515625 -80.734375 C 13.171875 -76.816406 13.820312 -72.875 14.46875 -68.90625 C 22.03125 -69.976562 29.554688 -71.144531 37.046875 -72.40625 C 44.535156 -73.664062 52.085938 -74.429688 59.703125 -74.703125 C 61.609375 -74.765625 63.117188 -74.191406 64.234375 -72.984375 C 65.347656 -71.773438 65.96875 -70.421875 66.09375 -68.921875 C 66.226562 -67.421875 65.847656 -66.023438 64.953125 -64.734375 C 64.066406 -63.453125 62.671875 -62.78125 60.765625 -62.71875 C 53.242188 -62.457031 45.835938 -61.703125 38.546875 -60.453125 C 31.253906 -59.210938 23.882812 -58.0625 16.4375 -57 C 17.675781 -49.863281 18.878906 -42.75 20.046875 -35.65625 C 21.210938 -28.5625 22.21875 -21.429688 23.0625 -14.265625 C 26.488281 -15.367188 29.960938 -16.453125 33.484375 -17.515625 C 37.015625 -18.578125 40.554688 -19.492188 44.109375 -20.265625 C 47.671875 -21.035156 51.25 -21.578125 54.84375 -21.890625 C 58.445312 -22.203125 62.066406 -22.21875 65.703125 -21.9375 C 67.328125 -21.769531 68.609375 -20.921875 69.546875 -19.390625 C 70.484375 -17.867188 70.816406 -16.390625 70.546875 -14.953125 C 70.191406 -13.210938 69.347656 -11.929688 68.015625 -11.109375 C 66.679688 -10.285156 65.148438 -9.953125 63.421875 -10.109375 C 60.171875 -10.429688 56.90625 -10.34375 53.625 -9.84375 C 50.351562 -9.351562 47.140625 -8.71875 43.984375 -7.9375 C 40.335938 -7.007812 36.726562 -5.988281 33.15625 -4.875 C 29.582031 -3.757812 26.035156 -2.585938 22.515625 -1.359375 C 20.859375 -0.816406 19.238281 -0.976562 17.65625 -1.84375 C 16.238281 -1.9375 14.9375 -2.378906 13.75 -3.171875 C 12.570312 -3.972656 11.90625 -5.273438 11.75 -7.078125 C 10.8125 -15.535156 9.703125 -23.882812 8.421875 -32.125 C 7.140625 -40.375 5.785156 -48.660156 4.359375 -56.984375 C 3.160156 -57.992188 2.410156 -59.3125 2.109375 -60.9375 C 1.816406 -62.570312 2.117188 -64.035156 3.015625 -65.328125 C 1.460938 -73.753906 0.113281 -82.242188 -1.03125 -90.796875 Z M -1.03125 -90.796875 "/></g></g></g><g fill="#000000" fill-opacity="1"><g transform="translate(110.82593, 202.645463)"><g><path d="M 9.515625 -34.359375 C 6.753906 -36.023438 4.695312 -38.234375 3.34375 -40.984375 C 2 -43.734375 1.679688 -46.75 2.390625 -50.03125 C 3.128906 -53.007812 4.445312 -55.738281 6.34375 -58.21875 C 8.25 -60.707031 10.488281 -62.769531 13.0625 -64.40625 C 15.90625 -66.269531 18.988281 -67.796875 22.3125 -68.984375 C 25.632812 -70.179688 29.039062 -70.984375 32.53125 -71.390625 C 36.019531 -71.796875 39.519531 -71.773438 43.03125 -71.328125 C 46.539062 -70.890625 49.910156 -70.003906 53.140625 -68.671875 C 54.921875 -67.929688 55.976562 -66.820312 56.3125 -65.34375 C 56.644531 -63.863281 56.488281 -62.4375 55.84375 -61.0625 C 55.207031 -59.695312 54.164062 -58.648438 52.71875 -57.921875 C 51.28125 -57.191406 49.671875 -57.207031 47.890625 -57.96875 C 45.378906 -59.050781 42.609375 -59.660156 39.578125 -59.796875 C 36.546875 -59.929688 33.519531 -59.6875 30.5 -59.0625 C 27.488281 -58.445312 24.6875 -57.421875 22.09375 -55.984375 C 19.5 -54.546875 17.390625 -52.800781 15.765625 -50.75 C 15.316406 -50.207031 15.023438 -49.828125 14.890625 -49.609375 C 14.753906 -49.398438 14.566406 -48.929688 14.328125 -48.203125 L 14.1875 -46.546875 C 14.5625 -45.671875 14.851562 -45.140625 15.0625 -44.953125 C 17.175781 -43.835938 19.320312 -43.195312 21.5 -43.03125 C 23.675781 -42.863281 25.867188 -42.832031 28.078125 -42.9375 C 31.191406 -43 34.378906 -43.097656 37.640625 -43.234375 C 40.898438 -43.367188 44.082031 -43.222656 47.1875 -42.796875 C 50.289062 -42.367188 53.210938 -41.46875 55.953125 -40.09375 C 58.691406 -38.726562 61.097656 -36.570312 63.171875 -33.625 C 65.472656 -30.300781 66.710938 -26.757812 66.890625 -23 C 67.066406 -19.25 65.890625 -15.753906 63.359375 -12.515625 C 60.828125 -9.265625 57.765625 -6.90625 54.171875 -5.4375 C 50.578125 -3.96875 46.898438 -2.8125 43.140625 -1.96875 C 39.785156 -1.28125 36.273438 -0.875 32.609375 -0.75 C 28.953125 -0.625 25.410156 -0.890625 21.984375 -1.546875 C 18.554688 -2.203125 15.304688 -3.375 12.234375 -5.0625 C 9.160156 -6.757812 6.539062 -9.125 4.375 -12.15625 C 3.332031 -13.6875 3.046875 -15.195312 3.515625 -16.6875 C 3.984375 -18.1875 4.8125 -19.363281 6 -20.21875 C 7.1875 -21.082031 8.554688 -21.484375 10.109375 -21.421875 C 11.671875 -21.359375 13.03125 -20.578125 14.1875 -19.078125 C 15.78125 -16.878906 17.878906 -15.289062 20.484375 -14.3125 C 23.085938 -13.332031 25.882812 -12.75 28.875 -12.5625 C 31.863281 -12.382812 34.84375 -12.550781 37.8125 -13.0625 C 40.78125 -13.582031 43.4375 -14.191406 45.78125 -14.890625 C 47.0625 -15.304688 48.351562 -15.847656 49.65625 -16.515625 C 50.957031 -17.191406 52.046875 -17.96875 52.921875 -18.84375 C 53.796875 -19.726562 54.382812 -20.707031 54.6875 -21.78125 C 55 -22.863281 54.847656 -24.035156 54.234375 -25.296875 C 53.023438 -27.710938 51.195312 -29.363281 48.75 -30.25 C 46.300781 -31.132812 43.769531 -31.566406 41.15625 -31.546875 C 38.539062 -31.515625 35.882812 -31.378906 33.1875 -31.140625 C 30.488281 -30.910156 27.78125 -30.800781 25.0625 -30.8125 C 22.34375 -30.820312 19.65625 -31.0625 17 -31.53125 C 14.34375 -32.007812 11.847656 -32.953125 9.515625 -34.359375 Z M 9.515625 -34.359375 "/></g></g></g><g fill="#000000" fill-opacity="1"><g transform="translate(189.152255, 195.760277)"><g><path d="M 48.71875 -16.0625 C 49.238281 -14.695312 49.164062 -13.179688 48.5 -11.515625 C 47.84375 -9.847656 46.734375 -8.789062 45.171875 -8.34375 C 39.847656 -6.976562 34.492188 -6.582031 29.109375 -7.15625 C 23.722656 -7.738281 18.628906 -9.582031 13.828125 -12.6875 C 9.117188 -15.789062 5.601562 -19.984375 3.28125 -25.265625 C 0.957031 -30.554688 0.15625 -36 0.875 -41.59375 C 1.539062 -46.59375 3.460938 -51.039062 6.640625 -54.9375 C 9.816406 -58.84375 13.566406 -61.992188 17.890625 -64.390625 C 21.722656 -66.628906 25.785156 -68.488281 30.078125 -69.96875 C 34.378906 -71.457031 38.742188 -72.191406 43.171875 -72.171875 C 44.890625 -72.128906 46.367188 -71.632812 47.609375 -70.6875 C 48.847656 -69.738281 49.539062 -68.414062 49.6875 -66.71875 C 49.820312 -65.21875 49.367188 -63.769531 48.328125 -62.375 C 47.296875 -60.976562 45.929688 -60.25 44.234375 -60.1875 C 41.003906 -60.207031 37.863281 -59.785156 34.8125 -58.921875 C 31.769531 -58.054688 28.859375 -56.84375 26.078125 -55.28125 C 24.460938 -54.320312 22.867188 -53.320312 21.296875 -52.28125 C 19.722656 -51.25 18.382812 -50.125 17.28125 -48.90625 C 16.082031 -47.613281 15.113281 -46.328125 14.375 -45.046875 C 13.644531 -43.773438 13.144531 -42.320312 12.875 -40.6875 C 12.625 -39.0625 12.625 -37.347656 12.875 -35.546875 C 13.132812 -33.753906 13.617188 -32.007812 14.328125 -30.3125 C 15.035156 -28.613281 15.945312 -27.082031 17.0625 -25.71875 C 18.1875 -24.363281 19.488281 -23.25 20.96875 -22.375 C 24.050781 -20.539062 27.347656 -19.398438 30.859375 -18.953125 C 34.378906 -18.503906 37.765625 -18.71875 41.015625 -19.59375 C 42.578125 -20.039062 44.085938 -19.972656 45.546875 -19.390625 C 47.003906 -18.816406 48.0625 -17.707031 48.71875 -16.0625 Z M 48.71875 -16.0625 "/></g></g></g><g fill="#000000" fill-opacity="1"><g transform="translate(251.149375, 190.310491)"><g><path d="M 3.484375 -61.75 C 3.421875 -63.65625 3.992188 -65.140625 5.203125 -66.203125 C 6.421875 -67.265625 7.78125 -67.863281 9.28125 -68 C 10.78125 -68.132812 12.144531 -67.773438 13.375 -66.921875 C 14.601562 -66.066406 15.25 -64.6875 15.3125 -62.78125 C 15.363281 -62.1875 15.394531 -61.5625 15.40625 -60.90625 C 15.414062 -60.257812 15.445312 -59.632812 15.5 -59.03125 C 18.5625 -60.90625 21.8125 -62.570312 25.25 -64.03125 C 28.6875 -65.488281 32.160156 -66.523438 35.671875 -67.140625 C 39.191406 -67.753906 42.664062 -67.785156 46.09375 -67.234375 C 49.519531 -66.679688 52.738281 -65.328125 55.75 -63.171875 C 57.257812 -61.992188 58.003906 -60.644531 57.984375 -59.125 C 57.972656 -57.613281 57.488281 -56.289062 56.53125 -55.15625 C 55.570312 -54.019531 54.304688 -53.253906 52.734375 -52.859375 C 51.160156 -52.472656 49.566406 -52.816406 47.953125 -53.890625 C 46.765625 -54.679688 45.476562 -55.21875 44.09375 -55.5 C 42.707031 -55.78125 41.242188 -55.828125 39.703125 -55.640625 C 38.171875 -55.460938 36.644531 -55.15625 35.125 -54.71875 C 33.601562 -54.28125 32.160156 -53.800781 30.796875 -53.28125 C 25.648438 -51.113281 20.90625 -48.429688 16.5625 -45.234375 C 17.1875 -40.359375 17.914062 -35.492188 18.75 -30.640625 C 19.507812 -26.566406 20.226562 -22.375 20.90625 -18.0625 C 21.582031 -13.75 22.796875 -9.707031 24.546875 -5.9375 C 25.304688 -4.1875 25.3125 -2.648438 24.5625 -1.328125 C 23.820312 -0.015625 22.742188 0.90625 21.328125 1.4375 C 19.921875 1.96875 18.414062 2 16.8125 1.53125 C 15.207031 1.070312 14.035156 -0.03125 13.296875 -1.78125 C 12.285156 -4 11.523438 -6.289062 11.015625 -8.65625 C 10.503906 -11.03125 9.992188 -13.40625 9.484375 -15.78125 C 9.078125 -18.050781 8.648438 -20.351562 8.203125 -22.6875 C 7.753906 -25.019531 7.320312 -27.320312 6.90625 -29.59375 C 5.9375 -34.945312 5.140625 -40.285156 4.515625 -45.609375 C 3.890625 -50.941406 3.546875 -56.320312 3.484375 -61.75 Z M 3.484375 -61.75 "/></g></g></g><g fill="#000000" fill-opacity="1"><g transform="translate(319.288691, 184.320783)"><g><path d="M 6.90625 -2.125 C 7.28125 -6.976562 7.789062 -11.769531 8.4375 -16.5 C 9.082031 -21.238281 9.441406 -26.03125 9.515625 -30.875 C 9.503906 -35.613281 9.171875 -40.242188 8.515625 -44.765625 C 7.867188 -49.285156 7.738281 -53.925781 8.125 -58.6875 C 8.1875 -60.300781 9.003906 -61.582031 10.578125 -62.53125 C 12.148438 -63.476562 13.660156 -63.8125 15.109375 -63.53125 C 16.835938 -63.175781 18.085938 -62.328125 18.859375 -60.984375 C 19.640625 -59.648438 20 -58.175781 19.9375 -56.5625 C 19.738281 -54.226562 19.769531 -51.863281 20.03125 -49.46875 C 20.289062 -47.070312 20.578125 -44.679688 20.890625 -42.296875 C 21.296875 -37.703125 21.398438 -33.078125 21.203125 -28.421875 C 21.015625 -23.578125 20.648438 -18.816406 20.109375 -14.140625 C 19.578125 -9.472656 19.113281 -4.753906 18.71875 0.015625 C 18.570312 1.640625 17.734375 2.921875 16.203125 3.859375 C 14.671875 4.796875 13.1875 5.128906 11.75 4.859375 C 10.007812 4.503906 8.726562 3.660156 7.90625 2.328125 C 7.082031 0.992188 6.75 -0.488281 6.90625 -2.125 Z M 8.03125 -71.671875 C 7.320312 -71.804688 6.597656 -72.066406 5.859375 -72.453125 C 5.117188 -72.835938 4.566406 -73.367188 4.203125 -74.046875 C 3.835938 -74.816406 3.53125 -75.492188 3.28125 -76.078125 C 3.03125 -76.660156 2.867188 -77.351562 2.796875 -78.15625 C 2.722656 -79.050781 2.796875 -79.957031 3.015625 -80.875 C 3.242188 -82.71875 3.925781 -84.085938 5.0625 -84.984375 C 5.40625 -85.617188 5.914062 -86.117188 6.59375 -86.484375 C 7.632812 -87.285156 8.847656 -87.769531 10.234375 -87.9375 C 11.628906 -88.113281 12.910156 -87.847656 14.078125 -87.140625 C 14.609375 -86.785156 15.140625 -86.40625 15.671875 -86 C 16.210938 -85.59375 16.664062 -85.050781 17.03125 -84.375 C 17.289062 -83.894531 17.570312 -83.363281 17.875 -82.78125 C 18.175781 -82.207031 18.300781 -81.625 18.25 -81.03125 C 18.207031 -80.3125 18.160156 -79.644531 18.109375 -79.03125 C 18.066406 -78.425781 17.867188 -77.859375 17.515625 -77.328125 C 17.078125 -76.585938 16.71875 -76.050781 16.4375 -75.71875 C 16.164062 -75.394531 15.703125 -74.953125 15.046875 -74.390625 C 14.679688 -73.953125 14.109375 -73.597656 13.328125 -73.328125 C 11.335938 -71.953125 9.570312 -71.398438 8.03125 -71.671875 Z M 8.03125 -71.671875 "/></g></g></g><g fill="#000000" fill-opacity="1"><g transform="translate(359.11407, 180.819978)"><g><path d="M 47.6875 -56.875 C 49.582031 -57.039062 51.054688 -56.566406 52.109375 -55.453125 C 53.171875 -54.335938 53.765625 -53.03125 53.890625 -51.53125 C 54.023438 -50.03125 53.671875 -48.613281 52.828125 -47.28125 C 51.984375 -45.957031 50.613281 -45.210938 48.71875 -45.046875 C 46.332031 -44.734375 43.960938 -44.546875 41.609375 -44.484375 C 39.253906 -44.429688 36.914062 -44.40625 34.59375 -44.40625 C 35.394531 -36.53125 35.96875 -28.628906 36.3125 -20.703125 C 36.65625 -12.785156 36.519531 -4.875 35.90625 3.03125 C 35.84375 4.75 35.046875 6.078125 33.515625 7.015625 C 31.992188 7.953125 30.460938 8.234375 28.921875 7.859375 C 27.179688 7.523438 25.925781 6.710938 25.15625 5.421875 C 24.382812 4.128906 24.078125 2.617188 24.234375 0.890625 C 24.773438 -6.804688 24.785156 -14.453125 24.265625 -22.046875 C 23.742188 -29.648438 23.046875 -37.289062 22.171875 -44.96875 C 18.316406 -45.238281 14.414062 -45.523438 10.46875 -45.828125 C 6.519531 -46.140625 2.625 -46.378906 -1.21875 -46.546875 C -2.9375 -46.585938 -4.242188 -47.398438 -5.140625 -48.984375 C -6.035156 -50.566406 -6.347656 -52.078125 -6.078125 -53.515625 C -5.722656 -55.253906 -4.875 -56.507812 -3.53125 -57.28125 C -2.1875 -58.0625 -0.703125 -58.421875 0.921875 -58.359375 C 4.253906 -58.148438 7.59375 -57.910156 10.9375 -57.640625 C 14.28125 -57.378906 17.671875 -57.148438 21.109375 -56.953125 C 20.972656 -57.441406 20.863281 -58.191406 20.78125 -59.203125 C 19.988281 -68.191406 19.179688 -77.078125 18.359375 -85.859375 C 17.535156 -94.640625 17.175781 -103.566406 17.28125 -112.640625 C 17.332031 -114.242188 17.828125 -115.691406 18.765625 -116.984375 C 19.710938 -118.273438 21.039062 -118.992188 22.75 -119.140625 C 24.238281 -119.273438 25.707031 -118.800781 27.15625 -117.71875 C 28.613281 -116.644531 29.316406 -115.300781 29.265625 -113.6875 C 29.109375 -104.007812 29.46875 -94.453125 30.34375 -85.015625 C 31.226562 -75.585938 32.195312 -66.035156 33.25 -56.359375 C 35.65625 -56.367188 38.0625 -56.40625 40.46875 -56.46875 C 42.882812 -56.53125 45.289062 -56.664062 47.6875 -56.875 Z M 47.6875 -56.875 "/></g></g></g><g fill="#000000" fill-opacity="1"><g transform="translate(424.107384, 175.106815)"><g><path d="M 66.203125 -59.125 C 67.054688 -50.53125 68.410156 -41.984375 70.265625 -33.484375 C 72.128906 -24.992188 74.328125 -16.640625 76.859375 -8.421875 C 77.429688 -6.554688 77.25 -4.953125 76.3125 -3.609375 C 75.375 -2.265625 74.222656 -1.332031 72.859375 -0.8125 C 71.492188 -0.289062 70.082031 -0.269531 68.625 -0.75 C 67.175781 -1.226562 66.164062 -2.394531 65.59375 -4.25 C 63.894531 -9.832031 62.359375 -15.335938 60.984375 -20.765625 C 60.628906 -20.222656 60.320312 -19.710938 60.0625 -19.234375 C 59.800781 -18.765625 59.488281 -18.265625 59.125 -17.734375 C 57.34375 -15.160156 55.226562 -12.882812 52.78125 -10.90625 C 50.34375 -8.925781 47.691406 -7.332031 44.828125 -6.125 C 41.960938 -4.914062 38.984375 -4.125 35.890625 -3.75 C 32.804688 -3.382812 29.734375 -3.472656 26.671875 -4.015625 C 21.242188 -5.035156 16.96875 -7.269531 13.84375 -10.71875 C 10.726562 -14.175781 8.363281 -18.222656 6.75 -22.859375 C 5.132812 -27.503906 4 -32.382812 3.34375 -37.5 C 2.6875 -42.625 2.117188 -47.382812 1.640625 -51.78125 C 1.472656 -53.6875 1.945312 -55.164062 3.0625 -56.21875 C 4.1875 -57.269531 5.492188 -57.859375 6.984375 -57.984375 C 8.472656 -58.117188 9.882812 -57.765625 11.21875 -56.921875 C 12.5625 -56.085938 13.367188 -54.722656 13.640625 -52.828125 C 14.066406 -48.847656 14.488281 -44.8125 14.90625 -40.71875 C 15.320312 -36.632812 16.085938 -32.820312 17.203125 -29.28125 C 17.773438 -27.332031 18.375 -25.648438 19 -24.234375 C 19.632812 -22.828125 20.570312 -21.378906 21.8125 -19.890625 C 22.375 -19.234375 22.679688 -18.851562 22.734375 -18.75 C 22.785156 -18.65625 22.921875 -18.566406 23.140625 -18.484375 C 24.734375 -17.421875 25.789062 -16.785156 26.3125 -16.578125 C 26.832031 -16.378906 27.457031 -16.207031 28.1875 -16.0625 C 32.476562 -15.238281 36.707031 -15.738281 40.875 -17.5625 C 45.050781 -19.382812 48.269531 -22.3125 50.53125 -26.34375 C 51.8125 -28.875 52.710938 -31.46875 53.234375 -34.125 C 53.765625 -36.78125 54.0625 -39.441406 54.125 -42.109375 C 54.1875 -44.785156 54.171875 -47.503906 54.078125 -50.265625 C 53.992188 -53.035156 54.03125 -55.785156 54.1875 -58.515625 C 53.925781 -61.503906 54.523438 -63.539062 55.984375 -64.625 C 57.453125 -65.707031 59.050781 -66.175781 60.78125 -66.03125 C 61.800781 -65.8125 62.628906 -65.53125 63.265625 -65.1875 L 64.5625 -64.265625 C 65.8125 -62.546875 66.359375 -60.832031 66.203125 -59.125 Z M 66.203125 -59.125 "/></g></g></g><g fill="#000000" fill-opacity="1"><g transform="translate(511.122627, 167.45784)"><g><path d="M 3.484375 -61.75 C 3.421875 -63.65625 3.992188 -65.140625 5.203125 -66.203125 C 6.421875 -67.265625 7.78125 -67.863281 9.28125 -68 C 10.78125 -68.132812 12.144531 -67.773438 13.375 -66.921875 C 14.601562 -66.066406 15.25 -64.6875 15.3125 -62.78125 C 15.363281 -62.1875 15.394531 -61.5625 15.40625 -60.90625 C 15.414062 -60.257812 15.445312 -59.632812 15.5 -59.03125 C 18.5625 -60.90625 21.8125 -62.570312 25.25 -64.03125 C 28.6875 -65.488281 32.160156 -66.523438 35.671875 -67.140625 C 39.191406 -67.753906 42.664062 -67.785156 46.09375 -67.234375 C 49.519531 -66.679688 52.738281 -65.328125 55.75 -63.171875 C 57.257812 -61.992188 58.003906 -60.644531 57.984375 -59.125 C 57.972656 -57.613281 57.488281 -56.289062 56.53125 -55.15625 C 55.570312 -54.019531 54.304688 -53.253906 52.734375 -52.859375 C 51.160156 -52.472656 49.566406 -52.816406 47.953125 -53.890625 C 46.765625 -54.679688 45.476562 -55.21875 44.09375 -55.5 C 42.707031 -55.78125 41.242188 -55.828125 39.703125 -55.640625 C 38.171875 -55.460938 36.644531 -55.15625 35.125 -54.71875 C 33.601562 -54.28125 32.160156 -53.800781 30.796875 -53.28125 C 25.648438 -51.113281 20.90625 -48.429688 16.5625 -45.234375 C 17.1875 -40.359375 17.914062 -35.492188 18.75 -30.640625 C 19.507812 -26.566406 20.226562 -22.375 20.90625 -18.0625 C 21.582031 -13.75 22.796875 -9.707031 24.546875 -5.9375 C 25.304688 -4.1875 25.3125 -2.648438 24.5625 -1.328125 C 23.820312 -0.015625 22.742188 0.90625 21.328125 1.4375 C 19.921875 1.96875 18.414062 2 16.8125 1.53125 C 15.207031 1.070312 14.035156 -0.03125 13.296875 -1.78125 C 12.285156 -4 11.523438 -6.289062 11.015625 -8.65625 C 10.503906 -11.03125 9.992188 -13.40625 9.484375 -15.78125 C 9.078125 -18.050781 8.648438 -20.351562 8.203125 -22.6875 C 7.753906 -25.019531 7.320312 -27.320312 6.90625 -29.59375 C 5.9375 -34.945312 5.140625 -40.285156 4.515625 -45.609375 C 3.890625 -50.941406 3.546875 -56.320312 3.484375 -61.75 Z M 3.484375 -61.75 "/></g></g></g><g fill="#000000" fill-opacity="1"><g transform="translate(579.261944, 161.468131)"><g><path d="M 17.171875 -5.59375 C 13.648438 -6.78125 10.796875 -8.609375 8.609375 -11.078125 C 6.429688 -13.554688 4.828125 -16.359375 3.796875 -19.484375 C 2.765625 -22.617188 2.25 -25.925781 2.25 -29.40625 C 2.25 -32.894531 2.65625 -36.28125 3.46875 -39.5625 C 4.144531 -42.125 4.9375 -44.804688 5.84375 -47.609375 C 6.757812 -50.410156 7.914062 -53.03125 9.3125 -55.46875 C 10.71875 -57.914062 12.441406 -60.054688 14.484375 -61.890625 C 16.535156 -63.734375 19.039062 -65.03125 22 -65.78125 C 25.039062 -66.5625 28.144531 -67.015625 31.3125 -67.140625 C 34.476562 -67.265625 37.628906 -67.210938 40.765625 -66.984375 C 42.179688 -66.910156 43.554688 -66.707031 44.890625 -66.375 C 46.222656 -66.039062 47.5625 -65.679688 48.90625 -65.296875 C 48.882812 -66.796875 49.453125 -68.097656 50.609375 -69.203125 C 51.773438 -70.316406 53.050781 -70.9375 54.4375 -71.0625 C 56.132812 -71.207031 57.554688 -70.753906 58.703125 -69.703125 C 59.859375 -68.648438 60.609375 -67.328125 60.953125 -65.734375 C 61.847656 -61.191406 62.472656 -56.617188 62.828125 -52.015625 C 63.179688 -47.421875 63.4375 -42.816406 63.59375 -38.203125 C 63.757812 -33.585938 63.96875 -28.972656 64.21875 -24.359375 C 64.46875 -19.753906 64.894531 -15.164062 65.5 -10.59375 C 65.769531 -8.707031 65.320312 -7.234375 64.15625 -6.171875 C 62.988281 -5.109375 61.65625 -4.507812 60.15625 -4.375 C 58.65625 -4.238281 57.238281 -4.59375 55.90625 -5.4375 C 54.582031 -6.28125 53.785156 -7.644531 53.515625 -9.53125 C 48.023438 -6.632812 42.097656 -4.726562 35.734375 -3.8125 C 29.378906 -2.90625 23.191406 -3.5 17.171875 -5.59375 Z M 15.359375 -38.203125 C 14.929688 -36.335938 14.566406 -34.234375 14.265625 -31.890625 C 13.960938 -29.554688 14.003906 -27.347656 14.390625 -25.265625 C 14.773438 -23.179688 15.59375 -21.3125 16.84375 -19.65625 C 18.09375 -18.007812 19.992188 -16.945312 22.546875 -16.46875 C 27.785156 -15.320312 32.945312 -15.328125 38.03125 -16.484375 C 43.113281 -17.640625 47.773438 -19.859375 52.015625 -23.140625 C 51.984375 -28.078125 51.890625 -32.847656 51.734375 -37.453125 C 51.578125 -42.066406 51.242188 -46.710938 50.734375 -51.390625 C 48.941406 -52.347656 47.128906 -53.175781 45.296875 -53.875 C 43.472656 -54.570312 41.503906 -54.976562 39.390625 -55.09375 C 37.265625 -55.207031 35.023438 -55.238281 32.671875 -55.1875 C 30.316406 -55.132812 28.039062 -54.90625 25.84375 -54.5 C 25.65625 -54.476562 25.144531 -54.304688 24.3125 -53.984375 C 23.488281 -53.660156 23.023438 -53.445312 22.921875 -53.34375 C 21.984375 -52.757812 21.160156 -51.882812 20.453125 -50.71875 C 19.304688 -48.800781 18.328125 -46.773438 17.515625 -44.640625 C 16.703125 -42.503906 15.984375 -40.359375 15.359375 -38.203125 Z M 15.359375 -38.203125 "/></g></g></g><g fill="#000000" fill-opacity="1"><g transform="translate(31.562528, 402.353394)"><g/></g></g><g fill="#000000" fill-opacity="1"><g transform="translate(84.432869, 397.705887)"><g><path d="M 6.421875 -25.015625 C 3.515625 -30.609375 1.335938 -36.410156 -0.109375 -42.421875 C -0.910156 -45.867188 -1.640625 -49.347656 -2.296875 -52.859375 C -2.953125 -56.378906 -2.941406 -59.929688 -2.265625 -63.515625 C -1.953125 -65.765625 -1.488281 -67.941406 -0.875 -70.046875 C -0.257812 -72.160156 0.359375 -74.300781 0.984375 -76.46875 C 1.441406 -78.125 1.722656 -79.757812 1.828125 -81.375 C 1.941406 -82.988281 2.175781 -84.671875 2.53125 -86.421875 C 3.207031 -90.109375 4.425781 -93.363281 6.1875 -96.1875 C 7.957031 -99.019531 10.410156 -101.421875 13.546875 -103.390625 C 16.492188 -105.367188 19.570312 -107 22.78125 -108.28125 C 25.988281 -109.570312 29.269531 -110.664062 32.625 -111.5625 C 35.65625 -112.4375 38.726562 -113.160156 41.84375 -113.734375 C 44.96875 -114.316406 48.148438 -114.546875 51.390625 -114.421875 C 53.097656 -114.367188 54.566406 -113.894531 55.796875 -113 C 57.035156 -112.101562 57.726562 -110.804688 57.875 -109.109375 C 58.007812 -107.609375 57.5625 -106.128906 56.53125 -104.671875 C 55.507812 -103.222656 54.140625 -102.53125 52.421875 -102.59375 C 52.128906 -102.570312 51.828125 -102.566406 51.515625 -102.578125 C 51.210938 -102.597656 50.910156 -102.597656 50.609375 -102.578125 C 47.597656 -102.523438 44.582031 -102.1875 41.5625 -101.5625 C 38.550781 -100.9375 35.628906 -100.148438 32.796875 -99.203125 C 31.140625 -98.554688 29.484375 -97.929688 27.828125 -97.328125 C 26.171875 -96.734375 24.570312 -96.015625 23.03125 -95.171875 C 21.976562 -94.578125 20.925781 -93.9375 19.875 -93.25 C 19.113281 -92.769531 18.597656 -92.363281 18.328125 -92.03125 C 16.578125 -90.269531 15.460938 -88.660156 14.984375 -87.203125 C 14.503906 -85.753906 14.15625 -84.242188 13.9375 -82.671875 C 13.726562 -81.097656 13.539062 -79.5 13.375 -77.875 C 13.21875 -76.25 12.953125 -74.710938 12.578125 -73.265625 C 11.960938 -71.191406 11.34375 -69.070312 10.71875 -66.90625 C 10.101562 -64.75 9.644531 -62.546875 9.34375 -60.296875 C 9.1875 -58.773438 9.21875 -57.269531 9.4375 -55.78125 C 9.664062 -54.289062 9.945312 -52.8125 10.28125 -51.34375 C 10.707031 -48.757812 11.269531 -46.085938 11.96875 -43.328125 C 12.664062 -40.578125 13.523438 -37.9375 14.546875 -35.40625 C 15.566406 -32.875 16.851562 -30.492188 18.40625 -28.265625 C 19.96875 -26.035156 21.832031 -24.109375 24 -22.484375 C 26.675781 -20.609375 29.648438 -19.332031 32.921875 -18.65625 C 36.203125 -17.988281 39.457031 -17.601562 42.6875 -17.5 C 46.738281 -17.25 50.640625 -17.535156 54.390625 -18.359375 C 58.148438 -19.191406 61.628906 -20.910156 64.828125 -23.515625 C 66.328125 -24.648438 67.820312 -25.003906 69.3125 -24.578125 C 70.8125 -24.160156 71.988281 -23.363281 72.84375 -22.1875 C 73.695312 -21.007812 74.125 -19.585938 74.125 -17.921875 C 74.125 -16.253906 73.375 -14.851562 71.875 -13.71875 C 67.363281 -10.09375 62.40625 -7.769531 57 -6.75 C 51.601562 -5.726562 46.125 -5.367188 40.5625 -5.671875 C 36.820312 -5.847656 33.15625 -6.304688 29.5625 -7.046875 C 25.976562 -7.796875 22.585938 -9.1875 19.390625 -11.21875 C 13.867188 -14.550781 9.546875 -19.148438 6.421875 -25.015625 Z M 6.421875 -25.015625 "/></g></g></g><g fill="#000000" fill-opacity="1"><g transform="translate(165.755377, 390.557325)"><g><path d="M 3.484375 -61.75 C 3.421875 -63.65625 3.992188 -65.140625 5.203125 -66.203125 C 6.421875 -67.265625 7.78125 -67.863281 9.28125 -68 C 10.78125 -68.132812 12.144531 -67.773438 13.375 -66.921875 C 14.601562 -66.066406 15.25 -64.6875 15.3125 -62.78125 C 15.363281 -62.1875 15.394531 -61.5625 15.40625 -60.90625 C 15.414062 -60.257812 15.445312 -59.632812 15.5 -59.03125 C 18.5625 -60.90625 21.8125 -62.570312 25.25 -64.03125 C 28.6875 -65.488281 32.160156 -66.523438 35.671875 -67.140625 C 39.191406 -67.753906 42.664062 -67.785156 46.09375 -67.234375 C 49.519531 -66.679688 52.738281 -65.328125 55.75 -63.171875 C 57.257812 -61.992188 58.003906 -60.644531 57.984375 -59.125 C 57.972656 -57.613281 57.488281 -56.289062 56.53125 -55.15625 C 55.570312 -54.019531 54.304688 -53.253906 52.734375 -52.859375 C 51.160156 -52.472656 49.566406 -52.816406 47.953125 -53.890625 C 46.765625 -54.679688 45.476562 -55.21875 44.09375 -55.5 C 42.707031 -55.78125 41.242188 -55.828125 39.703125 -55.640625 C 38.171875 -55.460938 36.644531 -55.15625 35.125 -54.71875 C 33.601562 -54.28125 32.160156 -53.800781 30.796875 -53.28125 C 25.648438 -51.113281 20.90625 -48.429688 16.5625 -45.234375 C 17.1875 -40.359375 17.914062 -35.492188 18.75 -30.640625 C 19.507812 -26.566406 20.226562 -22.375 20.90625 -18.0625 C 21.582031 -13.75 22.796875 -9.707031 24.546875 -5.9375 C 25.304688 -4.1875 25.3125 -2.648438 24.5625 -1.328125 C 23.820312 -0.015625 22.742188 0.90625 21.328125 1.4375 C 19.921875 1.96875 18.414062 2 16.8125 1.53125 C 15.207031 1.070312 14.035156 -0.03125 13.296875 -1.78125 C 12.285156 -4 11.523438 -6.289062 11.015625 -8.65625 C 10.503906 -11.03125 9.992188 -13.40625 9.484375 -15.78125 C 9.078125 -18.050781 8.648438 -20.351562 8.203125 -22.6875 C 7.753906 -25.019531 7.320312 -27.320312 6.90625 -29.59375 C 5.9375 -34.945312 5.140625 -40.285156 4.515625 -45.609375 C 3.890625 -50.941406 3.546875 -56.320312 3.484375 -61.75 Z M 3.484375 -61.75 "/></g></g></g><g fill="#000000" fill-opacity="1"><g transform="translate(233.894682, 384.567618)"><g><path d="M 6.125 -59.125 C 7.800781 -61.882812 9.875 -64.378906 12.34375 -66.609375 C 14.8125 -68.835938 17.488281 -70.65625 20.375 -72.0625 C 23.269531 -73.46875 26.3125 -74.335938 29.5 -74.671875 C 32.695312 -75.003906 35.953125 -74.664062 39.265625 -73.65625 C 42.472656 -72.71875 45.414062 -71.335938 48.09375 -69.515625 C 50.769531 -67.703125 52.945312 -65.253906 54.625 -62.171875 C 55.9375 -59.878906 56.8125 -57.34375 57.25 -54.5625 C 57.695312 -51.78125 57.175781 -49.164062 55.6875 -46.71875 C 54.363281 -44.488281 52.675781 -42.726562 50.625 -41.4375 C 48.570312 -40.144531 46.34375 -39.144531 43.9375 -38.4375 C 41.539062 -37.726562 39.066406 -37.257812 36.515625 -37.03125 C 33.972656 -36.8125 31.546875 -36.648438 29.234375 -36.546875 C 26.640625 -36.410156 24.050781 -36.378906 21.46875 -36.453125 C 18.894531 -36.523438 16.300781 -36.597656 13.6875 -36.671875 C 14.882812 -32.253906 16.832031 -28.40625 19.53125 -25.125 C 22.238281 -21.84375 25.71875 -19.476562 29.96875 -18.03125 C 31.101562 -17.71875 31.976562 -17.488281 32.59375 -17.34375 C 32.90625 -17.269531 33.1875 -17.222656 33.4375 -17.203125 C 33.6875 -17.179688 33.960938 -17.1875 34.265625 -17.21875 C 35.078125 -17.175781 35.757812 -17.15625 36.3125 -17.15625 C 36.863281 -17.164062 37.382812 -17.238281 37.875 -17.375 C 38.570312 -17.539062 39.039062 -17.65625 39.28125 -17.71875 C 39.53125 -17.78125 39.800781 -17.878906 40.09375 -18.015625 C 41.15625 -18.410156 42.09375 -18.84375 42.90625 -19.3125 C 43.726562 -19.789062 44.695312 -20.535156 45.8125 -21.546875 C 46.363281 -22.097656 47.09375 -22.914062 48 -24 C 48.914062 -25.082031 49.6875 -26.050781 50.3125 -26.90625 C 51.195312 -28.40625 52.34375 -29.46875 53.75 -30.09375 C 55.15625 -30.71875 56.644531 -30.648438 58.21875 -29.890625 C 59.582031 -29.203125 60.609375 -28.054688 61.296875 -26.453125 C 61.992188 -24.847656 61.910156 -23.300781 61.046875 -21.8125 C 58.492188 -17.664062 55.363281 -14.039062 51.65625 -10.9375 C 47.945312 -7.84375 43.550781 -5.976562 38.46875 -5.34375 C 34.40625 -4.789062 30.398438 -5.171875 26.453125 -6.484375 C 22.515625 -7.796875 18.972656 -9.71875 15.828125 -12.25 C 11.929688 -15.4375 8.726562 -19.234375 6.21875 -23.640625 C 3.71875 -28.054688 2.160156 -32.648438 1.546875 -37.421875 C 0.578125 -38.046875 -0.175781 -38.863281 -0.71875 -39.875 C -1.257812 -40.882812 -1.5 -41.941406 -1.4375 -43.046875 C -1.382812 -44.160156 -1.097656 -45.21875 -0.578125 -46.21875 C -0.0664062 -47.21875 0.769531 -47.921875 1.9375 -48.328125 C 2.71875 -52.128906 4.113281 -55.726562 6.125 -59.125 Z M 42.390625 -58.6875 C 41.171875 -59.976562 39.367188 -61.078125 36.984375 -61.984375 C 35.003906 -62.609375 32.738281 -62.804688 30.1875 -62.578125 C 27.644531 -62.359375 25.519531 -61.726562 23.8125 -60.6875 C 21.601562 -59.375 19.6875 -57.660156 18.0625 -55.546875 C 16.4375 -53.441406 15.175781 -51.144531 14.28125 -48.65625 C 16.71875 -48.5625 19.144531 -48.472656 21.5625 -48.390625 C 23.988281 -48.304688 26.40625 -48.320312 28.8125 -48.4375 C 30.101562 -48.550781 31.394531 -48.660156 32.6875 -48.765625 C 33.988281 -48.878906 35.285156 -49.046875 36.578125 -49.265625 C 36.984375 -49.304688 37.359375 -49.363281 37.703125 -49.4375 C 38.046875 -49.519531 38.414062 -49.578125 38.8125 -49.609375 C 39.6875 -49.898438 40.347656 -50.085938 40.796875 -50.171875 C 41.253906 -50.253906 41.722656 -50.410156 42.203125 -50.640625 C 42.585938 -50.785156 43.066406 -50.984375 43.640625 -51.234375 C 44.140625 -51.484375 44.429688 -51.660156 44.515625 -51.765625 C 44.609375 -51.878906 44.75 -51.988281 44.9375 -52.09375 L 45.234375 -53.953125 C 45.003906 -54.328125 44.847656 -54.6875 44.765625 -55.03125 C 44.679688 -55.375 44.523438 -55.691406 44.296875 -55.984375 C 44.171875 -56.273438 43.90625 -56.703125 43.5 -57.265625 C 43.101562 -57.835938 42.734375 -58.3125 42.390625 -58.6875 Z M 42.390625 -58.6875 "/></g></g></g><g fill="#000000" fill-opacity="1"><g transform="translate(306.528272, 378.182845)"><g><path d="M 17.171875 -5.59375 C 13.648438 -6.78125 10.796875 -8.609375 8.609375 -11.078125 C 6.429688 -13.554688 4.828125 -16.359375 3.796875 -19.484375 C 2.765625 -22.617188 2.25 -25.925781 2.25 -29.40625 C 2.25 -32.894531 2.65625 -36.28125 3.46875 -39.5625 C 4.144531 -42.125 4.9375 -44.804688 5.84375 -47.609375 C 6.757812 -50.410156 7.914062 -53.03125 9.3125 -55.46875 C 10.71875 -57.914062 12.441406 -60.054688 14.484375 -61.890625 C 16.535156 -63.734375 19.039062 -65.03125 22 -65.78125 C 25.039062 -66.5625 28.144531 -67.015625 31.3125 -67.140625 C 34.476562 -67.265625 37.628906 -67.210938 40.765625 -66.984375 C 42.179688 -66.910156 43.554688 -66.707031 44.890625 -66.375 C 46.222656 -66.039062 47.5625 -65.679688 48.90625 -65.296875 C 48.882812 -66.796875 49.453125 -68.097656 50.609375 -69.203125 C 51.773438 -70.316406 53.050781 -70.9375 54.4375 -71.0625 C 56.132812 -71.207031 57.554688 -70.753906 58.703125 -69.703125 C 59.859375 -68.648438 60.609375 -67.328125 60.953125 -65.734375 C 61.847656 -61.191406 62.472656 -56.617188 62.828125 -52.015625 C 63.179688 -47.421875 63.4375 -42.816406 63.59375 -38.203125 C 63.757812 -33.585938 63.96875 -28.972656 64.21875 -24.359375 C 64.46875 -19.753906 64.894531 -15.164062 65.5 -10.59375 C 65.769531 -8.707031 65.320312 -7.234375 64.15625 -6.171875 C 62.988281 -5.109375 61.65625 -4.507812 60.15625 -4.375 C 58.65625 -4.238281 57.238281 -4.59375 55.90625 -5.4375 C 54.582031 -6.28125 53.785156 -7.644531 53.515625 -9.53125 C 48.023438 -6.632812 42.097656 -4.726562 35.734375 -3.8125 C 29.378906 -2.90625 23.191406 -3.5 17.171875 -5.59375 Z M 15.359375 -38.203125 C 14.929688 -36.335938 14.566406 -34.234375 14.265625 -31.890625 C 13.960938 -29.554688 14.003906 -27.347656 14.390625 -25.265625 C 14.773438 -23.179688 15.59375 -21.3125 16.84375 -19.65625 C 18.09375 -18.007812 19.992188 -16.945312 22.546875 -16.46875 C 27.785156 -15.320312 32.945312 -15.328125 38.03125 -16.484375 C 43.113281 -17.640625 47.773438 -19.859375 52.015625 -23.140625 C 51.984375 -28.078125 51.890625 -32.847656 51.734375 -37.453125 C 51.578125 -42.066406 51.242188 -46.710938 50.734375 -51.390625 C 48.941406 -52.347656 47.128906 -53.175781 45.296875 -53.875 C 43.472656 -54.570312 41.503906 -54.976562 39.390625 -55.09375 C 37.265625 -55.207031 35.023438 -55.238281 32.671875 -55.1875 C 30.316406 -55.132812 28.039062 -54.90625 25.84375 -54.5 C 25.65625 -54.476562 25.144531 -54.304688 24.3125 -53.984375 C 23.488281 -53.660156 23.023438 -53.445312 22.921875 -53.34375 C 21.984375 -52.757812 21.160156 -51.882812 20.453125 -50.71875 C 19.304688 -48.800781 18.328125 -46.773438 17.515625 -44.640625 C 16.703125 -42.503906 15.984375 -40.359375 15.359375 -38.203125 Z M 15.359375 -38.203125 "/></g></g></g><g fill="#000000" fill-opacity="1"><g transform="translate(386.352679, 371.165972)"><g><path d="M 47.6875 -56.875 C 49.582031 -57.039062 51.054688 -56.566406 52.109375 -55.453125 C 53.171875 -54.335938 53.765625 -53.03125 53.890625 -51.53125 C 54.023438 -50.03125 53.671875 -48.613281 52.828125 -47.28125 C 51.984375 -45.957031 50.613281 -45.210938 48.71875 -45.046875 C 46.332031 -44.734375 43.960938 -44.546875 41.609375 -44.484375 C 39.253906 -44.429688 36.914062 -44.40625 34.59375 -44.40625 C 35.394531 -36.53125 35.96875 -28.628906 36.3125 -20.703125 C 36.65625 -12.785156 36.519531 -4.875 35.90625 3.03125 C 35.84375 4.75 35.046875 6.078125 33.515625 7.015625 C 31.992188 7.953125 30.460938 8.234375 28.921875 7.859375 C 27.179688 7.523438 25.925781 6.710938 25.15625 5.421875 C 24.382812 4.128906 24.078125 2.617188 24.234375 0.890625 C 24.773438 -6.804688 24.785156 -14.453125 24.265625 -22.046875 C 23.742188 -29.648438 23.046875 -37.289062 22.171875 -44.96875 C 18.316406 -45.238281 14.414062 -45.523438 10.46875 -45.828125 C 6.519531 -46.140625 2.625 -46.378906 -1.21875 -46.546875 C -2.9375 -46.585938 -4.242188 -47.398438 -5.140625 -48.984375 C -6.035156 -50.566406 -6.347656 -52.078125 -6.078125 -53.515625 C -5.722656 -55.253906 -4.875 -56.507812 -3.53125 -57.28125 C -2.1875 -58.0625 -0.703125 -58.421875 0.921875 -58.359375 C 4.253906 -58.148438 7.59375 -57.910156 10.9375 -57.640625 C 14.28125 -57.378906 17.671875 -57.148438 21.109375 -56.953125 C 20.972656 -57.441406 20.863281 -58.191406 20.78125 -59.203125 C 19.988281 -68.191406 19.179688 -77.078125 18.359375 -85.859375 C 17.535156 -94.640625 17.175781 -103.566406 17.28125 -112.640625 C 17.332031 -114.242188 17.828125 -115.691406 18.765625 -116.984375 C 19.710938 -118.273438 21.039062 -118.992188 22.75 -119.140625 C 24.238281 -119.273438 25.707031 -118.800781 27.15625 -117.71875 C 28.613281 -116.644531 29.316406 -115.300781 29.265625 -113.6875 C 29.109375 -104.007812 29.46875 -94.453125 30.34375 -85.015625 C 31.226562 -75.585938 32.195312 -66.035156 33.25 -56.359375 C 35.65625 -56.367188 38.0625 -56.40625 40.46875 -56.46875 C 42.882812 -56.53125 45.289062 -56.664062 47.6875 -56.875 Z M 47.6875 -56.875 "/></g></g></g><g fill="#000000" fill-opacity="1"><g transform="translate(451.345992, 365.452809)"><g><path d="M 6.90625 -2.125 C 7.28125 -6.976562 7.789062 -11.769531 8.4375 -16.5 C 9.082031 -21.238281 9.441406 -26.03125 9.515625 -30.875 C 9.503906 -35.613281 9.171875 -40.242188 8.515625 -44.765625 C 7.867188 -49.285156 7.738281 -53.925781 8.125 -58.6875 C 8.1875 -60.300781 9.003906 -61.582031 10.578125 -62.53125 C 12.148438 -63.476562 13.660156 -63.8125 15.109375 -63.53125 C 16.835938 -63.175781 18.085938 -62.328125 18.859375 -60.984375 C 19.640625 -59.648438 20 -58.175781 19.9375 -56.5625 C 19.738281 -54.226562 19.769531 -51.863281 20.03125 -49.46875 C 20.289062 -47.070312 20.578125 -44.679688 20.890625 -42.296875 C 21.296875 -37.703125 21.398438 -33.078125 21.203125 -28.421875 C 21.015625 -23.578125 20.648438 -18.816406 20.109375 -14.140625 C 19.578125 -9.472656 19.113281 -4.753906 18.71875 0.015625 C 18.570312 1.640625 17.734375 2.921875 16.203125 3.859375 C 14.671875 4.796875 13.1875 5.128906 11.75 4.859375 C 10.007812 4.503906 8.726562 3.660156 7.90625 2.328125 C 7.082031 0.992188 6.75 -0.488281 6.90625 -2.125 Z M 8.03125 -71.671875 C 7.320312 -71.804688 6.597656 -72.066406 5.859375 -72.453125 C 5.117188 -72.835938 4.566406 -73.367188 4.203125 -74.046875 C 3.835938 -74.816406 3.53125 -75.492188 3.28125 -76.078125 C 3.03125 -76.660156 2.867188 -77.351562 2.796875 -78.15625 C 2.722656 -79.050781 2.796875 -79.957031 3.015625 -80.875 C 3.242188 -82.71875 3.925781 -84.085938 5.0625 -84.984375 C 5.40625 -85.617188 5.914062 -86.117188 6.59375 -86.484375 C 7.632812 -87.285156 8.847656 -87.769531 10.234375 -87.9375 C 11.628906 -88.113281 12.910156 -87.847656 14.078125 -87.140625 C 14.609375 -86.785156 15.140625 -86.40625 15.671875 -86 C 16.210938 -85.59375 16.664062 -85.050781 17.03125 -84.375 C 17.289062 -83.894531 17.570312 -83.363281 17.875 -82.78125 C 18.175781 -82.207031 18.300781 -81.625 18.25 -81.03125 C 18.207031 -80.3125 18.160156 -79.644531 18.109375 -79.03125 C 18.066406 -78.425781 17.867188 -77.859375 17.515625 -77.328125 C 17.078125 -76.585938 16.71875 -76.050781 16.4375 -75.71875 C 16.164062 -75.394531 15.703125 -74.953125 15.046875 -74.390625 C 14.679688 -73.953125 14.109375 -73.597656 13.328125 -73.328125 C 11.335938 -71.953125 9.570312 -71.398438 8.03125 -71.671875 Z M 8.03125 -71.671875 "/></g></g></g><g fill="#000000" fill-opacity="1"><g transform="translate(491.171371, 361.952005)"><g><path d="M 14.71875 -23.203125 C 13.6875 -25.722656 12.726562 -28.300781 11.84375 -30.9375 C 10.957031 -33.582031 10 -36.164062 8.96875 -38.6875 C 7.488281 -42.882812 5.46875 -47.035156 2.90625 -51.140625 C 1.613281 -53.234375 0.316406 -55.351562 -0.984375 -57.5 C -2.285156 -59.65625 -3.285156 -61.910156 -3.984375 -64.265625 C -4.554688 -66.117188 -4.367188 -67.71875 -3.421875 -69.0625 C -2.484375 -70.414062 -1.335938 -71.347656 0.015625 -71.859375 C 1.378906 -72.378906 2.789062 -72.40625 4.25 -71.9375 C 5.707031 -71.46875 6.71875 -70.296875 7.28125 -68.421875 C 7.988281 -66.066406 9.007812 -63.890625 10.34375 -61.890625 C 11.675781 -59.898438 12.984375 -57.859375 14.265625 -55.765625 C 15.566406 -53.546875 16.722656 -51.273438 17.734375 -48.953125 C 18.742188 -46.628906 19.707031 -44.300781 20.625 -41.96875 C 21.65625 -39.4375 22.613281 -36.828125 23.5 -34.140625 C 24.382812 -31.453125 25.390625 -28.847656 26.515625 -26.328125 C 26.898438 -25.347656 27.3125 -24.398438 27.75 -23.484375 C 28.1875 -22.566406 28.644531 -21.632812 29.125 -20.6875 C 29.863281 -23.65625 30.441406 -26.238281 30.859375 -28.4375 C 31.273438 -30.644531 31.789062 -32.785156 32.40625 -34.859375 C 33.25 -37.941406 34.035156 -41 34.765625 -44.03125 C 35.503906 -47.070312 36.140625 -50.179688 36.671875 -53.359375 C 37.222656 -56.328125 37.566406 -59.296875 37.703125 -62.265625 C 37.835938 -65.242188 38.179688 -68.21875 38.734375 -71.1875 C 39.066406 -73.03125 39.957031 -74.316406 41.40625 -75.046875 C 42.851562 -75.773438 44.296875 -76 45.734375 -75.71875 C 47.171875 -75.445312 48.414062 -74.726562 49.46875 -73.5625 C 50.53125 -72.394531 50.882812 -70.894531 50.53125 -69.0625 C 49.820312 -65.675781 49.414062 -62.289062 49.3125 -58.90625 C 49.21875 -55.53125 48.8125 -52.195312 48.09375 -48.90625 C 47.46875 -45.632812 46.71875 -42.375 45.84375 -39.125 C 44.976562 -35.882812 44.140625 -32.617188 43.328125 -29.328125 C 42.816406 -27.066406 42.316406 -24.726562 41.828125 -22.3125 C 41.335938 -19.90625 40.710938 -17.5625 39.953125 -15.28125 C 39.191406 -13 38.195312 -10.847656 36.96875 -8.828125 C 35.738281 -6.804688 34.128906 -5.054688 32.140625 -3.578125 C 30.347656 -2.304688 28.613281 -2.050781 26.9375 -2.8125 C 25.257812 -3.582031 23.945312 -4.78125 23 -6.40625 C 21.539062 -9.1875 20.109375 -11.976562 18.703125 -14.78125 C 17.304688 -17.582031 15.976562 -20.390625 14.71875 -23.203125 Z M 14.71875 -23.203125 "/></g></g></g><g fill="#000000" fill-opacity="1"><g transform="translate(556.014864, 356.252012)"><g><path d="M 17.171875 -5.59375 C 13.648438 -6.78125 10.796875 -8.609375 8.609375 -11.078125 C 6.429688 -13.554688 4.828125 -16.359375 3.796875 -19.484375 C 2.765625 -22.617188 2.25 -25.925781 2.25 -29.40625 C 2.25 -32.894531 2.65625 -36.28125 3.46875 -39.5625 C 4.144531 -42.125 4.9375 -44.804688 5.84375 -47.609375 C 6.757812 -50.410156 7.914062 -53.03125 9.3125 -55.46875 C 10.71875 -57.914062 12.441406 -60.054688 14.484375 -61.890625 C 16.535156 -63.734375 19.039062 -65.03125 22 -65.78125 C 25.039062 -66.5625 28.144531 -67.015625 31.3125 -67.140625 C 34.476562 -67.265625 37.628906 -67.210938 40.765625 -66.984375 C 42.179688 -66.910156 43.554688 -66.707031 44.890625 -66.375 C 46.222656 -66.039062 47.5625 -65.679688 48.90625 -65.296875 C 48.882812 -66.796875 49.453125 -68.097656 50.609375 -69.203125 C 51.773438 -70.316406 53.050781 -70.9375 54.4375 -71.0625 C 56.132812 -71.207031 57.554688 -70.753906 58.703125 -69.703125 C 59.859375 -68.648438 60.609375 -67.328125 60.953125 -65.734375 C 61.847656 -61.191406 62.472656 -56.617188 62.828125 -52.015625 C 63.179688 -47.421875 63.4375 -42.816406 63.59375 -38.203125 C 63.757812 -33.585938 63.96875 -28.972656 64.21875 -24.359375 C 64.46875 -19.753906 64.894531 -15.164062 65.5 -10.59375 C 65.769531 -8.707031 65.320312 -7.234375 64.15625 -6.171875 C 62.988281 -5.109375 61.65625 -4.507812 60.15625 -4.375 C 58.65625 -4.238281 57.238281 -4.59375 55.90625 -5.4375 C 54.582031 -6.28125 53.785156 -7.644531 53.515625 -9.53125 C 48.023438 -6.632812 42.097656 -4.726562 35.734375 -3.8125 C 29.378906 -2.90625 23.191406 -3.5 17.171875 -5.59375 Z M 15.359375 -38.203125 C 14.929688 -36.335938 14.566406 -34.234375 14.265625 -31.890625 C 13.960938 -29.554688 14.003906 -27.347656 14.390625 -25.265625 C 14.773438 -23.179688 15.59375 -21.3125 16.84375 -19.65625 C 18.09375 -18.007812 19.992188 -16.945312 22.546875 -16.46875 C 27.785156 -15.320312 32.945312 -15.328125 38.03125 -16.484375 C 43.113281 -17.640625 47.773438 -19.859375 52.015625 -23.140625 C 51.984375 -28.078125 51.890625 -32.847656 51.734375 -37.453125 C 51.578125 -42.066406 51.242188 -46.710938 50.734375 -51.390625 C 48.941406 -52.347656 47.128906 -53.175781 45.296875 -53.875 C 43.472656 -54.570312 41.503906 -54.976562 39.390625 -55.09375 C 37.265625 -55.207031 35.023438 -55.238281 32.671875 -55.1875 C 30.316406 -55.132812 28.039062 -54.90625 25.84375 -54.5 C 25.65625 -54.476562 25.144531 -54.304688 24.3125 -53.984375 C 23.488281 -53.660156 23.023438 -53.445312 22.921875 -53.34375 C 21.984375 -52.757812 21.160156 -51.882812 20.453125 -50.71875 C 19.304688 -48.800781 18.328125 -46.773438 17.515625 -44.640625 C 16.703125 -42.503906 15.984375 -40.359375 15.359375 -38.203125 Z M 15.359375 -38.203125 "/></g></g></g><g fill="#000000" fill-opacity="1"><g transform="translate(635.841735, 349.234922)"><g/></g></g></g></g></g></g></g></svg>