<svg xmlns="http://www.w3.org/2000/svg" xmlns:xlink="http://www.w3.org/1999/xlink" width="1080" zoomAndPan="magnify" viewBox="0 0 810 809.999993" height="1080" preserveAspectRatio="xMidYMid meet" version="1.0"><defs><g/><clipPath id="bcc0a10555"><path d="M 6.792969 6.792969 L 803.292969 6.792969 L 803.292969 803.292969 L 6.792969 803.292969 Z M 6.792969 6.792969 " clip-rule="nonzero"/></clipPath><clipPath id="e7593893ce"><path d="M 0.519531 0.558594 L 721.71875 0.558594 L 721.71875 462.078125 L 0.519531 462.078125 Z M 0.519531 0.558594 " clip-rule="nonzero"/></clipPath><clipPath id="2f857f4002"><rect x="0" width="722" y="0" height="463"/></clipPath><clipPath id="14d0ae6cce"><rect x="0" width="722" y="0" height="463"/></clipPath></defs><g clip-path="url(#bcc0a10555)"><path fill="#ffdb1c" d="M 404.988281 42.742188 C 205.242188 42.742188 42.738281 205.242188 42.738281 404.992188 C 42.738281 604.738281 205.242188 767.246094 404.988281 767.246094 C 604.730469 767.246094 767.234375 604.738281 767.234375 404.992188 C 767.234375 205.242188 604.730469 42.742188 404.988281 42.742188 Z M 404.988281 803.1875 C 185.425781 803.1875 6.800781 624.554688 6.800781 404.992188 C 6.800781 185.429688 185.425781 6.800781 404.988281 6.800781 C 624.550781 6.800781 803.179688 185.429688 803.179688 404.992188 C 803.179688 624.554688 624.550781 803.1875 404.988281 803.1875 " fill-opacity="1" fill-rule="nonzero"/></g><g transform="matrix(1, 0, 0, 1, 77, 172)"><g clip-path="url(#14d0ae6cce)"><g clip-path="url(#e7593893ce)"><g transform="matrix(1, 0, 0, 1, 0, 0.000000000000028422)"><g clip-path="url(#2f857f4002)"><g fill="#000000" fill-opacity="1"><g transform="translate(19.159092, 212.819354)"><g><path d="M -6.046875 -92.765625 C -7.617188 -92.421875 -9.0625 -92.84375 -10.375 -94.03125 C -11.6875 -95.226562 -12.410156 -96.628906 -12.546875 -98.234375 C -12.703125 -99.929688 -12.226562 -101.351562 -11.125 -102.5 C -10.019531 -103.65625 -8.675781 -104.40625 -7.09375 -104.75 C -2.132812 -105.59375 2.785156 -106.226562 7.671875 -106.65625 C 12.566406 -107.082031 17.53125 -107.367188 22.5625 -107.515625 C 23.914062 -108.128906 25.421875 -108.160156 27.078125 -107.609375 C 36.429688 -107.710938 45.925781 -107.335938 55.5625 -106.484375 C 57.175781 -106.328125 58.453125 -105.484375 59.390625 -103.953125 C 60.335938 -102.421875 60.625 -100.9375 60.25 -99.5 C 59.90625 -97.757812 59.082031 -96.503906 57.78125 -95.734375 C 56.488281 -94.960938 54.988281 -94.609375 53.28125 -94.671875 C 49.414062 -95.035156 45.613281 -95.300781 41.875 -95.46875 C 38.132812 -95.632812 34.351562 -95.703125 30.53125 -95.671875 C 29.757812 -88.566406 29.550781 -81.503906 29.90625 -74.484375 C 30.269531 -67.472656 31.125 -60.40625 32.46875 -53.28125 C 33.8125 -45.945312 35.445312 -38.71875 37.375 -31.59375 C 39.3125 -24.46875 41.300781 -17.316406 43.34375 -10.140625 C 43.789062 -8.472656 43.75 -6.9375 43.21875 -5.53125 C 42.695312 -4.125 41.601562 -3.097656 39.9375 -2.453125 C 38.488281 -1.816406 36.957031 -1.832031 35.34375 -2.5 C 33.726562 -3.164062 32.695312 -4.285156 32.25 -5.859375 C 29.945312 -13.796875 27.722656 -21.671875 25.578125 -29.484375 C 23.429688 -37.304688 21.648438 -45.226562 20.234375 -53.25 C 19.003906 -60.300781 18.234375 -67.332031 17.921875 -74.34375 C 17.609375 -81.363281 17.796875 -88.375 18.484375 -95.375 C 10.265625 -94.957031 2.085938 -94.085938 -6.046875 -92.765625 Z M -6.046875 -92.765625 "/></g></g></g><g fill="#000000" fill-opacity="1"><g transform="translate(80.257345, 207.448582)"><g><path d="M 6.125 -59.125 C 7.800781 -61.882812 9.875 -64.378906 12.34375 -66.609375 C 14.8125 -68.835938 17.488281 -70.65625 20.375 -72.0625 C 23.269531 -73.46875 26.3125 -74.335938 29.5 -74.671875 C 32.695312 -75.003906 35.953125 -74.664062 39.265625 -73.65625 C 42.472656 -72.71875 45.414062 -71.335938 48.09375 -69.515625 C 50.769531 -67.703125 52.945312 -65.253906 54.625 -62.171875 C 55.9375 -59.878906 56.8125 -57.34375 57.25 -54.5625 C 57.695312 -51.78125 57.175781 -49.164062 55.6875 -46.71875 C 54.363281 -44.488281 52.675781 -42.726562 50.625 -41.4375 C 48.570312 -40.144531 46.34375 -39.144531 43.9375 -38.4375 C 41.539062 -37.726562 39.066406 -37.257812 36.515625 -37.03125 C 33.972656 -36.8125 31.546875 -36.648438 29.234375 -36.546875 C 26.640625 -36.410156 24.050781 -36.378906 21.46875 -36.453125 C 18.894531 -36.523438 16.300781 -36.597656 13.6875 -36.671875 C 14.882812 -32.253906 16.832031 -28.40625 19.53125 -25.125 C 22.238281 -21.84375 25.71875 -19.476562 29.96875 -18.03125 C 31.101562 -17.71875 31.976562 -17.488281 32.59375 -17.34375 C 32.90625 -17.269531 33.1875 -17.222656 33.4375 -17.203125 C 33.6875 -17.179688 33.960938 -17.1875 34.265625 -17.21875 C 35.078125 -17.175781 35.757812 -17.15625 36.3125 -17.15625 C 36.863281 -17.164062 37.382812 -17.238281 37.875 -17.375 C 38.570312 -17.539062 39.039062 -17.65625 39.28125 -17.71875 C 39.53125 -17.78125 39.800781 -17.878906 40.09375 -18.015625 C 41.15625 -18.410156 42.09375 -18.84375 42.90625 -19.3125 C 43.726562 -19.789062 44.695312 -20.535156 45.8125 -21.546875 C 46.363281 -22.097656 47.09375 -22.914062 48 -24 C 48.914062 -25.082031 49.6875 -26.050781 50.3125 -26.90625 C 51.195312 -28.40625 52.34375 -29.46875 53.75 -30.09375 C 55.15625 -30.71875 56.644531 -30.648438 58.21875 -29.890625 C 59.582031 -29.203125 60.609375 -28.054688 61.296875 -26.453125 C 61.992188 -24.847656 61.910156 -23.300781 61.046875 -21.8125 C 58.492188 -17.664062 55.363281 -14.039062 51.65625 -10.9375 C 47.945312 -7.84375 43.550781 -5.976562 38.46875 -5.34375 C 34.40625 -4.789062 30.398438 -5.171875 26.453125 -6.484375 C 22.515625 -7.796875 18.972656 -9.71875 15.828125 -12.25 C 11.929688 -15.4375 8.726562 -19.234375 6.21875 -23.640625 C 3.71875 -28.054688 2.160156 -32.648438 1.546875 -37.421875 C 0.578125 -38.046875 -0.175781 -38.863281 -0.71875 -39.875 C -1.257812 -40.882812 -1.5 -41.941406 -1.4375 -43.046875 C -1.382812 -44.160156 -1.097656 -45.21875 -0.578125 -46.21875 C -0.0664062 -47.21875 0.769531 -47.921875 1.9375 -48.328125 C 2.71875 -52.128906 4.113281 -55.726562 6.125 -59.125 Z M 42.390625 -58.6875 C 41.171875 -59.976562 39.367188 -61.078125 36.984375 -61.984375 C 35.003906 -62.609375 32.738281 -62.804688 30.1875 -62.578125 C 27.644531 -62.359375 25.519531 -61.726562 23.8125 -60.6875 C 21.601562 -59.375 19.6875 -57.660156 18.0625 -55.546875 C 16.4375 -53.441406 15.175781 -51.144531 14.28125 -48.65625 C 16.71875 -48.5625 19.144531 -48.472656 21.5625 -48.390625 C 23.988281 -48.304688 26.40625 -48.320312 28.8125 -48.4375 C 30.101562 -48.550781 31.394531 -48.660156 32.6875 -48.765625 C 33.988281 -48.878906 35.285156 -49.046875 36.578125 -49.265625 C 36.984375 -49.304688 37.359375 -49.363281 37.703125 -49.4375 C 38.046875 -49.519531 38.414062 -49.578125 38.8125 -49.609375 C 39.6875 -49.898438 40.347656 -50.085938 40.796875 -50.171875 C 41.253906 -50.253906 41.722656 -50.410156 42.203125 -50.640625 C 42.585938 -50.785156 43.066406 -50.984375 43.640625 -51.234375 C 44.140625 -51.484375 44.429688 -51.660156 44.515625 -51.765625 C 44.609375 -51.878906 44.75 -51.988281 44.9375 -52.09375 L 45.234375 -53.953125 C 45.003906 -54.328125 44.847656 -54.6875 44.765625 -55.03125 C 44.679688 -55.375 44.523438 -55.691406 44.296875 -55.984375 C 44.171875 -56.273438 43.90625 -56.703125 43.5 -57.265625 C 43.101562 -57.835938 42.734375 -58.3125 42.390625 -58.6875 Z M 42.390625 -58.6875 "/></g></g></g><g fill="#000000" fill-opacity="1"><g transform="translate(152.890924, 201.063809)"><g><path d="M 17.171875 -5.59375 C 13.648438 -6.78125 10.796875 -8.609375 8.609375 -11.078125 C 6.429688 -13.554688 4.828125 -16.359375 3.796875 -19.484375 C 2.765625 -22.617188 2.25 -25.925781 2.25 -29.40625 C 2.25 -32.894531 2.65625 -36.28125 3.46875 -39.5625 C 4.144531 -42.125 4.9375 -44.804688 5.84375 -47.609375 C 6.757812 -50.410156 7.914062 -53.03125 9.3125 -55.46875 C 10.71875 -57.914062 12.441406 -60.054688 14.484375 -61.890625 C 16.535156 -63.734375 19.039062 -65.03125 22 -65.78125 C 25.039062 -66.5625 28.144531 -67.015625 31.3125 -67.140625 C 34.476562 -67.265625 37.628906 -67.210938 40.765625 -66.984375 C 42.179688 -66.910156 43.554688 -66.707031 44.890625 -66.375 C 46.222656 -66.039062 47.5625 -65.679688 48.90625 -65.296875 C 48.882812 -66.796875 49.453125 -68.097656 50.609375 -69.203125 C 51.773438 -70.316406 53.050781 -70.9375 54.4375 -71.0625 C 56.132812 -71.207031 57.554688 -70.753906 58.703125 -69.703125 C 59.859375 -68.648438 60.609375 -67.328125 60.953125 -65.734375 C 61.847656 -61.191406 62.472656 -56.617188 62.828125 -52.015625 C 63.179688 -47.421875 63.4375 -42.816406 63.59375 -38.203125 C 63.757812 -33.585938 63.96875 -28.972656 64.21875 -24.359375 C 64.46875 -19.753906 64.894531 -15.164062 65.5 -10.59375 C 65.769531 -8.707031 65.320312 -7.234375 64.15625 -6.171875 C 62.988281 -5.109375 61.65625 -4.507812 60.15625 -4.375 C 58.65625 -4.238281 57.238281 -4.59375 55.90625 -5.4375 C 54.582031 -6.28125 53.785156 -7.644531 53.515625 -9.53125 C 48.023438 -6.632812 42.097656 -4.726562 35.734375 -3.8125 C 29.378906 -2.90625 23.191406 -3.5 17.171875 -5.59375 Z M 15.359375 -38.203125 C 14.929688 -36.335938 14.566406 -34.234375 14.265625 -31.890625 C 13.960938 -29.554688 14.003906 -27.347656 14.390625 -25.265625 C 14.773438 -23.179688 15.59375 -21.3125 16.84375 -19.65625 C 18.09375 -18.007812 19.992188 -16.945312 22.546875 -16.46875 C 27.785156 -15.320312 32.945312 -15.328125 38.03125 -16.484375 C 43.113281 -17.640625 47.773438 -19.859375 52.015625 -23.140625 C 51.984375 -28.078125 51.890625 -32.847656 51.734375 -37.453125 C 51.578125 -42.066406 51.242188 -46.710938 50.734375 -51.390625 C 48.941406 -52.347656 47.128906 -53.175781 45.296875 -53.875 C 43.472656 -54.570312 41.503906 -54.976562 39.390625 -55.09375 C 37.265625 -55.207031 35.023438 -55.238281 32.671875 -55.1875 C 30.316406 -55.132812 28.039062 -54.90625 25.84375 -54.5 C 25.65625 -54.476562 25.144531 -54.304688 24.3125 -53.984375 C 23.488281 -53.660156 23.023438 -53.445312 22.921875 -53.34375 C 21.984375 -52.757812 21.160156 -51.882812 20.453125 -50.71875 C 19.304688 -48.800781 18.328125 -46.773438 17.515625 -44.640625 C 16.703125 -42.503906 15.984375 -40.359375 15.359375 -38.203125 Z M 15.359375 -38.203125 "/></g></g></g><g fill="#000000" fill-opacity="1"><g transform="translate(232.715341, 194.046934)"><g><path d="M 47.6875 -56.875 C 49.582031 -57.039062 51.054688 -56.566406 52.109375 -55.453125 C 53.171875 -54.335938 53.765625 -53.03125 53.890625 -51.53125 C 54.023438 -50.03125 53.671875 -48.613281 52.828125 -47.28125 C 51.984375 -45.957031 50.613281 -45.210938 48.71875 -45.046875 C 46.332031 -44.734375 43.960938 -44.546875 41.609375 -44.484375 C 39.253906 -44.429688 36.914062 -44.40625 34.59375 -44.40625 C 35.394531 -36.53125 35.96875 -28.628906 36.3125 -20.703125 C 36.65625 -12.785156 36.519531 -4.875 35.90625 3.03125 C 35.84375 4.75 35.046875 6.078125 33.515625 7.015625 C 31.992188 7.953125 30.460938 8.234375 28.921875 7.859375 C 27.179688 7.523438 25.925781 6.710938 25.15625 5.421875 C 24.382812 4.128906 24.078125 2.617188 24.234375 0.890625 C 24.773438 -6.804688 24.785156 -14.453125 24.265625 -22.046875 C 23.742188 -29.648438 23.046875 -37.289062 22.171875 -44.96875 C 18.316406 -45.238281 14.414062 -45.523438 10.46875 -45.828125 C 6.519531 -46.140625 2.625 -46.378906 -1.21875 -46.546875 C -2.9375 -46.585938 -4.242188 -47.398438 -5.140625 -48.984375 C -6.035156 -50.566406 -6.347656 -52.078125 -6.078125 -53.515625 C -5.722656 -55.253906 -4.875 -56.507812 -3.53125 -57.28125 C -2.1875 -58.0625 -0.703125 -58.421875 0.921875 -58.359375 C 4.253906 -58.148438 7.59375 -57.910156 10.9375 -57.640625 C 14.28125 -57.378906 17.671875 -57.148438 21.109375 -56.953125 C 20.972656 -57.441406 20.863281 -58.191406 20.78125 -59.203125 C 19.988281 -68.191406 19.179688 -77.078125 18.359375 -85.859375 C 17.535156 -94.640625 17.175781 -103.566406 17.28125 -112.640625 C 17.332031 -114.242188 17.828125 -115.691406 18.765625 -116.984375 C 19.710938 -118.273438 21.039062 -118.992188 22.75 -119.140625 C 24.238281 -119.273438 25.707031 -118.800781 27.15625 -117.71875 C 28.613281 -116.644531 29.316406 -115.300781 29.265625 -113.6875 C 29.109375 -104.007812 29.46875 -94.453125 30.34375 -85.015625 C 31.226562 -75.585938 32.195312 -66.035156 33.25 -56.359375 C 35.65625 -56.367188 38.0625 -56.40625 40.46875 -56.46875 C 42.882812 -56.53125 45.289062 -56.664062 47.6875 -56.875 Z M 47.6875 -56.875 "/></g></g></g><g fill="#000000" fill-opacity="1"><g transform="translate(297.708654, 188.333771)"><g><path d="M 3.484375 -61.75 C 3.421875 -63.65625 3.992188 -65.140625 5.203125 -66.203125 C 6.421875 -67.265625 7.78125 -67.863281 9.28125 -68 C 10.78125 -68.132812 12.144531 -67.773438 13.375 -66.921875 C 14.601562 -66.066406 15.25 -64.6875 15.3125 -62.78125 C 15.363281 -62.1875 15.394531 -61.5625 15.40625 -60.90625 C 15.414062 -60.257812 15.445312 -59.632812 15.5 -59.03125 C 18.5625 -60.90625 21.8125 -62.570312 25.25 -64.03125 C 28.6875 -65.488281 32.160156 -66.523438 35.671875 -67.140625 C 39.191406 -67.753906 42.664062 -67.785156 46.09375 -67.234375 C 49.519531 -66.679688 52.738281 -65.328125 55.75 -63.171875 C 57.257812 -61.992188 58.003906 -60.644531 57.984375 -59.125 C 57.972656 -57.613281 57.488281 -56.289062 56.53125 -55.15625 C 55.570312 -54.019531 54.304688 -53.253906 52.734375 -52.859375 C 51.160156 -52.472656 49.566406 -52.816406 47.953125 -53.890625 C 46.765625 -54.679688 45.476562 -55.21875 44.09375 -55.5 C 42.707031 -55.78125 41.242188 -55.828125 39.703125 -55.640625 C 38.171875 -55.460938 36.644531 -55.15625 35.125 -54.71875 C 33.601562 -54.28125 32.160156 -53.800781 30.796875 -53.28125 C 25.648438 -51.113281 20.90625 -48.429688 16.5625 -45.234375 C 17.1875 -40.359375 17.914062 -35.492188 18.75 -30.640625 C 19.507812 -26.566406 20.226562 -22.375 20.90625 -18.0625 C 21.582031 -13.75 22.796875 -9.707031 24.546875 -5.9375 C 25.304688 -4.1875 25.3125 -2.648438 24.5625 -1.328125 C 23.820312 -0.015625 22.742188 0.90625 21.328125 1.4375 C 19.921875 1.96875 18.414062 2 16.8125 1.53125 C 15.207031 1.070312 14.035156 -0.03125 13.296875 -1.78125 C 12.285156 -4 11.523438 -6.289062 11.015625 -8.65625 C 10.503906 -11.03125 9.992188 -13.40625 9.484375 -15.78125 C 9.078125 -18.050781 8.648438 -20.351562 8.203125 -22.6875 C 7.753906 -25.019531 7.320312 -27.320312 6.90625 -29.59375 C 5.9375 -34.945312 5.140625 -40.285156 4.515625 -45.609375 C 3.890625 -50.941406 3.546875 -56.320312 3.484375 -61.75 Z M 3.484375 -61.75 "/></g></g></g><g fill="#000000" fill-opacity="1"><g transform="translate(365.847948, 182.344064)"><g><path d="M 37.234375 -72.875 C 40.390625 -73.5625 43.722656 -73.976562 47.234375 -74.125 C 50.742188 -74.28125 54.140625 -73.972656 57.421875 -73.203125 C 60.703125 -72.441406 63.734375 -71.125 66.515625 -69.25 C 69.304688 -67.375 71.550781 -64.800781 73.25 -61.53125 C 74.457031 -59.21875 75.191406 -56.84375 75.453125 -54.40625 C 75.722656 -51.96875 75.582031 -49.59375 75.03125 -47.28125 C 74.476562 -44.96875 73.566406 -42.722656 72.296875 -40.546875 C 71.023438 -38.367188 69.519531 -36.347656 67.78125 -34.484375 C 64.007812 -30.429688 59.789062 -26.890625 55.125 -23.859375 C 50.457031 -20.835938 45.492188 -18.394531 40.234375 -16.53125 C 37.984375 -15.71875 35.648438 -14.976562 33.234375 -14.3125 C 30.828125 -13.644531 28.375 -13.203125 25.875 -12.984375 C 23.375 -12.765625 20.898438 -12.820312 18.453125 -13.15625 C 16.015625 -13.5 13.691406 -14.226562 11.484375 -15.34375 C 9.898438 -16.113281 8.898438 -17.234375 8.484375 -18.703125 C 7.722656 -20.347656 6.925781 -21.890625 6.09375 -23.328125 C 5.257812 -24.773438 4.445312 -26.269531 3.65625 -27.8125 C 2.875 -29.351562 2.210938 -30.898438 1.671875 -32.453125 C 1.128906 -34.015625 0.785156 -35.644531 0.640625 -37.34375 C 0.335938 -40.75 0.773438 -44.035156 1.953125 -47.203125 C 3.140625 -50.367188 4.878906 -53.207031 7.171875 -55.71875 C 11.015625 -60.09375 15.578125 -63.71875 20.859375 -66.59375 C 26.140625 -69.476562 31.597656 -71.570312 37.234375 -72.875 Z M 55.28125 -61.46875 C 52.5 -62.238281 49.5625 -62.488281 46.46875 -62.21875 C 43.15625 -62.019531 39.882812 -61.398438 36.65625 -60.359375 C 33.425781 -59.316406 30.367188 -58.019531 27.484375 -56.46875 C 24.796875 -55.125 22.0625 -53.347656 19.28125 -51.140625 C 16.5 -48.941406 14.535156 -46.378906 13.390625 -43.453125 C 12.722656 -41.878906 12.484375 -40.316406 12.671875 -38.765625 C 12.859375 -37.222656 13.242188 -35.695312 13.828125 -34.1875 C 14.421875 -32.6875 15.15625 -31.195312 16.03125 -29.71875 C 16.914062 -28.238281 17.726562 -26.769531 18.46875 -25.3125 C 20.09375 -25.0625 21.101562 -24.953125 21.5 -24.984375 C 21.707031 -24.898438 21.960938 -24.867188 22.265625 -24.890625 C 22.566406 -24.921875 22.816406 -24.945312 23.015625 -24.96875 C 25.035156 -24.945312 26.828125 -25.15625 28.390625 -25.59375 C 29.492188 -25.6875 30.875 -26.007812 32.53125 -26.5625 C 35.09375 -27.289062 37.535156 -28.179688 39.859375 -29.234375 C 42.179688 -30.296875 44.296875 -31.414062 46.203125 -32.59375 C 48.398438 -33.894531 50.539062 -35.289062 52.625 -36.78125 C 54.707031 -38.269531 56.4375 -39.78125 57.8125 -41.3125 C 58.738281 -42.300781 59.601562 -43.332031 60.40625 -44.40625 C 60.863281 -44.945312 61.179688 -45.378906 61.359375 -45.703125 C 61.796875 -46.441406 62.148438 -47 62.421875 -47.375 C 62.691406 -47.757812 62.898438 -48.207031 63.046875 -48.71875 C 63.378906 -49.445312 63.53125 -50.015625 63.5 -50.421875 C 63.582031 -50.628906 63.632812 -50.882812 63.65625 -51.1875 C 63.6875 -51.5 63.738281 -51.757812 63.8125 -51.96875 L 63.671875 -53.609375 C 63.546875 -53.992188 63.472656 -54.285156 63.453125 -54.484375 C 63.429688 -54.691406 63.363281 -54.890625 63.25 -55.078125 C 62.882812 -55.753906 62.5625 -56.253906 62.28125 -56.578125 C 62.007812 -56.898438 61.703125 -57.25 61.359375 -57.625 C 61.472656 -57.539062 61.332031 -57.679688 60.9375 -58.046875 C 60.550781 -58.421875 60.3125 -58.648438 60.21875 -58.734375 L 58.90625 -59.828125 C 58.375 -60.078125 57.789062 -60.375 57.15625 -60.71875 C 56.53125 -61.070312 55.90625 -61.320312 55.28125 -61.46875 Z M 55.28125 -61.46875 "/></g></g></g><g fill="#000000" fill-opacity="1"><g transform="translate(453.162832, 174.668748)"><g/></g></g><g fill="#000000" fill-opacity="1"><g transform="translate(506.021595, 170.022258)"><g><path d="M 6.125 -59.125 C 7.800781 -61.882812 9.875 -64.378906 12.34375 -66.609375 C 14.8125 -68.835938 17.488281 -70.65625 20.375 -72.0625 C 23.269531 -73.46875 26.3125 -74.335938 29.5 -74.671875 C 32.695312 -75.003906 35.953125 -74.664062 39.265625 -73.65625 C 42.472656 -72.71875 45.414062 -71.335938 48.09375 -69.515625 C 50.769531 -67.703125 52.945312 -65.253906 54.625 -62.171875 C 55.9375 -59.878906 56.8125 -57.34375 57.25 -54.5625 C 57.695312 -51.78125 57.175781 -49.164062 55.6875 -46.71875 C 54.363281 -44.488281 52.675781 -42.726562 50.625 -41.4375 C 48.570312 -40.144531 46.34375 -39.144531 43.9375 -38.4375 C 41.539062 -37.726562 39.066406 -37.257812 36.515625 -37.03125 C 33.972656 -36.8125 31.546875 -36.648438 29.234375 -36.546875 C 26.640625 -36.410156 24.050781 -36.378906 21.46875 -36.453125 C 18.894531 -36.523438 16.300781 -36.597656 13.6875 -36.671875 C 14.882812 -32.253906 16.832031 -28.40625 19.53125 -25.125 C 22.238281 -21.84375 25.71875 -19.476562 29.96875 -18.03125 C 31.101562 -17.71875 31.976562 -17.488281 32.59375 -17.34375 C 32.90625 -17.269531 33.1875 -17.222656 33.4375 -17.203125 C 33.6875 -17.179688 33.960938 -17.1875 34.265625 -17.21875 C 35.078125 -17.175781 35.757812 -17.15625 36.3125 -17.15625 C 36.863281 -17.164062 37.382812 -17.238281 37.875 -17.375 C 38.570312 -17.539062 39.039062 -17.65625 39.28125 -17.71875 C 39.53125 -17.78125 39.800781 -17.878906 40.09375 -18.015625 C 41.15625 -18.410156 42.09375 -18.84375 42.90625 -19.3125 C 43.726562 -19.789062 44.695312 -20.535156 45.8125 -21.546875 C 46.363281 -22.097656 47.09375 -22.914062 48 -24 C 48.914062 -25.082031 49.6875 -26.050781 50.3125 -26.90625 C 51.195312 -28.40625 52.34375 -29.46875 53.75 -30.09375 C 55.15625 -30.71875 56.644531 -30.648438 58.21875 -29.890625 C 59.582031 -29.203125 60.609375 -28.054688 61.296875 -26.453125 C 61.992188 -24.847656 61.910156 -23.300781 61.046875 -21.8125 C 58.492188 -17.664062 55.363281 -14.039062 51.65625 -10.9375 C 47.945312 -7.84375 43.550781 -5.976562 38.46875 -5.34375 C 34.40625 -4.789062 30.398438 -5.171875 26.453125 -6.484375 C 22.515625 -7.796875 18.972656 -9.71875 15.828125 -12.25 C 11.929688 -15.4375 8.726562 -19.234375 6.21875 -23.640625 C 3.71875 -28.054688 2.160156 -32.648438 1.546875 -37.421875 C 0.578125 -38.046875 -0.175781 -38.863281 -0.71875 -39.875 C -1.257812 -40.882812 -1.5 -41.941406 -1.4375 -43.046875 C -1.382812 -44.160156 -1.097656 -45.21875 -0.578125 -46.21875 C -0.0664062 -47.21875 0.769531 -47.921875 1.9375 -48.328125 C 2.71875 -52.128906 4.113281 -55.726562 6.125 -59.125 Z M 42.390625 -58.6875 C 41.171875 -59.976562 39.367188 -61.078125 36.984375 -61.984375 C 35.003906 -62.609375 32.738281 -62.804688 30.1875 -62.578125 C 27.644531 -62.359375 25.519531 -61.726562 23.8125 -60.6875 C 21.601562 -59.375 19.6875 -57.660156 18.0625 -55.546875 C 16.4375 -53.441406 15.175781 -51.144531 14.28125 -48.65625 C 16.71875 -48.5625 19.144531 -48.472656 21.5625 -48.390625 C 23.988281 -48.304688 26.40625 -48.320312 28.8125 -48.4375 C 30.101562 -48.550781 31.394531 -48.660156 32.6875 -48.765625 C 33.988281 -48.878906 35.285156 -49.046875 36.578125 -49.265625 C 36.984375 -49.304688 37.359375 -49.363281 37.703125 -49.4375 C 38.046875 -49.519531 38.414062 -49.578125 38.8125 -49.609375 C 39.6875 -49.898438 40.347656 -50.085938 40.796875 -50.171875 C 41.253906 -50.253906 41.722656 -50.410156 42.203125 -50.640625 C 42.585938 -50.785156 43.066406 -50.984375 43.640625 -51.234375 C 44.140625 -51.484375 44.429688 -51.660156 44.515625 -51.765625 C 44.609375 -51.878906 44.75 -51.988281 44.9375 -52.09375 L 45.234375 -53.953125 C 45.003906 -54.328125 44.847656 -54.6875 44.765625 -55.03125 C 44.679688 -55.375 44.523438 -55.691406 44.296875 -55.984375 C 44.171875 -56.273438 43.90625 -56.703125 43.5 -57.265625 C 43.101562 -57.835938 42.734375 -58.3125 42.390625 -58.6875 Z M 42.390625 -58.6875 "/></g></g></g><g fill="#000000" fill-opacity="1"><g transform="translate(578.655208, 163.637483)"><g><path d="M 6.53125 -15.0625 C 6.15625 -19.363281 6.070312 -23.734375 6.28125 -28.171875 C 6.519531 -33.535156 6.753906 -38.867188 6.984375 -44.171875 C 7.222656 -49.472656 7.054688 -54.816406 6.484375 -60.203125 C 6.316406 -62.109375 6.785156 -63.609375 7.890625 -64.703125 C 9.003906 -65.804688 10.3125 -66.421875 11.8125 -66.546875 C 13.3125 -66.679688 14.753906 -66.304688 16.140625 -65.421875 C 17.523438 -64.546875 18.300781 -63.15625 18.46875 -61.25 C 22.34375 -61.894531 26.023438 -62.375 29.515625 -62.6875 C 33.515625 -62.925781 37.007812 -62.070312 40 -60.125 C 42.988281 -58.175781 45.347656 -55.414062 47.078125 -51.84375 C 48.566406 -48.550781 49.570312 -45.113281 50.09375 -41.53125 C 50.613281 -37.957031 51.078125 -34.382812 51.484375 -30.8125 C 52.035156 -25.707031 52.632812 -20.644531 53.28125 -15.625 C 53.925781 -10.601562 54.472656 -5.546875 54.921875 -0.453125 C 55.097656 1.546875 54.597656 3.070312 53.421875 4.125 C 52.253906 5.1875 50.945312 5.78125 49.5 5.90625 C 48.0625 6.039062 46.671875 5.6875 45.328125 4.84375 C 43.992188 4.007812 43.238281 2.59375 43.0625 0.59375 C 42.644531 -4.195312 42.160156 -8.882812 41.609375 -13.46875 C 41.054688 -18.050781 40.472656 -22.726562 39.859375 -27.5 C 39.429688 -30.082031 39.117188 -32.75 38.921875 -35.5 C 38.734375 -38.25 38.285156 -40.75 37.578125 -43 C 37.160156 -44.375 36.753906 -45.570312 36.359375 -46.59375 C 35.972656 -47.613281 35.332031 -48.597656 34.4375 -49.546875 C 34.207031 -49.910156 33.753906 -50.210938 33.078125 -50.453125 C 32.398438 -50.703125 31.8125 -50.804688 31.3125 -50.765625 C 29.820312 -50.628906 28.4375 -50.398438 27.15625 -50.078125 C 25.875 -49.765625 24.550781 -49.351562 23.1875 -48.84375 C 22.59375 -48.59375 22.007812 -48.335938 21.4375 -48.078125 C 20.863281 -47.828125 20.332031 -47.53125 19.84375 -47.1875 C 19.164062 -43.507812 18.742188 -40.023438 18.578125 -36.734375 C 18.421875 -33.453125 18.285156 -30.144531 18.171875 -26.8125 C 18.085938 -24.382812 18.128906 -21.945312 18.296875 -19.5 C 18.460938 -17.050781 18.570312 -14.617188 18.625 -12.203125 C 18.6875 -9.796875 18.597656 -7.375 18.359375 -4.9375 C 18.128906 -2.5 17.554688 -0.132812 16.640625 2.15625 C 15.898438 3.9375 14.789062 5.015625 13.3125 5.390625 C 11.832031 5.773438 10.429688 5.644531 9.109375 5 C 7.796875 4.363281 6.75 3.328125 5.96875 1.890625 C 5.195312 0.453125 5.140625 -1.148438 5.796875 -2.921875 C 6.523438 -4.796875 6.847656 -6.785156 6.765625 -8.890625 C 6.679688 -11.003906 6.601562 -13.0625 6.53125 -15.0625 Z M 6.53125 -15.0625 "/></g></g></g><g fill="#000000" fill-opacity="1"><g transform="translate(646.353837, 157.686512)"><g/></g></g><g fill="#000000" fill-opacity="1"><g transform="translate(176.978841, 391.686761)"><g><path d="M 2.6875 -0.234375 C 0.851562 -0.578125 -0.429688 -1.472656 -1.171875 -2.921875 C -1.910156 -4.367188 -2.140625 -5.804688 -1.859375 -7.234375 C -1.578125 -8.671875 -0.851562 -9.914062 0.3125 -10.96875 C 1.476562 -12.03125 2.984375 -12.390625 4.828125 -12.046875 C 8.921875 -11.210938 12.976562 -10.816406 17 -10.859375 C 21.019531 -10.910156 25.128906 -11.21875 29.328125 -11.78125 C 26.992188 -18.726562 25.507812 -25.769531 24.875 -32.90625 C 24.25 -40.050781 23.898438 -47.21875 23.828125 -54.40625 C 23.753906 -61.59375 23.671875 -68.804688 23.578125 -76.046875 C 23.492188 -83.285156 22.894531 -90.476562 21.78125 -97.625 C 17.96875 -97.382812 14.128906 -97.21875 10.265625 -97.125 C 6.398438 -97.039062 2.539062 -97.082031 -1.3125 -97.25 C -3.019531 -97.300781 -4.488281 -97.773438 -5.71875 -98.671875 C -6.957031 -99.578125 -7.648438 -100.882812 -7.796875 -102.59375 C -7.929688 -104.082031 -7.484375 -105.550781 -6.453125 -107 C -5.429688 -108.445312 -4.0625 -109.144531 -2.34375 -109.09375 C 2.300781 -108.988281 6.957031 -108.96875 11.625 -109.03125 C 16.300781 -109.101562 20.929688 -109.390625 25.515625 -109.890625 C 30.097656 -110.390625 34.628906 -111.1875 39.109375 -112.28125 C 43.597656 -113.382812 48.019531 -114.929688 52.375 -116.921875 C 53.832031 -117.546875 55.320312 -117.472656 56.84375 -116.703125 C 58.375 -115.941406 59.457031 -114.832031 60.09375 -113.375 C 60.738281 -111.71875 60.695312 -110.175781 59.96875 -108.75 C 59.238281 -107.332031 58.097656 -106.300781 56.546875 -105.65625 C 49.285156 -102.40625 41.628906 -100.175781 33.578125 -98.96875 C 34.796875 -91.925781 35.421875 -84.78125 35.453125 -77.53125 C 35.484375 -70.289062 35.507812 -63.097656 35.53125 -55.953125 C 35.5625 -48.816406 35.910156 -41.707031 36.578125 -34.625 C 37.253906 -27.539062 38.804688 -20.582031 41.234375 -13.75 C 44.390625 -14.320312 47.5 -14.894531 50.5625 -15.46875 C 53.632812 -16.039062 56.710938 -16.5625 59.796875 -17.03125 C 61.679688 -17.289062 63.148438 -16.890625 64.203125 -15.828125 C 65.265625 -14.765625 65.859375 -13.484375 65.984375 -11.984375 C 66.117188 -10.484375 65.765625 -9.039062 64.921875 -7.65625 C 64.085938 -6.28125 62.726562 -5.457031 60.84375 -5.1875 C 55.96875 -4.457031 51.132812 -3.609375 46.34375 -2.640625 C 41.550781 -1.671875 36.742188 -0.84375 31.921875 -0.15625 C 27.097656 0.519531 22.25 0.914062 17.375 1.03125 C 12.507812 1.15625 7.613281 0.734375 2.6875 -0.234375 Z M 2.6875 -0.234375 "/></g></g></g><g fill="#000000" fill-opacity="1"><g transform="translate(250.511274, 385.222976)"><g><path d="M 6.53125 -15.0625 C 6.15625 -19.363281 6.070312 -23.734375 6.28125 -28.171875 C 6.519531 -33.535156 6.753906 -38.867188 6.984375 -44.171875 C 7.222656 -49.472656 7.054688 -54.816406 6.484375 -60.203125 C 6.316406 -62.109375 6.785156 -63.609375 7.890625 -64.703125 C 9.003906 -65.804688 10.3125 -66.421875 11.8125 -66.546875 C 13.3125 -66.679688 14.753906 -66.304688 16.140625 -65.421875 C 17.523438 -64.546875 18.300781 -63.15625 18.46875 -61.25 C 22.34375 -61.894531 26.023438 -62.375 29.515625 -62.6875 C 33.515625 -62.925781 37.007812 -62.070312 40 -60.125 C 42.988281 -58.175781 45.347656 -55.414062 47.078125 -51.84375 C 48.566406 -48.550781 49.570312 -45.113281 50.09375 -41.53125 C 50.613281 -37.957031 51.078125 -34.382812 51.484375 -30.8125 C 52.035156 -25.707031 52.632812 -20.644531 53.28125 -15.625 C 53.925781 -10.601562 54.472656 -5.546875 54.921875 -0.453125 C 55.097656 1.546875 54.597656 3.070312 53.421875 4.125 C 52.253906 5.1875 50.945312 5.78125 49.5 5.90625 C 48.0625 6.039062 46.671875 5.6875 45.328125 4.84375 C 43.992188 4.007812 43.238281 2.59375 43.0625 0.59375 C 42.644531 -4.195312 42.160156 -8.882812 41.609375 -13.46875 C 41.054688 -18.050781 40.472656 -22.726562 39.859375 -27.5 C 39.429688 -30.082031 39.117188 -32.75 38.921875 -35.5 C 38.734375 -38.25 38.285156 -40.75 37.578125 -43 C 37.160156 -44.375 36.753906 -45.570312 36.359375 -46.59375 C 35.972656 -47.613281 35.332031 -48.597656 34.4375 -49.546875 C 34.207031 -49.910156 33.753906 -50.210938 33.078125 -50.453125 C 32.398438 -50.703125 31.8125 -50.804688 31.3125 -50.765625 C 29.820312 -50.628906 28.4375 -50.398438 27.15625 -50.078125 C 25.875 -49.765625 24.550781 -49.351562 23.1875 -48.84375 C 22.59375 -48.59375 22.007812 -48.335938 21.4375 -48.078125 C 20.863281 -47.828125 20.332031 -47.53125 19.84375 -47.1875 C 19.164062 -43.507812 18.742188 -40.023438 18.578125 -36.734375 C 18.421875 -33.453125 18.285156 -30.144531 18.171875 -26.8125 C 18.085938 -24.382812 18.128906 -21.945312 18.296875 -19.5 C 18.460938 -17.050781 18.570312 -14.617188 18.625 -12.203125 C 18.6875 -9.796875 18.597656 -7.375 18.359375 -4.9375 C 18.128906 -2.5 17.554688 -0.132812 16.640625 2.15625 C 15.898438 3.9375 14.789062 5.015625 13.3125 5.390625 C 11.832031 5.773438 10.429688 5.644531 9.109375 5 C 7.796875 4.363281 6.75 3.328125 5.96875 1.890625 C 5.195312 0.453125 5.140625 -1.148438 5.796875 -2.921875 C 6.523438 -4.796875 6.847656 -6.785156 6.765625 -8.890625 C 6.679688 -11.003906 6.601562 -13.0625 6.53125 -15.0625 Z M 6.53125 -15.0625 "/></g></g></g><g fill="#000000" fill-opacity="1"><g transform="translate(318.201152, 379.272774)"><g><path d="M 11.3125 37.65625 C 13.6875 39.5625 16.359375 40.8125 19.328125 41.40625 C 22.304688 42 25.226562 42.015625 28.09375 41.453125 C 30.96875 40.898438 33.640625 39.8125 36.109375 38.1875 C 38.585938 36.5625 40.566406 34.425781 42.046875 31.78125 C 45.191406 26.375 47.015625 20.550781 47.515625 14.3125 C 48.023438 8.082031 47.910156 1.878906 47.171875 -4.296875 C 42.453125 -3.078125 37.550781 -2.46875 32.46875 -2.46875 C 27.382812 -2.476562 22.523438 -3.132812 17.890625 -4.4375 C 15.492188 -5.144531 13.21875 -6.03125 11.0625 -7.09375 C 8.914062 -8.15625 7.140625 -9.785156 5.734375 -11.984375 C 3.296875 -15.691406 2.023438 -19.90625 1.921875 -24.625 C 1.722656 -29.125 2.109375 -33.554688 3.078125 -37.921875 C 4.054688 -42.296875 5.210938 -46.660156 6.546875 -51.015625 C 7.265625 -53.078125 8.046875 -55.273438 8.890625 -57.609375 C 9.742188 -59.953125 10.945312 -62.101562 12.5 -64.0625 C 14.03125 -66.101562 15.847656 -67.71875 17.953125 -68.90625 C 20.054688 -70.101562 22.347656 -70.910156 24.828125 -71.328125 C 24.304688 -72.691406 24.1875 -74.015625 24.46875 -75.296875 C 24.757812 -76.585938 25.519531 -77.6875 26.75 -78.59375 C 27.988281 -79.507812 29.492188 -79.84375 31.265625 -79.59375 C 33.046875 -79.34375 34.351562 -78.550781 35.1875 -77.21875 C 35.664062 -76.351562 36.117188 -75.488281 36.546875 -74.625 C 36.972656 -73.757812 37.378906 -72.882812 37.765625 -72 C 40.222656 -66.789062 42.519531 -61.507812 44.65625 -56.15625 C 46.789062 -50.8125 48.851562 -45.40625 50.84375 -39.9375 C 53.21875 -33.519531 55.148438 -26.953125 56.640625 -20.234375 C 58.140625 -13.523438 59.09375 -6.660156 59.5 0.359375 C 59.75 4.265625 59.78125 8.285156 59.59375 12.421875 C 59.40625 16.566406 58.828125 20.59375 57.859375 24.5 C 56.898438 28.40625 55.519531 32.171875 53.71875 35.796875 C 51.914062 39.429688 49.484375 42.644531 46.421875 45.4375 C 43.535156 48.101562 40.265625 50.125 36.609375 51.5 C 32.953125 52.882812 29.191406 53.644531 25.328125 53.78125 C 21.460938 53.914062 17.644531 53.394531 13.875 52.21875 C 10.101562 51.039062 6.695312 49.226562 3.65625 46.78125 C 2.144531 45.601562 1.421875 44.234375 1.484375 42.671875 C 1.546875 41.109375 2.054688 39.753906 3.015625 38.609375 C 3.972656 37.460938 5.21875 36.722656 6.75 36.390625 C 8.28125 36.054688 9.800781 36.476562 11.3125 37.65625 Z M 23.40625 -15.5 C 26.976562 -14.90625 30.648438 -14.597656 34.421875 -14.578125 C 38.191406 -14.554688 41.796875 -15.097656 45.234375 -16.203125 C 44.179688 -21.242188 42.875 -26.0625 41.3125 -30.65625 C 39.757812 -35.25 38.066406 -39.878906 36.234375 -44.546875 C 35.179688 -47.273438 34.113281 -49.953125 33.03125 -52.578125 C 31.957031 -55.203125 30.847656 -57.820312 29.703125 -60.4375 C 29.429688 -60.207031 29.097656 -60.050781 28.703125 -59.96875 C 28.304688 -59.882812 27.863281 -59.769531 27.375 -59.625 C 24.375 -59.363281 22.191406 -57.8125 20.828125 -54.96875 C 19.878906 -53.175781 19.140625 -51.300781 18.609375 -49.34375 C 18.453125 -48.8125 18.289062 -48.316406 18.125 -47.859375 C 17.96875 -47.398438 17.816406 -46.910156 17.671875 -46.390625 C 16.484375 -42.660156 15.515625 -39.078125 14.765625 -35.640625 C 14.015625 -32.203125 13.675781 -28.875 13.75 -25.65625 L 13.984375 -22.96875 C 14.148438 -22.28125 14.300781 -21.738281 14.4375 -21.34375 C 14.707031 -20.46875 14.875 -19.929688 14.9375 -19.734375 C 15.007812 -19.546875 15.335938 -19.070312 15.921875 -18.3125 C 16.546875 -17.863281 17.125 -17.507812 17.65625 -17.25 C 18.1875 -16.988281 18.503906 -16.816406 18.609375 -16.734375 C 19.429688 -16.503906 20.226562 -16.273438 21 -16.046875 C 21.78125 -15.816406 22.582031 -15.632812 23.40625 -15.5 Z M 23.40625 -15.5 "/></g></g></g><g fill="#000000" fill-opacity="1"><g transform="translate(386.490277, 373.269896)"><g><path d="M 5.6875 -119.015625 C 7.476562 -119.171875 8.929688 -118.691406 10.046875 -117.578125 C 11.160156 -116.472656 11.882812 -115.128906 12.21875 -113.546875 C 14.039062 -104.140625 15.414062 -94.695312 16.34375 -85.21875 C 17.28125 -75.75 17.988281 -66.253906 18.46875 -56.734375 C 18.957031 -47.210938 19.269531 -37.675781 19.40625 -28.125 C 19.550781 -18.570312 19.6875 -9.070312 19.8125 0.375 C 19.757812 2.082031 19.257812 3.554688 18.3125 4.796875 C 17.375 6.046875 16.054688 6.742188 14.359375 6.890625 C 12.859375 7.023438 11.40625 6.570312 10 5.53125 C 8.59375 4.5 7.867188 3.128906 7.828125 1.421875 C 7.703125 -8.023438 7.59375 -17.523438 7.5 -27.078125 C 7.414062 -36.640625 7.128906 -46.175781 6.640625 -55.6875 C 6.160156 -65.207031 5.453125 -74.707031 4.515625 -84.1875 C 3.585938 -93.664062 2.207031 -103.101562 0.375 -112.5 C 0.0390625 -114.09375 0.46875 -115.546875 1.65625 -116.859375 C 2.851562 -118.171875 4.195312 -118.890625 5.6875 -119.015625 Z M 5.6875 -119.015625 "/></g></g></g><g fill="#000000" fill-opacity="1"><g transform="translate(424.068509, 369.966624)"><g><path d="M 6.125 -59.125 C 7.800781 -61.882812 9.875 -64.378906 12.34375 -66.609375 C 14.8125 -68.835938 17.488281 -70.65625 20.375 -72.0625 C 23.269531 -73.46875 26.3125 -74.335938 29.5 -74.671875 C 32.695312 -75.003906 35.953125 -74.664062 39.265625 -73.65625 C 42.472656 -72.71875 45.414062 -71.335938 48.09375 -69.515625 C 50.769531 -67.703125 52.945312 -65.253906 54.625 -62.171875 C 55.9375 -59.878906 56.8125 -57.34375 57.25 -54.5625 C 57.695312 -51.78125 57.175781 -49.164062 55.6875 -46.71875 C 54.363281 -44.488281 52.675781 -42.726562 50.625 -41.4375 C 48.570312 -40.144531 46.34375 -39.144531 43.9375 -38.4375 C 41.539062 -37.726562 39.066406 -37.257812 36.515625 -37.03125 C 33.972656 -36.8125 31.546875 -36.648438 29.234375 -36.546875 C 26.640625 -36.410156 24.050781 -36.378906 21.46875 -36.453125 C 18.894531 -36.523438 16.300781 -36.597656 13.6875 -36.671875 C 14.882812 -32.253906 16.832031 -28.40625 19.53125 -25.125 C 22.238281 -21.84375 25.71875 -19.476562 29.96875 -18.03125 C 31.101562 -17.71875 31.976562 -17.488281 32.59375 -17.34375 C 32.90625 -17.269531 33.1875 -17.222656 33.4375 -17.203125 C 33.6875 -17.179688 33.960938 -17.1875 34.265625 -17.21875 C 35.078125 -17.175781 35.757812 -17.15625 36.3125 -17.15625 C 36.863281 -17.164062 37.382812 -17.238281 37.875 -17.375 C 38.570312 -17.539062 39.039062 -17.65625 39.28125 -17.71875 C 39.53125 -17.78125 39.800781 -17.878906 40.09375 -18.015625 C 41.15625 -18.410156 42.09375 -18.84375 42.90625 -19.3125 C 43.726562 -19.789062 44.695312 -20.535156 45.8125 -21.546875 C 46.363281 -22.097656 47.09375 -22.914062 48 -24 C 48.914062 -25.082031 49.6875 -26.050781 50.3125 -26.90625 C 51.195312 -28.40625 52.34375 -29.46875 53.75 -30.09375 C 55.15625 -30.71875 56.644531 -30.648438 58.21875 -29.890625 C 59.582031 -29.203125 60.609375 -28.054688 61.296875 -26.453125 C 61.992188 -24.847656 61.910156 -23.300781 61.046875 -21.8125 C 58.492188 -17.664062 55.363281 -14.039062 51.65625 -10.9375 C 47.945312 -7.84375 43.550781 -5.976562 38.46875 -5.34375 C 34.40625 -4.789062 30.398438 -5.171875 26.453125 -6.484375 C 22.515625 -7.796875 18.972656 -9.71875 15.828125 -12.25 C 11.929688 -15.4375 8.726562 -19.234375 6.21875 -23.640625 C 3.71875 -28.054688 2.160156 -32.648438 1.546875 -37.421875 C 0.578125 -38.046875 -0.175781 -38.863281 -0.71875 -39.875 C -1.257812 -40.882812 -1.5 -41.941406 -1.4375 -43.046875 C -1.382812 -44.160156 -1.097656 -45.21875 -0.578125 -46.21875 C -0.0664062 -47.21875 0.769531 -47.921875 1.9375 -48.328125 C 2.71875 -52.128906 4.113281 -55.726562 6.125 -59.125 Z M 42.390625 -58.6875 C 41.171875 -59.976562 39.367188 -61.078125 36.984375 -61.984375 C 35.003906 -62.609375 32.738281 -62.804688 30.1875 -62.578125 C 27.644531 -62.359375 25.519531 -61.726562 23.8125 -60.6875 C 21.601562 -59.375 19.6875 -57.660156 18.0625 -55.546875 C 16.4375 -53.441406 15.175781 -51.144531 14.28125 -48.65625 C 16.71875 -48.5625 19.144531 -48.472656 21.5625 -48.390625 C 23.988281 -48.304688 26.40625 -48.320312 28.8125 -48.4375 C 30.101562 -48.550781 31.394531 -48.660156 32.6875 -48.765625 C 33.988281 -48.878906 35.285156 -49.046875 36.578125 -49.265625 C 36.984375 -49.304688 37.359375 -49.363281 37.703125 -49.4375 C 38.046875 -49.519531 38.414062 -49.578125 38.8125 -49.609375 C 39.6875 -49.898438 40.347656 -50.085938 40.796875 -50.171875 C 41.253906 -50.253906 41.722656 -50.410156 42.203125 -50.640625 C 42.585938 -50.785156 43.066406 -50.984375 43.640625 -51.234375 C 44.140625 -51.484375 44.429688 -51.660156 44.515625 -51.765625 C 44.609375 -51.878906 44.75 -51.988281 44.9375 -52.09375 L 45.234375 -53.953125 C 45.003906 -54.328125 44.847656 -54.6875 44.765625 -55.03125 C 44.679688 -55.375 44.523438 -55.691406 44.296875 -55.984375 C 44.171875 -56.273438 43.90625 -56.703125 43.5 -57.265625 C 43.101562 -57.835938 42.734375 -58.3125 42.390625 -58.6875 Z M 35.09375 -107.265625 C 36.3125 -108.378906 37.660156 -109.078125 39.140625 -109.359375 C 40.628906 -109.640625 42.078125 -109.1875 43.484375 -108 C 44.691406 -107 45.421875 -105.628906 45.671875 -103.890625 C 45.921875 -102.148438 45.445312 -100.675781 44.25 -99.46875 C 37.539062 -93.34375 30.46875 -87.9375 23.03125 -83.25 C 21.40625 -82.195312 19.8125 -81.929688 18.25 -82.453125 C 16.695312 -82.972656 15.488281 -83.847656 14.625 -85.078125 C 13.769531 -86.304688 13.375 -87.675781 13.4375 -89.1875 C 13.507812 -90.707031 14.351562 -92 15.96875 -93.0625 C 19.40625 -95.164062 22.707031 -97.363281 25.875 -99.65625 C 29.050781 -101.945312 32.125 -104.484375 35.09375 -107.265625 Z M 35.09375 -107.265625 "/></g></g></g><g fill="#000000" fill-opacity="1"><g transform="translate(496.702099, 363.581851)"><g><path d="M 9.515625 -34.359375 C 6.753906 -36.023438 4.695312 -38.234375 3.34375 -40.984375 C 2 -43.734375 1.679688 -46.75 2.390625 -50.03125 C 3.128906 -53.007812 4.445312 -55.738281 6.34375 -58.21875 C 8.25 -60.707031 10.488281 -62.769531 13.0625 -64.40625 C 15.90625 -66.269531 18.988281 -67.796875 22.3125 -68.984375 C 25.632812 -70.179688 29.039062 -70.984375 32.53125 -71.390625 C 36.019531 -71.796875 39.519531 -71.773438 43.03125 -71.328125 C 46.539062 -70.890625 49.910156 -70.003906 53.140625 -68.671875 C 54.921875 -67.929688 55.976562 -66.820312 56.3125 -65.34375 C 56.644531 -63.863281 56.488281 -62.4375 55.84375 -61.0625 C 55.207031 -59.695312 54.164062 -58.648438 52.71875 -57.921875 C 51.28125 -57.191406 49.671875 -57.207031 47.890625 -57.96875 C 45.378906 -59.050781 42.609375 -59.660156 39.578125 -59.796875 C 36.546875 -59.929688 33.519531 -59.6875 30.5 -59.0625 C 27.488281 -58.445312 24.6875 -57.421875 22.09375 -55.984375 C 19.5 -54.546875 17.390625 -52.800781 15.765625 -50.75 C 15.316406 -50.207031 15.023438 -49.828125 14.890625 -49.609375 C 14.753906 -49.398438 14.566406 -48.929688 14.328125 -48.203125 L 14.1875 -46.546875 C 14.5625 -45.671875 14.851562 -45.140625 15.0625 -44.953125 C 17.175781 -43.835938 19.320312 -43.195312 21.5 -43.03125 C 23.675781 -42.863281 25.867188 -42.832031 28.078125 -42.9375 C 31.191406 -43 34.378906 -43.097656 37.640625 -43.234375 C 40.898438 -43.367188 44.082031 -43.222656 47.1875 -42.796875 C 50.289062 -42.367188 53.210938 -41.46875 55.953125 -40.09375 C 58.691406 -38.726562 61.097656 -36.570312 63.171875 -33.625 C 65.472656 -30.300781 66.710938 -26.757812 66.890625 -23 C 67.066406 -19.25 65.890625 -15.753906 63.359375 -12.515625 C 60.828125 -9.265625 57.765625 -6.90625 54.171875 -5.4375 C 50.578125 -3.96875 46.898438 -2.8125 43.140625 -1.96875 C 39.785156 -1.28125 36.273438 -0.875 32.609375 -0.75 C 28.953125 -0.625 25.410156 -0.890625 21.984375 -1.546875 C 18.554688 -2.203125 15.304688 -3.375 12.234375 -5.0625 C 9.160156 -6.757812 6.539062 -9.125 4.375 -12.15625 C 3.332031 -13.6875 3.046875 -15.195312 3.515625 -16.6875 C 3.984375 -18.1875 4.8125 -19.363281 6 -20.21875 C 7.1875 -21.082031 8.554688 -21.484375 10.109375 -21.421875 C 11.671875 -21.359375 13.03125 -20.578125 14.1875 -19.078125 C 15.78125 -16.878906 17.878906 -15.289062 20.484375 -14.3125 C 23.085938 -13.332031 25.882812 -12.75 28.875 -12.5625 C 31.863281 -12.382812 34.84375 -12.550781 37.8125 -13.0625 C 40.78125 -13.582031 43.4375 -14.191406 45.78125 -14.890625 C 47.0625 -15.304688 48.351562 -15.847656 49.65625 -16.515625 C 50.957031 -17.191406 52.046875 -17.96875 52.921875 -18.84375 C 53.796875 -19.726562 54.382812 -20.707031 54.6875 -21.78125 C 55 -22.863281 54.847656 -24.035156 54.234375 -25.296875 C 53.023438 -27.710938 51.195312 -29.363281 48.75 -30.25 C 46.300781 -31.132812 43.769531 -31.566406 41.15625 -31.546875 C 38.539062 -31.515625 35.882812 -31.378906 33.1875 -31.140625 C 30.488281 -30.910156 27.78125 -30.800781 25.0625 -30.8125 C 22.34375 -30.820312 19.65625 -31.0625 17 -31.53125 C 14.34375 -32.007812 11.847656 -32.953125 9.515625 -34.359375 Z M 9.515625 -34.359375 "/></g></g></g></g></g></g></g></g></svg>