<svg xmlns="http://www.w3.org/2000/svg" xmlns:xlink="http://www.w3.org/1999/xlink" width="1080" zoomAndPan="magnify" viewBox="0 0 810 809.999993" height="1080" preserveAspectRatio="xMidYMid meet" version="1.0"><defs><g/><clipPath id="9355cd5978"><path d="M 6.792969 6.792969 L 803.292969 6.792969 L 803.292969 803.292969 L 6.792969 803.292969 Z M 6.792969 6.792969 " clip-rule="nonzero"/></clipPath><clipPath id="a0981898d5"><path d="M 0.0390625 0.121094 L 804.519531 0.121094 L 804.519531 447.71875 L 0.0390625 447.71875 Z M 0.0390625 0.121094 " clip-rule="nonzero"/></clipPath><clipPath id="eeb6bc8681"><rect x="0" width="805" y="0" height="448"/></clipPath><clipPath id="0f02df429a"><rect x="0" width="805" y="0" height="448"/></clipPath></defs><g clip-path="url(#9355cd5978)"><path fill="#ffdb1c" d="M 404.988281 42.742188 C 205.242188 42.742188 42.738281 205.242188 42.738281 404.992188 C 42.738281 604.738281 205.242188 767.246094 404.988281 767.246094 C 604.730469 767.246094 767.234375 604.738281 767.234375 404.992188 C 767.234375 205.242188 604.730469 42.742188 404.988281 42.742188 Z M 404.988281 803.1875 C 185.425781 803.1875 6.800781 624.554688 6.800781 404.992188 C 6.800781 185.429688 185.425781 6.800781 404.988281 6.800781 C 624.550781 6.800781 803.179688 185.429688 803.179688 404.992188 C 803.179688 624.554688 624.550781 803.1875 404.988281 803.1875 " fill-opacity="1" fill-rule="nonzero"/></g><g transform="matrix(1, 0, 0, 1, 5, 165)"><g clip-path="url(#0f02df429a)"><g clip-path="url(#a0981898d5)"><g transform="matrix(1, 0, 0, 1, 0, 0.000000000000056843)"><g clip-path="url(#eeb6bc8681)"><g fill="#000000" fill-opacity="1"><g transform="translate(57.17983, 208.306791)"><g><path d="M 19.75 -4.59375 C 19.90625 -2.800781 19.429688 -1.40625 18.328125 -0.40625 C 17.222656 0.59375 15.957031 1.15625 14.53125 1.28125 C 13.113281 1.40625 11.773438 1.070312 10.515625 0.28125 C 9.265625 -0.507812 8.5625 -1.800781 8.40625 -3.59375 C 7.070312 -18.726562 5.9375 -33.800781 5 -48.8125 C 4.070312 -63.832031 3.648438 -78.914062 3.734375 -94.0625 C 3.773438 -95.6875 4.25 -97.015625 5.15625 -98.046875 C 6.070312 -99.078125 7.113281 -99.71875 8.28125 -99.96875 C 9.457031 -100.21875 10.660156 -100.082031 11.890625 -99.5625 C 13.128906 -99.050781 14.097656 -98.070312 14.796875 -96.625 C 17.160156 -91.394531 19.382812 -86.132812 21.46875 -80.84375 C 23.550781 -75.550781 25.613281 -70.226562 27.65625 -64.875 C 29.707031 -59.53125 31.796875 -54.210938 33.921875 -48.921875 C 36.046875 -43.628906 38.335938 -38.425781 40.796875 -33.3125 C 44.628906 -46.125 48.003906 -58.945312 50.921875 -71.78125 C 53.835938 -84.613281 55.953125 -97.707031 57.265625 -111.0625 C 57.410156 -112.5 57.976562 -113.59375 58.96875 -114.34375 C 59.957031 -115.101562 61.085938 -115.539062 62.359375 -115.65625 C 63.628906 -115.769531 64.8125 -115.539062 65.90625 -114.96875 C 67.007812 -114.394531 67.765625 -113.410156 68.171875 -112.015625 C 69.304688 -107.835938 69.9375 -103.679688 70.0625 -99.546875 C 70.1875 -95.410156 70.4375 -91.210938 70.8125 -86.953125 C 71.21875 -82.421875 71.867188 -78.003906 72.765625 -73.703125 C 73.660156 -69.398438 74.488281 -65.046875 75.25 -60.640625 C 76.789062 -51.804688 78.140625 -42.96875 79.296875 -34.125 C 80.460938 -25.28125 81.578125 -16.421875 82.640625 -7.546875 C 82.804688 -5.660156 82.363281 -4.21875 81.3125 -3.21875 C 80.257812 -2.21875 79.019531 -1.65625 77.59375 -1.53125 C 76.175781 -1.40625 74.8125 -1.738281 73.5 -2.53125 C 72.195312 -3.320312 71.460938 -4.660156 71.296875 -6.546875 C 70.316406 -15.429688 69.222656 -24.289062 68.015625 -33.125 C 66.816406 -41.96875 65.445312 -50.804688 63.90625 -59.640625 C 63.582031 -61.222656 63.273438 -62.859375 62.984375 -64.546875 C 62.691406 -66.242188 62.382812 -67.882812 62.0625 -69.46875 C 60.0625 -60.613281 57.847656 -51.890625 55.421875 -43.296875 C 52.992188 -34.710938 50.441406 -26.109375 47.765625 -17.484375 C 47.390625 -16.304688 46.785156 -15.273438 45.953125 -14.390625 C 45.128906 -13.515625 44.054688 -13.019531 42.734375 -12.90625 C 41.796875 -12.820312 40.828125 -12.992188 39.828125 -13.421875 C 38.835938 -13.859375 38.066406 -14.484375 37.515625 -15.296875 C 33.015625 -23.285156 29.0625 -31.460938 25.65625 -39.828125 C 22.25 -48.203125 18.878906 -56.671875 15.546875 -65.234375 C 15.972656 -55.085938 16.554688 -44.972656 17.296875 -34.890625 C 18.046875 -24.816406 18.863281 -14.71875 19.75 -4.59375 Z M 19.75 -4.59375 "/></g></g></g><g fill="#000000" fill-opacity="1"><g transform="translate(154.292968, 199.770171)"><g><path d="M 62.65625 -55.953125 C 63.46875 -47.828125 64.753906 -39.742188 66.515625 -31.703125 C 68.273438 -23.671875 70.351562 -15.757812 72.75 -7.96875 C 73.28125 -6.195312 73.101562 -4.675781 72.21875 -3.40625 C 71.332031 -2.132812 70.242188 -1.25 68.953125 -0.75 C 67.671875 -0.257812 66.34375 -0.242188 64.96875 -0.703125 C 63.59375 -1.160156 62.632812 -2.269531 62.09375 -4.03125 C 60.488281 -9.3125 59.03125 -14.515625 57.71875 -19.640625 C 57.382812 -19.148438 57.09375 -18.675781 56.84375 -18.21875 C 56.601562 -17.769531 56.3125 -17.289062 55.96875 -16.78125 C 54.28125 -14.351562 52.273438 -12.203125 49.953125 -10.328125 C 47.640625 -8.453125 45.128906 -6.941406 42.421875 -5.796875 C 39.722656 -4.660156 36.910156 -3.914062 33.984375 -3.5625 C 31.066406 -3.207031 28.15625 -3.285156 25.25 -3.796875 C 20.113281 -4.773438 16.066406 -6.894531 13.109375 -10.15625 C 10.160156 -13.414062 7.914062 -17.242188 6.375 -21.640625 C 4.84375 -26.035156 3.769531 -30.660156 3.15625 -35.515625 C 2.550781 -40.367188 2.019531 -44.867188 1.5625 -49.015625 C 1.40625 -50.804688 1.851562 -52.203125 2.90625 -53.203125 C 3.957031 -54.203125 5.191406 -54.765625 6.609375 -54.890625 C 8.023438 -55.015625 9.363281 -54.675781 10.625 -53.875 C 11.882812 -53.082031 12.640625 -51.789062 12.890625 -50 C 13.316406 -46.21875 13.726562 -42.390625 14.125 -38.515625 C 14.519531 -34.648438 15.234375 -31.050781 16.265625 -27.71875 C 16.816406 -25.863281 17.390625 -24.269531 17.984375 -22.9375 C 18.578125 -21.613281 19.460938 -20.238281 20.640625 -18.8125 C 21.171875 -18.1875 21.460938 -17.828125 21.515625 -17.734375 C 21.566406 -17.648438 21.691406 -17.570312 21.890625 -17.5 C 23.421875 -16.5 24.429688 -15.898438 24.921875 -15.703125 C 25.410156 -15.503906 25.992188 -15.335938 26.671875 -15.203125 C 30.742188 -14.421875 34.753906 -14.890625 38.703125 -16.609375 C 42.648438 -18.335938 45.691406 -21.109375 47.828125 -24.921875 C 49.035156 -27.316406 49.890625 -29.769531 50.390625 -32.28125 C 50.890625 -34.800781 51.164062 -37.328125 51.21875 -39.859375 C 51.28125 -42.390625 51.269531 -44.957031 51.1875 -47.5625 C 51.101562 -50.175781 51.132812 -52.78125 51.28125 -55.375 C 51.03125 -58.207031 51.597656 -60.140625 52.984375 -61.171875 C 54.378906 -62.203125 55.894531 -62.644531 57.53125 -62.5 C 58.5 -62.300781 59.28125 -62.035156 59.875 -61.703125 L 61.09375 -60.8125 C 62.289062 -59.207031 62.8125 -57.585938 62.65625 -55.953125 Z M 62.65625 -55.953125 "/></g></g></g><g fill="#000000" fill-opacity="1"><g transform="translate(236.658495, 192.529923)"><g><path d="M -26.5 43.203125 C -28.019531 42.085938 -28.75 40.8125 -28.6875 39.375 C -28.625 37.945312 -28.140625 36.691406 -27.234375 35.609375 C -26.328125 34.523438 -25.128906 33.800781 -23.640625 33.4375 C -22.148438 33.070312 -20.691406 33.441406 -19.265625 34.546875 C -15.191406 37.535156 -10.488281 39.796875 -5.15625 41.328125 C 0.164062 42.859375 5.359375 43.160156 10.421875 42.234375 C 12.296875 41.878906 14.125 41.238281 15.90625 40.3125 C 17.6875 39.394531 19.023438 38.09375 19.921875 36.40625 C 21.066406 34.394531 21.753906 32.28125 21.984375 30.0625 C 22.222656 27.851562 22.296875 25.613281 22.203125 23.34375 C 21.742188 17 20.457031 10.800781 18.34375 4.75 C 16.238281 -1.300781 14.207031 -7.335938 12.25 -13.359375 C 10.050781 -19.929688 8.132812 -26.570312 6.5 -33.28125 C 4.863281 -40 4.125 -46.796875 4.28125 -53.671875 C 4.332031 -55.296875 4.78125 -56.695312 5.625 -57.875 C 6.476562 -59.050781 7.753906 -59.710938 9.453125 -59.859375 C 10.878906 -59.984375 12.273438 -59.554688 13.640625 -58.578125 C 15.015625 -57.597656 15.675781 -56.296875 15.625 -54.671875 C 15.539062 -46.953125 16.507812 -39.414062 18.53125 -32.0625 C 20.5625 -24.71875 22.804688 -17.390625 25.265625 -10.078125 C 26.398438 -6.835938 27.523438 -3.503906 28.640625 -0.078125 C 29.753906 3.335938 30.722656 6.796875 31.546875 10.296875 C 32.378906 13.796875 32.972656 17.316406 33.328125 20.859375 C 33.691406 24.410156 33.648438 27.914062 33.203125 31.375 C 32.804688 34.457031 31.988281 37.363281 30.75 40.09375 C 29.507812 42.820312 27.742188 45.238281 25.453125 47.34375 C 23.253906 49.34375 20.695312 50.875 17.78125 51.9375 C 14.875 53.007812 11.953125 53.675781 9.015625 53.9375 C 2.679688 54.40625 -3.566406 53.664062 -9.734375 51.71875 C -15.910156 49.78125 -21.5 46.941406 -26.5 43.203125 Z M 5.484375 -75.796875 C 4.378906 -76.359375 3.546875 -77.140625 2.984375 -78.140625 C 2.429688 -79.140625 2.195312 -80.21875 2.28125 -81.375 C 1.882812 -83.707031 2.226562 -85.46875 3.3125 -86.65625 C 4.40625 -87.851562 5.707031 -88.519531 7.21875 -88.65625 C 7.6875 -88.695312 8.132812 -88.734375 8.5625 -88.765625 C 8.988281 -88.804688 9.445312 -88.753906 9.9375 -88.609375 C 10.226562 -88.546875 10.492188 -88.472656 10.734375 -88.390625 C 10.984375 -88.316406 11.25 -88.25 11.53125 -88.1875 C 13.289062 -87.769531 14.507812 -86.96875 15.1875 -85.78125 C 15.601562 -85.257812 15.914062 -84.597656 16.125 -83.796875 C 16.34375 -83.003906 16.34375 -82.265625 16.125 -81.578125 C 15.914062 -80.710938 15.695312 -79.976562 15.46875 -79.375 C 15.101562 -78.101562 14.332031 -77.082031 13.15625 -76.3125 C 11.988281 -75.550781 10.726562 -75.253906 9.375 -75.421875 C 7.882812 -75.097656 6.585938 -75.222656 5.484375 -75.796875 Z M 5.484375 -75.796875 "/></g></g></g><g fill="#000000" fill-opacity="1"><g transform="translate(274.497567, 189.203723)"><g><path d="M 5.78125 -55.953125 C 7.375 -58.566406 9.335938 -60.925781 11.671875 -63.03125 C 14.015625 -65.144531 16.554688 -66.867188 19.296875 -68.203125 C 22.035156 -69.546875 24.914062 -70.375 27.9375 -70.6875 C 30.96875 -71 34.039062 -70.675781 37.15625 -69.71875 C 40.195312 -68.832031 42.984375 -67.523438 45.515625 -65.796875 C 48.046875 -64.066406 50.109375 -61.75 51.703125 -58.84375 C 52.941406 -56.664062 53.773438 -54.257812 54.203125 -51.625 C 54.628906 -48.988281 54.128906 -46.519531 52.703125 -44.21875 C 51.460938 -42.101562 49.867188 -40.4375 47.921875 -39.21875 C 45.972656 -38.007812 43.863281 -37.066406 41.59375 -36.390625 C 39.320312 -35.710938 36.976562 -35.265625 34.5625 -35.046875 C 32.15625 -34.835938 29.863281 -34.6875 27.6875 -34.59375 C 25.21875 -34.46875 22.765625 -34.441406 20.328125 -34.515625 C 17.890625 -34.585938 15.429688 -34.65625 12.953125 -34.71875 C 14.078125 -30.53125 15.921875 -26.878906 18.484375 -23.765625 C 21.046875 -20.660156 24.34375 -18.425781 28.375 -17.0625 C 29.4375 -16.78125 30.257812 -16.570312 30.84375 -16.4375 C 31.132812 -16.363281 31.398438 -16.3125 31.640625 -16.28125 C 31.890625 -16.257812 32.15625 -16.257812 32.4375 -16.28125 C 33.195312 -16.25 33.835938 -16.234375 34.359375 -16.234375 C 34.890625 -16.234375 35.390625 -16.300781 35.859375 -16.4375 C 36.515625 -16.59375 36.953125 -16.703125 37.171875 -16.765625 C 37.398438 -16.835938 37.648438 -16.9375 37.921875 -17.0625 C 38.953125 -17.4375 39.851562 -17.847656 40.625 -18.296875 C 41.394531 -18.742188 42.304688 -19.441406 43.359375 -20.390625 C 43.898438 -20.910156 44.597656 -21.6875 45.453125 -22.71875 C 46.304688 -23.75 47.035156 -24.664062 47.640625 -25.46875 C 48.460938 -26.875 49.535156 -27.875 50.859375 -28.46875 C 52.191406 -29.070312 53.601562 -29.003906 55.09375 -28.265625 C 56.394531 -27.628906 57.375 -26.554688 58.03125 -25.046875 C 58.6875 -23.535156 58.597656 -22.070312 57.765625 -20.65625 C 55.347656 -16.738281 52.382812 -13.3125 48.875 -10.375 C 45.375 -7.4375 41.222656 -5.664062 36.421875 -5.0625 C 32.554688 -4.53125 28.757812 -4.882812 25.03125 -6.125 C 21.3125 -7.375 17.960938 -9.195312 14.984375 -11.59375 C 11.285156 -14.613281 8.253906 -18.207031 5.890625 -22.375 C 3.523438 -26.550781 2.050781 -30.898438 1.46875 -35.421875 C 0.550781 -36.003906 -0.15625 -36.769531 -0.65625 -37.71875 C -1.164062 -38.675781 -1.398438 -39.6875 -1.359375 -40.75 C -1.316406 -41.8125 -1.050781 -42.8125 -0.5625 -43.75 C -0.0703125 -44.695312 0.734375 -45.363281 1.859375 -45.75 C 2.578125 -49.34375 3.882812 -52.742188 5.78125 -55.953125 Z M 40.140625 -55.53125 C 38.972656 -56.78125 37.257812 -57.820312 35 -58.65625 C 33.132812 -59.257812 30.992188 -59.453125 28.578125 -59.234375 C 26.171875 -59.023438 24.148438 -58.421875 22.515625 -57.421875 C 20.441406 -56.203125 18.632812 -54.59375 17.09375 -52.59375 C 15.550781 -50.59375 14.367188 -48.414062 13.546875 -46.0625 C 15.828125 -45.96875 18.113281 -45.878906 20.40625 -45.796875 C 22.707031 -45.722656 24.988281 -45.738281 27.25 -45.84375 C 28.488281 -45.945312 29.71875 -46.050781 30.9375 -46.15625 C 32.164062 -46.269531 33.398438 -46.425781 34.640625 -46.625 C 35.003906 -46.65625 35.347656 -46.707031 35.671875 -46.78125 C 36.003906 -46.863281 36.363281 -46.921875 36.75 -46.953125 C 37.582031 -47.210938 38.207031 -47.382812 38.625 -47.46875 C 39.050781 -47.5625 39.488281 -47.71875 39.9375 -47.9375 C 40.3125 -48.070312 40.773438 -48.257812 41.328125 -48.5 C 41.785156 -48.726562 42.054688 -48.894531 42.140625 -49 C 42.222656 -49.101562 42.359375 -49.210938 42.546875 -49.328125 L 42.8125 -51.0625 C 42.582031 -51.414062 42.429688 -51.757812 42.359375 -52.09375 C 42.285156 -52.425781 42.144531 -52.722656 41.9375 -52.984375 C 41.8125 -53.253906 41.554688 -53.660156 41.171875 -54.203125 C 40.796875 -54.742188 40.453125 -55.1875 40.140625 -55.53125 Z M 40.140625 -55.53125 "/></g></g></g><g fill="#000000" fill-opacity="1"><g transform="translate(343.249924, 183.160125)"><g><path d="M 3.296875 -58.453125 C 3.234375 -60.253906 3.773438 -61.65625 4.921875 -62.65625 C 6.066406 -63.664062 7.347656 -64.234375 8.765625 -64.359375 C 10.191406 -64.484375 11.484375 -64.144531 12.640625 -63.34375 C 13.804688 -62.539062 14.421875 -61.238281 14.484375 -59.4375 C 14.535156 -58.863281 14.5625 -58.265625 14.5625 -57.640625 C 14.570312 -57.023438 14.601562 -56.4375 14.65625 -55.875 C 17.5625 -57.65625 20.640625 -59.234375 23.890625 -60.609375 C 27.148438 -61.984375 30.441406 -62.960938 33.765625 -63.546875 C 37.097656 -64.128906 40.382812 -64.160156 43.625 -63.640625 C 46.875 -63.117188 49.921875 -61.835938 52.765625 -59.796875 C 54.179688 -58.679688 54.878906 -57.410156 54.859375 -55.984375 C 54.847656 -54.554688 54.390625 -53.300781 53.484375 -52.21875 C 52.585938 -51.144531 51.390625 -50.421875 49.890625 -50.046875 C 48.398438 -49.671875 46.90625 -49.984375 45.40625 -50.984375 C 44.269531 -51.753906 43.046875 -52.269531 41.734375 -52.53125 C 40.429688 -52.800781 39.050781 -52.847656 37.59375 -52.671875 C 36.132812 -52.492188 34.679688 -52.195312 33.234375 -51.78125 C 31.796875 -51.375 30.4375 -50.921875 29.15625 -50.421875 C 24.28125 -48.378906 19.785156 -45.84375 15.671875 -42.8125 C 16.265625 -38.207031 16.957031 -33.597656 17.75 -28.984375 C 18.46875 -25.148438 19.148438 -21.1875 19.796875 -17.09375 C 20.441406 -13.007812 21.582031 -9.179688 23.21875 -5.609375 C 23.9375 -3.960938 23.945312 -2.515625 23.25 -1.265625 C 22.550781 -0.015625 21.535156 0.859375 20.203125 1.359375 C 18.867188 1.859375 17.441406 1.890625 15.921875 1.453125 C 14.398438 1.023438 13.285156 -0.015625 12.578125 -1.671875 C 11.617188 -3.785156 10.894531 -5.960938 10.40625 -8.203125 C 9.925781 -10.441406 9.445312 -12.6875 8.96875 -14.9375 C 8.601562 -17.09375 8.203125 -19.269531 7.765625 -21.46875 C 7.328125 -23.675781 6.921875 -25.851562 6.546875 -28 C 5.617188 -33.0625 4.859375 -38.117188 4.265625 -43.171875 C 3.679688 -48.222656 3.359375 -53.316406 3.296875 -58.453125 Z M 3.296875 -58.453125 "/></g></g></g><g fill="#000000" fill-opacity="1"><g transform="translate(407.74814, 177.490483)"><g><path d="M 5.78125 -55.953125 C 7.375 -58.566406 9.335938 -60.925781 11.671875 -63.03125 C 14.015625 -65.144531 16.554688 -66.867188 19.296875 -68.203125 C 22.035156 -69.546875 24.914062 -70.375 27.9375 -70.6875 C 30.96875 -71 34.039062 -70.675781 37.15625 -69.71875 C 40.195312 -68.832031 42.984375 -67.523438 45.515625 -65.796875 C 48.046875 -64.066406 50.109375 -61.75 51.703125 -58.84375 C 52.941406 -56.664062 53.773438 -54.257812 54.203125 -51.625 C 54.628906 -48.988281 54.128906 -46.519531 52.703125 -44.21875 C 51.460938 -42.101562 49.867188 -40.4375 47.921875 -39.21875 C 45.972656 -38.007812 43.863281 -37.066406 41.59375 -36.390625 C 39.320312 -35.710938 36.976562 -35.265625 34.5625 -35.046875 C 32.15625 -34.835938 29.863281 -34.6875 27.6875 -34.59375 C 25.21875 -34.46875 22.765625 -34.441406 20.328125 -34.515625 C 17.890625 -34.585938 15.429688 -34.65625 12.953125 -34.71875 C 14.078125 -30.53125 15.921875 -26.878906 18.484375 -23.765625 C 21.046875 -20.660156 24.34375 -18.425781 28.375 -17.0625 C 29.4375 -16.78125 30.257812 -16.570312 30.84375 -16.4375 C 31.132812 -16.363281 31.398438 -16.3125 31.640625 -16.28125 C 31.890625 -16.257812 32.15625 -16.257812 32.4375 -16.28125 C 33.195312 -16.25 33.835938 -16.234375 34.359375 -16.234375 C 34.890625 -16.234375 35.390625 -16.300781 35.859375 -16.4375 C 36.515625 -16.59375 36.953125 -16.703125 37.171875 -16.765625 C 37.398438 -16.835938 37.648438 -16.9375 37.921875 -17.0625 C 38.953125 -17.4375 39.851562 -17.847656 40.625 -18.296875 C 41.394531 -18.742188 42.304688 -19.441406 43.359375 -20.390625 C 43.898438 -20.910156 44.597656 -21.6875 45.453125 -22.71875 C 46.304688 -23.75 47.035156 -24.664062 47.640625 -25.46875 C 48.460938 -26.875 49.535156 -27.875 50.859375 -28.46875 C 52.191406 -29.070312 53.601562 -29.003906 55.09375 -28.265625 C 56.394531 -27.628906 57.375 -26.554688 58.03125 -25.046875 C 58.6875 -23.535156 58.597656 -22.070312 57.765625 -20.65625 C 55.347656 -16.738281 52.382812 -13.3125 48.875 -10.375 C 45.375 -7.4375 41.222656 -5.664062 36.421875 -5.0625 C 32.554688 -4.53125 28.757812 -4.882812 25.03125 -6.125 C 21.3125 -7.375 17.960938 -9.195312 14.984375 -11.59375 C 11.285156 -14.613281 8.253906 -18.207031 5.890625 -22.375 C 3.523438 -26.550781 2.050781 -30.898438 1.46875 -35.421875 C 0.550781 -36.003906 -0.15625 -36.769531 -0.65625 -37.71875 C -1.164062 -38.675781 -1.398438 -39.6875 -1.359375 -40.75 C -1.316406 -41.8125 -1.050781 -42.8125 -0.5625 -43.75 C -0.0703125 -44.695312 0.734375 -45.363281 1.859375 -45.75 C 2.578125 -49.34375 3.882812 -52.742188 5.78125 -55.953125 Z M 40.140625 -55.53125 C 38.972656 -56.78125 37.257812 -57.820312 35 -58.65625 C 33.132812 -59.257812 30.992188 -59.453125 28.578125 -59.234375 C 26.171875 -59.023438 24.148438 -58.421875 22.515625 -57.421875 C 20.441406 -56.203125 18.632812 -54.59375 17.09375 -52.59375 C 15.550781 -50.59375 14.367188 -48.414062 13.546875 -46.0625 C 15.828125 -45.96875 18.113281 -45.878906 20.40625 -45.796875 C 22.707031 -45.722656 24.988281 -45.738281 27.25 -45.84375 C 28.488281 -45.945312 29.71875 -46.050781 30.9375 -46.15625 C 32.164062 -46.269531 33.398438 -46.425781 34.640625 -46.625 C 35.003906 -46.65625 35.347656 -46.707031 35.671875 -46.78125 C 36.003906 -46.863281 36.363281 -46.921875 36.75 -46.953125 C 37.582031 -47.210938 38.207031 -47.382812 38.625 -47.46875 C 39.050781 -47.5625 39.488281 -47.71875 39.9375 -47.9375 C 40.3125 -48.070312 40.773438 -48.257812 41.328125 -48.5 C 41.785156 -48.726562 42.054688 -48.894531 42.140625 -49 C 42.222656 -49.101562 42.359375 -49.210938 42.546875 -49.328125 L 42.8125 -51.0625 C 42.582031 -51.414062 42.429688 -51.757812 42.359375 -52.09375 C 42.285156 -52.425781 42.144531 -52.722656 41.9375 -52.984375 C 41.8125 -53.253906 41.554688 -53.660156 41.171875 -54.203125 C 40.796875 -54.742188 40.453125 -55.1875 40.140625 -55.53125 Z M 40.140625 -55.53125 "/></g></g></g><g fill="#000000" fill-opacity="1"><g transform="translate(476.500519, 171.446884)"><g><path d="M 9 -32.5 C 6.382812 -34.09375 4.4375 -36.191406 3.15625 -38.796875 C 1.882812 -41.398438 1.585938 -44.25 2.265625 -47.34375 C 2.972656 -50.175781 4.222656 -52.765625 6.015625 -55.109375 C 7.816406 -57.460938 9.9375 -59.410156 12.375 -60.953125 C 15.070312 -62.722656 17.988281 -64.171875 21.125 -65.296875 C 24.257812 -66.429688 27.476562 -67.191406 30.78125 -67.578125 C 34.082031 -67.960938 37.394531 -67.945312 40.71875 -67.53125 C 44.039062 -67.113281 47.234375 -66.273438 50.296875 -65.015625 C 51.984375 -64.296875 52.984375 -63.234375 53.296875 -61.828125 C 53.617188 -60.429688 53.476562 -59.085938 52.875 -57.796875 C 52.269531 -56.503906 51.28125 -55.515625 49.90625 -54.828125 C 48.539062 -54.140625 47.019531 -54.148438 45.34375 -54.859375 C 42.96875 -55.890625 40.34375 -56.46875 37.46875 -56.59375 C 34.59375 -56.726562 31.726562 -56.5 28.875 -55.90625 C 26.03125 -55.320312 23.378906 -54.347656 20.921875 -52.984375 C 18.472656 -51.628906 16.472656 -49.984375 14.921875 -48.046875 C 14.484375 -47.535156 14.203125 -47.175781 14.078125 -46.96875 C 13.960938 -46.769531 13.796875 -46.320312 13.578125 -45.625 L 13.421875 -44.03125 C 13.785156 -43.21875 14.066406 -42.726562 14.265625 -42.5625 C 16.265625 -41.476562 18.289062 -40.863281 20.34375 -40.71875 C 22.40625 -40.582031 24.484375 -40.554688 26.578125 -40.640625 C 29.535156 -40.703125 32.550781 -40.796875 35.625 -40.921875 C 38.707031 -41.054688 41.71875 -40.914062 44.65625 -40.5 C 47.601562 -40.09375 50.367188 -39.238281 52.953125 -37.9375 C 55.546875 -36.644531 57.828125 -34.609375 59.796875 -31.828125 C 61.984375 -28.691406 63.15625 -25.34375 63.3125 -21.78125 C 63.476562 -18.21875 62.363281 -14.90625 59.96875 -11.84375 C 57.570312 -8.769531 54.675781 -6.535156 51.28125 -5.140625 C 47.882812 -3.742188 44.410156 -2.65625 40.859375 -1.875 C 37.671875 -1.21875 34.34375 -0.832031 30.875 -0.71875 C 27.414062 -0.601562 24.054688 -0.851562 20.796875 -1.46875 C 17.546875 -2.09375 14.46875 -3.203125 11.5625 -4.796875 C 8.664062 -6.398438 6.191406 -8.640625 4.140625 -11.515625 C 3.148438 -12.953125 2.878906 -14.378906 3.328125 -15.796875 C 3.773438 -17.222656 4.554688 -18.335938 5.671875 -19.140625 C 6.796875 -19.953125 8.097656 -20.328125 9.578125 -20.265625 C 11.054688 -20.210938 12.335938 -19.472656 13.421875 -18.046875 C 14.929688 -15.984375 16.914062 -14.488281 19.375 -13.5625 C 21.84375 -12.644531 24.488281 -12.09375 27.3125 -11.90625 C 30.144531 -11.726562 32.96875 -11.878906 35.78125 -12.359375 C 38.601562 -12.847656 41.125 -13.425781 43.34375 -14.09375 C 44.550781 -14.476562 45.769531 -14.988281 47 -15.625 C 48.226562 -16.257812 49.257812 -16.992188 50.09375 -17.828125 C 50.925781 -18.660156 51.488281 -19.59375 51.78125 -20.625 C 52.070312 -21.65625 51.925781 -22.757812 51.34375 -23.9375 C 50.1875 -26.21875 48.453125 -27.78125 46.140625 -28.625 C 43.828125 -29.476562 41.429688 -29.890625 38.953125 -29.859375 C 36.484375 -29.828125 33.972656 -29.695312 31.421875 -29.46875 C 28.867188 -29.25 26.304688 -29.144531 23.734375 -29.15625 C 21.160156 -29.164062 18.613281 -29.394531 16.09375 -29.84375 C 13.582031 -30.300781 11.21875 -31.1875 9 -32.5 Z M 9 -32.5 "/></g></g></g><g fill="#000000" fill-opacity="1"><g transform="translate(550.641384, 164.929616)"><g/></g></g><g fill="#000000" fill-opacity="1"><g transform="translate(600.675597, 160.531415)"><g><path d="M 17.015625 -53.640625 C 20.222656 -56.023438 23.722656 -58.144531 27.515625 -60 C 31.316406 -61.851562 35.253906 -62.910156 39.328125 -63.171875 C 38.234375 -71.179688 37.21875 -79.144531 36.28125 -87.0625 C 35.351562 -94.976562 34.488281 -102.957031 33.6875 -111 C 33.53125 -112.800781 33.976562 -114.195312 35.03125 -115.1875 C 36.09375 -116.1875 37.332031 -116.75 38.75 -116.875 C 40.164062 -117 41.503906 -116.660156 42.765625 -115.859375 C 44.023438 -115.066406 44.734375 -113.769531 44.890625 -111.96875 C 45.804688 -102.625 46.863281 -93.265625 48.0625 -83.890625 C 49.269531 -74.523438 50.472656 -65.175781 51.671875 -55.84375 C 52.878906 -46.519531 53.988281 -37.160156 55 -27.765625 C 56.019531 -18.378906 56.796875 -8.992188 57.328125 0.390625 C 57.390625 2.191406 56.847656 3.617188 55.703125 4.671875 C 54.554688 5.722656 53.273438 6.3125 51.859375 6.4375 C 50.441406 6.5625 49.125 6.222656 47.90625 5.421875 C 46.695312 4.628906 46.054688 3.285156 45.984375 1.390625 C 45.929688 0.722656 45.875 0.0625 45.8125 -0.59375 C 45.757812 -1.257812 45.753906 -1.925781 45.796875 -2.59375 C 44.828125 -2.601562 43.890625 -2.59375 42.984375 -2.5625 C 42.085938 -2.53125 41.210938 -2.476562 40.359375 -2.40625 C 39.222656 -2.300781 38.085938 -2.195312 36.953125 -2.09375 C 35.816406 -2 34.734375 -1.953125 33.703125 -1.953125 C 31.222656 -1.921875 28.738281 -1.941406 26.25 -2.015625 C 23.769531 -2.085938 21.3125 -2.445312 18.875 -3.09375 C 16.425781 -3.820312 14.101562 -4.78125 11.90625 -5.96875 C 9.707031 -7.15625 7.847656 -8.828125 6.328125 -10.984375 C 4.609375 -13.222656 3.132812 -15.664062 1.90625 -18.3125 C 0.675781 -20.96875 0.0195312 -23.769531 -0.0625 -26.71875 C -0.132812 -29.65625 0.289062 -32.40625 1.21875 -34.96875 C 2.144531 -37.539062 3.390625 -39.941406 4.953125 -42.171875 C 6.515625 -44.398438 8.332031 -46.460938 10.40625 -48.359375 C 12.476562 -50.265625 14.679688 -52.023438 17.015625 -53.640625 Z M 44.953125 -13.828125 C 43.835938 -26.484375 42.429688 -39.164062 40.734375 -51.875 C 37.597656 -51.800781 34.546875 -50.988281 31.578125 -49.4375 C 28.617188 -47.894531 25.9375 -46.207031 23.53125 -44.375 C 22.195312 -43.394531 20.75 -42.285156 19.1875 -41.046875 C 17.625 -39.816406 16.21875 -38.457031 14.96875 -36.96875 C 13.71875 -35.476562 12.738281 -33.890625 12.03125 -32.203125 C 11.320312 -30.523438 11.050781 -28.742188 11.21875 -26.859375 C 11.46875 -25.160156 12.003906 -23.367188 12.828125 -21.484375 C 13.660156 -19.609375 14.695312 -18.101562 15.9375 -16.96875 C 17.175781 -15.851562 18.53125 -15.046875 20 -14.546875 C 21.476562 -14.054688 23.039062 -13.691406 24.6875 -13.453125 C 26.601562 -13.234375 28.441406 -13.15625 30.203125 -13.21875 C 31.960938 -13.28125 33.789062 -13.347656 35.6875 -13.421875 C 37.195312 -13.554688 38.710938 -13.617188 40.234375 -13.609375 C 41.765625 -13.609375 43.335938 -13.679688 44.953125 -13.828125 Z M 44.953125 -13.828125 "/></g></g></g><g fill="#000000" fill-opacity="1"><g transform="translate(670.845994, 154.363166)"><g><path d="M 5.78125 -55.953125 C 7.375 -58.566406 9.335938 -60.925781 11.671875 -63.03125 C 14.015625 -65.144531 16.554688 -66.867188 19.296875 -68.203125 C 22.035156 -69.546875 24.914062 -70.375 27.9375 -70.6875 C 30.96875 -71 34.039062 -70.675781 37.15625 -69.71875 C 40.195312 -68.832031 42.984375 -67.523438 45.515625 -65.796875 C 48.046875 -64.066406 50.109375 -61.75 51.703125 -58.84375 C 52.941406 -56.664062 53.773438 -54.257812 54.203125 -51.625 C 54.628906 -48.988281 54.128906 -46.519531 52.703125 -44.21875 C 51.460938 -42.101562 49.867188 -40.4375 47.921875 -39.21875 C 45.972656 -38.007812 43.863281 -37.066406 41.59375 -36.390625 C 39.320312 -35.710938 36.976562 -35.265625 34.5625 -35.046875 C 32.15625 -34.835938 29.863281 -34.6875 27.6875 -34.59375 C 25.21875 -34.46875 22.765625 -34.441406 20.328125 -34.515625 C 17.890625 -34.585938 15.429688 -34.65625 12.953125 -34.71875 C 14.078125 -30.53125 15.921875 -26.878906 18.484375 -23.765625 C 21.046875 -20.660156 24.34375 -18.425781 28.375 -17.0625 C 29.4375 -16.78125 30.257812 -16.570312 30.84375 -16.4375 C 31.132812 -16.363281 31.398438 -16.3125 31.640625 -16.28125 C 31.890625 -16.257812 32.15625 -16.257812 32.4375 -16.28125 C 33.195312 -16.25 33.835938 -16.234375 34.359375 -16.234375 C 34.890625 -16.234375 35.390625 -16.300781 35.859375 -16.4375 C 36.515625 -16.59375 36.953125 -16.703125 37.171875 -16.765625 C 37.398438 -16.835938 37.648438 -16.9375 37.921875 -17.0625 C 38.953125 -17.4375 39.851562 -17.847656 40.625 -18.296875 C 41.394531 -18.742188 42.304688 -19.441406 43.359375 -20.390625 C 43.898438 -20.910156 44.597656 -21.6875 45.453125 -22.71875 C 46.304688 -23.75 47.035156 -24.664062 47.640625 -25.46875 C 48.460938 -26.875 49.535156 -27.875 50.859375 -28.46875 C 52.191406 -29.070312 53.601562 -29.003906 55.09375 -28.265625 C 56.394531 -27.628906 57.375 -26.554688 58.03125 -25.046875 C 58.6875 -23.535156 58.597656 -22.070312 57.765625 -20.65625 C 55.347656 -16.738281 52.382812 -13.3125 48.875 -10.375 C 45.375 -7.4375 41.222656 -5.664062 36.421875 -5.0625 C 32.554688 -4.53125 28.757812 -4.882812 25.03125 -6.125 C 21.3125 -7.375 17.960938 -9.195312 14.984375 -11.59375 C 11.285156 -14.613281 8.253906 -18.207031 5.890625 -22.375 C 3.523438 -26.550781 2.050781 -30.898438 1.46875 -35.421875 C 0.550781 -36.003906 -0.15625 -36.769531 -0.65625 -37.71875 C -1.164062 -38.675781 -1.398438 -39.6875 -1.359375 -40.75 C -1.316406 -41.8125 -1.050781 -42.8125 -0.5625 -43.75 C -0.0703125 -44.695312 0.734375 -45.363281 1.859375 -45.75 C 2.578125 -49.34375 3.882812 -52.742188 5.78125 -55.953125 Z M 40.140625 -55.53125 C 38.972656 -56.78125 37.257812 -57.820312 35 -58.65625 C 33.132812 -59.257812 30.992188 -59.453125 28.578125 -59.234375 C 26.171875 -59.023438 24.148438 -58.421875 22.515625 -57.421875 C 20.441406 -56.203125 18.632812 -54.59375 17.09375 -52.59375 C 15.550781 -50.59375 14.367188 -48.414062 13.546875 -46.0625 C 15.828125 -45.96875 18.113281 -45.878906 20.40625 -45.796875 C 22.707031 -45.722656 24.988281 -45.738281 27.25 -45.84375 C 28.488281 -45.945312 29.71875 -46.050781 30.9375 -46.15625 C 32.164062 -46.269531 33.398438 -46.425781 34.640625 -46.625 C 35.003906 -46.65625 35.347656 -46.707031 35.671875 -46.78125 C 36.003906 -46.863281 36.363281 -46.921875 36.75 -46.953125 C 37.582031 -47.210938 38.207031 -47.382812 38.625 -47.46875 C 39.050781 -47.5625 39.488281 -47.71875 39.9375 -47.9375 C 40.3125 -48.070312 40.773438 -48.257812 41.328125 -48.5 C 41.785156 -48.726562 42.054688 -48.894531 42.140625 -49 C 42.222656 -49.101562 42.359375 -49.210938 42.546875 -49.328125 L 42.8125 -51.0625 C 42.582031 -51.414062 42.429688 -51.757812 42.359375 -52.09375 C 42.285156 -52.425781 42.144531 -52.722656 41.9375 -52.984375 C 41.8125 -53.253906 41.554688 -53.660156 41.171875 -54.203125 C 40.796875 -54.742188 40.453125 -55.1875 40.140625 -55.53125 Z M 40.140625 -55.53125 "/></g></g></g><g fill="#000000" fill-opacity="1"><g transform="translate(29.225879, 393.20519)"><g/></g></g><g fill="#000000" fill-opacity="1"><g transform="translate(79.271059, 388.806026)"><g><path d="M 5.390625 -112.640625 C 7.097656 -112.796875 8.472656 -112.347656 9.515625 -111.296875 C 10.554688 -110.242188 11.238281 -108.96875 11.5625 -107.46875 C 13.289062 -98.570312 14.597656 -89.640625 15.484375 -80.671875 C 16.367188 -71.703125 17.039062 -62.710938 17.5 -53.703125 C 17.96875 -44.691406 18.257812 -35.664062 18.375 -26.625 C 18.5 -17.582031 18.617188 -8.582031 18.734375 0.375 C 18.691406 1.976562 18.222656 3.367188 17.328125 4.546875 C 16.429688 5.722656 15.179688 6.378906 13.578125 6.515625 C 12.148438 6.640625 10.773438 6.210938 9.453125 5.234375 C 8.140625 4.253906 7.457031 2.960938 7.40625 1.359375 C 7.28125 -7.585938 7.175781 -16.582031 7.09375 -25.625 C 7.019531 -34.675781 6.753906 -43.707031 6.296875 -52.71875 C 5.835938 -61.726562 5.164062 -70.71875 4.28125 -79.6875 C 3.394531 -88.65625 2.09375 -97.585938 0.375 -106.484375 C 0.0390625 -107.984375 0.4375 -109.351562 1.5625 -110.59375 C 2.695312 -111.832031 3.972656 -112.515625 5.390625 -112.640625 Z M 5.390625 -112.640625 "/></g></g></g><g fill="#000000" fill-opacity="1"><g transform="translate(114.841278, 385.679266)"><g><path d="M 16.25 -5.28125 C 12.90625 -6.425781 10.203125 -8.164062 8.140625 -10.5 C 6.078125 -12.84375 4.554688 -15.492188 3.578125 -18.453125 C 2.609375 -21.421875 2.125 -24.546875 2.125 -27.828125 C 2.125 -31.117188 2.507812 -34.328125 3.28125 -37.453125 C 3.925781 -39.878906 4.679688 -42.414062 5.546875 -45.0625 C 6.410156 -47.707031 7.5 -50.1875 8.8125 -52.5 C 10.132812 -54.8125 11.769531 -56.835938 13.71875 -58.578125 C 15.664062 -60.316406 18.035156 -61.550781 20.828125 -62.28125 C 23.710938 -63.007812 26.648438 -63.429688 29.640625 -63.546875 C 32.628906 -63.671875 35.609375 -63.617188 38.578125 -63.390625 C 39.929688 -63.328125 41.238281 -63.132812 42.5 -62.8125 C 43.769531 -62.5 45.035156 -62.164062 46.296875 -61.8125 C 46.265625 -63.226562 46.796875 -64.460938 47.890625 -65.515625 C 48.992188 -66.566406 50.207031 -67.148438 51.53125 -67.265625 C 53.132812 -67.398438 54.484375 -66.96875 55.578125 -65.96875 C 56.671875 -64.96875 57.378906 -63.722656 57.703125 -62.234375 C 58.546875 -57.929688 59.132812 -53.601562 59.46875 -49.25 C 59.800781 -44.894531 60.039062 -40.53125 60.1875 -36.15625 C 60.34375 -31.789062 60.539062 -27.425781 60.78125 -23.0625 C 61.019531 -18.695312 61.425781 -14.351562 62 -10.03125 C 62.257812 -8.238281 61.832031 -6.835938 60.71875 -5.828125 C 59.613281 -4.828125 58.351562 -4.265625 56.9375 -4.140625 C 55.519531 -4.015625 54.179688 -4.347656 52.921875 -5.140625 C 51.660156 -5.941406 50.898438 -7.238281 50.640625 -9.03125 C 45.453125 -6.289062 39.847656 -4.488281 33.828125 -3.625 C 27.804688 -2.757812 21.945312 -3.3125 16.25 -5.28125 Z M 14.546875 -36.140625 C 14.128906 -34.390625 13.773438 -32.40625 13.484375 -30.1875 C 13.203125 -27.976562 13.242188 -25.882812 13.609375 -23.90625 C 13.972656 -21.9375 14.75 -20.171875 15.9375 -18.609375 C 17.125 -17.046875 18.925781 -16.046875 21.34375 -15.609375 C 26.300781 -14.503906 31.1875 -14.5 36 -15.59375 C 40.8125 -16.6875 45.222656 -18.796875 49.234375 -21.921875 C 49.203125 -26.578125 49.109375 -31.085938 48.953125 -35.453125 C 48.804688 -39.828125 48.492188 -44.226562 48.015625 -48.65625 C 46.328125 -49.5625 44.617188 -50.335938 42.890625 -50.984375 C 41.171875 -51.640625 39.300781 -52.03125 37.28125 -52.15625 C 35.269531 -52.257812 33.144531 -52.28125 30.90625 -52.21875 C 28.675781 -52.164062 26.53125 -51.957031 24.46875 -51.59375 C 24.28125 -51.570312 23.796875 -51.410156 23.015625 -51.109375 C 22.234375 -50.804688 21.800781 -50.601562 21.71875 -50.5 C 20.8125 -49.9375 20.023438 -49.109375 19.359375 -48.015625 C 18.285156 -46.191406 17.359375 -44.269531 16.578125 -42.25 C 15.804688 -40.226562 15.128906 -38.191406 14.546875 -36.140625 Z M 14.546875 -36.140625 "/></g></g></g><g fill="#000000" fill-opacity="1"><g transform="translate(190.400215, 379.037344)"><g/></g></g><g fill="#000000" fill-opacity="1"><g transform="translate(240.434438, 374.639143)"><g><path d="M 8.265625 -3.578125 C 6.890625 -3.941406 5.691406 -4.769531 4.671875 -6.0625 C 3.660156 -7.351562 3.378906 -8.734375 3.828125 -10.203125 C 5.035156 -14.785156 5.722656 -19.367188 5.890625 -23.953125 C 6.066406 -28.535156 6.039062 -33.203125 5.8125 -37.953125 C 5.78125 -39.378906 5.703125 -40.773438 5.578125 -42.140625 C 5.460938 -43.515625 5.390625 -44.914062 5.359375 -46.34375 C 4.972656 -47.445312 4.976562 -48.539062 5.375 -49.625 C 5.3125 -52.382812 5.25 -55.164062 5.1875 -57.96875 C 5.125 -60.78125 5.164062 -63.570312 5.3125 -66.34375 C 5.414062 -70.539062 5.546875 -74.71875 5.703125 -78.875 C 5.867188 -83.03125 5.863281 -87.25 5.6875 -91.53125 C 5.53125 -95.414062 5.398438 -99.28125 5.296875 -103.125 C 5.191406 -106.976562 5.835938 -110.726562 7.234375 -114.375 C 7.929688 -116.070312 8.984375 -117.097656 10.390625 -117.453125 C 11.796875 -117.804688 13.140625 -117.679688 14.421875 -117.078125 C 15.710938 -116.484375 16.726562 -115.503906 17.46875 -114.140625 C 18.207031 -112.773438 18.222656 -111.253906 17.515625 -109.578125 C 16.898438 -107.898438 16.523438 -106.195312 16.390625 -104.46875 C 16.253906 -102.738281 16.242188 -100.972656 16.359375 -99.171875 C 16.472656 -97.378906 16.609375 -95.582031 16.765625 -93.78125 C 16.921875 -91.988281 17.023438 -90.238281 17.078125 -88.53125 C 16.984375 -84.226562 16.882812 -79.953125 16.78125 -75.703125 C 16.675781 -71.453125 16.578125 -67.179688 16.484375 -62.890625 C 20.273438 -65.222656 24.570312 -66.695312 29.375 -67.3125 C 33.15625 -67.738281 37.066406 -67.4375 41.109375 -66.40625 C 45.148438 -65.382812 48.535156 -63.46875 51.265625 -60.65625 C 52.835938 -58.988281 54.140625 -57.125 55.171875 -55.0625 C 56.210938 -53.007812 57.097656 -50.847656 57.828125 -48.578125 C 58.554688 -46.316406 59.113281 -44.035156 59.5 -41.734375 C 59.882812 -39.429688 60.265625 -37.207031 60.640625 -35.0625 C 61.328125 -30.632812 61.835938 -26.222656 62.171875 -21.828125 C 62.503906 -17.429688 62.773438 -12.953125 62.984375 -8.390625 C 63.140625 -6.597656 62.640625 -5.195312 61.484375 -4.1875 C 60.335938 -3.1875 59.054688 -2.625 57.640625 -2.5 C 56.222656 -2.375 54.90625 -2.707031 53.6875 -3.5 C 52.476562 -4.300781 51.84375 -5.601562 51.78125 -7.40625 C 51.550781 -11.207031 51.316406 -15 51.078125 -18.78125 C 50.835938 -22.5625 50.457031 -26.34375 49.9375 -30.125 C 49.570312 -31.988281 49.253906 -33.910156 48.984375 -35.890625 C 48.722656 -37.867188 48.316406 -39.832031 47.765625 -41.78125 C 47.492188 -42.707031 47.25 -43.613281 47.03125 -44.5 C 46.8125 -45.382812 46.519531 -46.285156 46.15625 -47.203125 C 46 -47.953125 45.691406 -48.738281 45.234375 -49.5625 C 44.867188 -50.382812 44.640625 -50.835938 44.546875 -50.921875 C 44.328125 -51.191406 44.15625 -51.4375 44.03125 -51.65625 C 43.914062 -51.882812 43.753906 -52.140625 43.546875 -52.421875 C 42.617188 -53.296875 42.054688 -53.769531 41.859375 -53.84375 C 41.460938 -54.09375 41.113281 -54.269531 40.8125 -54.375 C 40.507812 -54.488281 40.210938 -54.632812 39.921875 -54.8125 C 38.816406 -55.28125 37.582031 -55.644531 36.21875 -55.90625 C 34.863281 -56.175781 33.578125 -56.253906 32.359375 -56.140625 C 29.128906 -56.046875 26.175781 -55.210938 23.5 -53.640625 C 20.832031 -52.078125 18.53125 -49.832031 16.59375 -46.90625 C 16.976562 -40.351562 17.210938 -33.867188 17.296875 -27.453125 C 17.390625 -21.035156 16.578125 -14.601562 14.859375 -8.15625 C 14.503906 -6.707031 13.722656 -5.5 12.515625 -4.53125 C 11.316406 -3.5625 9.898438 -3.242188 8.265625 -3.578125 Z M 8.265625 -3.578125 "/></g></g></g><g fill="#000000" fill-opacity="1"><g transform="translate(315.567973, 368.034615)"><g><path d="M 6.53125 -2 C 6.894531 -6.601562 7.378906 -11.148438 7.984375 -15.640625 C 8.585938 -20.128906 8.925781 -24.660156 9 -29.234375 C 8.988281 -33.703125 8.675781 -38.078125 8.0625 -42.359375 C 7.445312 -46.640625 7.328125 -51.035156 7.703125 -55.546875 C 7.753906 -57.078125 8.523438 -58.285156 10.015625 -59.171875 C 11.515625 -60.066406 12.9375 -60.382812 14.28125 -60.125 C 15.9375 -59.800781 17.128906 -59.003906 17.859375 -57.734375 C 18.585938 -56.460938 18.921875 -55.0625 18.859375 -53.53125 C 18.679688 -51.320312 18.710938 -49.082031 18.953125 -46.8125 C 19.203125 -44.550781 19.472656 -42.296875 19.765625 -40.046875 C 20.148438 -35.679688 20.253906 -31.300781 20.078125 -26.90625 C 19.910156 -22.320312 19.566406 -17.816406 19.046875 -13.390625 C 18.523438 -8.960938 18.085938 -4.492188 17.734375 0.015625 C 17.578125 1.554688 16.773438 2.769531 15.328125 3.65625 C 13.878906 4.539062 12.472656 4.851562 11.109375 4.59375 C 9.460938 4.269531 8.25 3.472656 7.46875 2.203125 C 6.695312 0.941406 6.382812 -0.457031 6.53125 -2 Z M 7.609375 -67.84375 C 6.941406 -67.957031 6.253906 -68.195312 5.546875 -68.5625 C 4.835938 -68.9375 4.320312 -69.445312 4 -70.09375 C 3.644531 -70.820312 3.347656 -71.457031 3.109375 -72 C 2.867188 -72.550781 2.710938 -73.207031 2.640625 -73.96875 C 2.566406 -74.820312 2.632812 -75.679688 2.84375 -76.546875 C 3.082031 -78.296875 3.726562 -79.59375 4.78125 -80.4375 C 5.125 -81.03125 5.609375 -81.503906 6.234375 -81.859375 C 7.222656 -82.617188 8.375 -83.078125 9.6875 -83.234375 C 11.007812 -83.398438 12.222656 -83.148438 13.328125 -82.484375 C 13.828125 -82.140625 14.332031 -81.773438 14.84375 -81.390625 C 15.363281 -81.015625 15.789062 -80.507812 16.125 -79.875 C 16.351562 -79.414062 16.613281 -78.910156 16.90625 -78.359375 C 17.195312 -77.816406 17.316406 -77.257812 17.265625 -76.6875 C 17.222656 -76.007812 17.179688 -75.382812 17.140625 -74.8125 C 17.097656 -74.238281 16.910156 -73.691406 16.578125 -73.171875 C 16.160156 -72.484375 15.820312 -71.984375 15.5625 -71.671875 C 15.3125 -71.367188 14.875 -70.945312 14.25 -70.40625 C 13.894531 -70 13.347656 -69.664062 12.609375 -69.40625 C 10.722656 -68.101562 9.054688 -67.582031 7.609375 -67.84375 Z M 7.609375 -67.84375 "/></g></g></g><g fill="#000000" fill-opacity="1"><g transform="translate(353.265231, 364.72088)"><g><path d="M 9 -32.5 C 6.382812 -34.09375 4.4375 -36.191406 3.15625 -38.796875 C 1.882812 -41.398438 1.585938 -44.25 2.265625 -47.34375 C 2.972656 -50.175781 4.222656 -52.765625 6.015625 -55.109375 C 7.816406 -57.460938 9.9375 -59.410156 12.375 -60.953125 C 15.070312 -62.722656 17.988281 -64.171875 21.125 -65.296875 C 24.257812 -66.429688 27.476562 -67.191406 30.78125 -67.578125 C 34.082031 -67.960938 37.394531 -67.945312 40.71875 -67.53125 C 44.039062 -67.113281 47.234375 -66.273438 50.296875 -65.015625 C 51.984375 -64.296875 52.984375 -63.234375 53.296875 -61.828125 C 53.617188 -60.429688 53.476562 -59.085938 52.875 -57.796875 C 52.269531 -56.503906 51.28125 -55.515625 49.90625 -54.828125 C 48.539062 -54.140625 47.019531 -54.148438 45.34375 -54.859375 C 42.96875 -55.890625 40.34375 -56.46875 37.46875 -56.59375 C 34.59375 -56.726562 31.726562 -56.5 28.875 -55.90625 C 26.03125 -55.320312 23.378906 -54.347656 20.921875 -52.984375 C 18.472656 -51.628906 16.472656 -49.984375 14.921875 -48.046875 C 14.484375 -47.535156 14.203125 -47.175781 14.078125 -46.96875 C 13.960938 -46.769531 13.796875 -46.320312 13.578125 -45.625 L 13.421875 -44.03125 C 13.785156 -43.21875 14.066406 -42.726562 14.265625 -42.5625 C 16.265625 -41.476562 18.289062 -40.863281 20.34375 -40.71875 C 22.40625 -40.582031 24.484375 -40.554688 26.578125 -40.640625 C 29.535156 -40.703125 32.550781 -40.796875 35.625 -40.921875 C 38.707031 -41.054688 41.71875 -40.914062 44.65625 -40.5 C 47.601562 -40.09375 50.367188 -39.238281 52.953125 -37.9375 C 55.546875 -36.644531 57.828125 -34.609375 59.796875 -31.828125 C 61.984375 -28.691406 63.15625 -25.34375 63.3125 -21.78125 C 63.476562 -18.21875 62.363281 -14.90625 59.96875 -11.84375 C 57.570312 -8.769531 54.675781 -6.535156 51.28125 -5.140625 C 47.882812 -3.742188 44.410156 -2.65625 40.859375 -1.875 C 37.671875 -1.21875 34.34375 -0.832031 30.875 -0.71875 C 27.414062 -0.601562 24.054688 -0.851562 20.796875 -1.46875 C 17.546875 -2.09375 14.46875 -3.203125 11.5625 -4.796875 C 8.664062 -6.398438 6.191406 -8.640625 4.140625 -11.515625 C 3.148438 -12.953125 2.878906 -14.378906 3.328125 -15.796875 C 3.773438 -17.222656 4.554688 -18.335938 5.671875 -19.140625 C 6.796875 -19.953125 8.097656 -20.328125 9.578125 -20.265625 C 11.054688 -20.210938 12.335938 -19.472656 13.421875 -18.046875 C 14.929688 -15.984375 16.914062 -14.488281 19.375 -13.5625 C 21.84375 -12.644531 24.488281 -12.09375 27.3125 -11.90625 C 30.144531 -11.726562 32.96875 -11.878906 35.78125 -12.359375 C 38.601562 -12.847656 41.125 -13.425781 43.34375 -14.09375 C 44.550781 -14.476562 45.769531 -14.988281 47 -15.625 C 48.226562 -16.257812 49.257812 -16.992188 50.09375 -17.828125 C 50.925781 -18.660156 51.488281 -19.59375 51.78125 -20.625 C 52.070312 -21.65625 51.925781 -22.757812 51.34375 -23.9375 C 50.1875 -26.21875 48.453125 -27.78125 46.140625 -28.625 C 43.828125 -29.476562 41.429688 -29.890625 38.953125 -29.859375 C 36.484375 -29.828125 33.972656 -29.695312 31.421875 -29.46875 C 28.867188 -29.25 26.304688 -29.144531 23.734375 -29.15625 C 21.160156 -29.164062 18.613281 -29.394531 16.09375 -29.84375 C 13.582031 -30.300781 11.21875 -31.1875 9 -32.5 Z M 9 -32.5 "/></g></g></g><g fill="#000000" fill-opacity="1"><g transform="translate(427.406139, 358.203608)"><g><path d="M 45.15625 -53.84375 C 46.945312 -54.007812 48.335938 -53.5625 49.328125 -52.5 C 50.328125 -51.445312 50.890625 -50.210938 51.015625 -48.796875 C 51.140625 -47.378906 50.804688 -46.039062 50.015625 -44.78125 C 49.222656 -43.519531 47.929688 -42.804688 46.140625 -42.640625 C 43.867188 -42.347656 41.613281 -42.171875 39.375 -42.109375 C 37.144531 -42.054688 34.929688 -42.023438 32.734375 -42.015625 C 33.484375 -34.566406 34.019531 -27.09375 34.34375 -19.59375 C 34.664062 -12.101562 34.546875 -4.609375 33.984375 2.890625 C 33.929688 4.492188 33.179688 5.738281 31.734375 6.625 C 30.285156 7.519531 28.832031 7.800781 27.375 7.46875 C 25.726562 7.125 24.539062 6.34375 23.8125 5.125 C 23.09375 3.90625 22.800781 2.472656 22.9375 0.828125 C 23.4375 -6.441406 23.441406 -13.675781 22.953125 -20.875 C 22.460938 -28.082031 21.804688 -35.3125 20.984375 -42.5625 C 17.335938 -42.820312 13.640625 -43.09375 9.890625 -43.375 C 6.148438 -43.664062 2.46875 -43.890625 -1.15625 -44.046875 C -2.78125 -44.097656 -4.015625 -44.875 -4.859375 -46.375 C -5.703125 -47.875 -6 -49.300781 -5.75 -50.65625 C -5.40625 -52.300781 -4.597656 -53.488281 -3.328125 -54.21875 C -2.066406 -54.945312 -0.671875 -55.285156 0.859375 -55.234375 C 4.015625 -55.035156 7.175781 -54.8125 10.34375 -54.5625 C 13.507812 -54.320312 16.722656 -54.101562 19.984375 -53.90625 C 19.847656 -54.375 19.738281 -55.082031 19.65625 -56.03125 C 18.90625 -64.539062 18.140625 -72.945312 17.359375 -81.25 C 16.585938 -89.5625 16.253906 -98.015625 16.359375 -106.609375 C 16.410156 -108.140625 16.878906 -109.515625 17.765625 -110.734375 C 18.660156 -111.960938 19.910156 -112.644531 21.515625 -112.78125 C 22.941406 -112.90625 24.34375 -112.457031 25.71875 -111.4375 C 27.09375 -110.414062 27.753906 -109.132812 27.703125 -107.59375 C 27.546875 -98.445312 27.882812 -89.40625 28.71875 -80.46875 C 29.550781 -71.539062 30.46875 -62.503906 31.46875 -53.359375 C 33.75 -53.367188 36.03125 -53.398438 38.3125 -53.453125 C 40.601562 -53.515625 42.882812 -53.644531 45.15625 -53.84375 Z M 45.15625 -53.84375 "/></g></g></g><g fill="#000000" fill-opacity="1"><g transform="translate(488.926504, 352.795731)"><g><path d="M 35.234375 -68.984375 C 38.222656 -69.617188 41.375 -70.007812 44.6875 -70.15625 C 48.007812 -70.3125 51.226562 -70.023438 54.34375 -69.296875 C 57.457031 -68.578125 60.332031 -67.328125 62.96875 -65.546875 C 65.601562 -63.773438 67.722656 -61.34375 69.328125 -58.25 C 70.472656 -56.070312 71.171875 -53.820312 71.421875 -51.5 C 71.671875 -49.1875 71.535156 -46.929688 71.015625 -44.734375 C 70.492188 -42.546875 69.632812 -40.425781 68.4375 -38.375 C 67.238281 -36.320312 65.8125 -34.410156 64.15625 -32.640625 C 60.582031 -28.804688 56.582031 -25.453125 52.15625 -22.578125 C 47.738281 -19.710938 43.035156 -17.394531 38.046875 -15.625 C 35.929688 -14.875 33.734375 -14.1875 31.453125 -13.5625 C 29.179688 -12.9375 26.863281 -12.519531 24.5 -12.3125 C 22.132812 -12.101562 19.796875 -12.15625 17.484375 -12.46875 C 15.171875 -12.789062 12.960938 -13.476562 10.859375 -14.53125 C 9.378906 -15.25 8.429688 -16.304688 8.015625 -17.703125 C 7.316406 -19.265625 6.570312 -20.722656 5.78125 -22.078125 C 4.988281 -23.429688 4.21875 -24.835938 3.46875 -26.296875 C 2.726562 -27.765625 2.101562 -29.238281 1.59375 -30.71875 C 1.082031 -32.195312 0.753906 -33.738281 0.609375 -35.34375 C 0.328125 -38.5625 0.742188 -41.671875 1.859375 -44.671875 C 2.972656 -47.679688 4.617188 -50.375 6.796875 -52.75 C 10.429688 -56.882812 14.75 -60.3125 19.75 -63.03125 C 24.757812 -65.757812 29.921875 -67.742188 35.234375 -68.984375 Z M 52.328125 -58.1875 C 49.691406 -58.90625 46.910156 -59.132812 43.984375 -58.875 C 40.847656 -58.695312 37.75 -58.113281 34.6875 -57.125 C 31.632812 -56.144531 28.742188 -54.921875 26.015625 -53.453125 C 23.460938 -52.171875 20.875 -50.484375 18.25 -48.390625 C 15.625 -46.304688 13.769531 -43.882812 12.6875 -41.125 C 12.050781 -39.644531 11.816406 -38.171875 11.984375 -36.703125 C 12.160156 -35.242188 12.523438 -33.800781 13.078125 -32.375 C 13.640625 -30.945312 14.335938 -29.53125 15.171875 -28.125 C 16.003906 -26.71875 16.769531 -25.332031 17.46875 -23.96875 C 19.019531 -23.726562 19.984375 -23.625 20.359375 -23.65625 C 20.554688 -23.582031 20.796875 -23.554688 21.078125 -23.578125 C 21.359375 -23.609375 21.59375 -23.628906 21.78125 -23.640625 C 23.6875 -23.617188 25.382812 -23.816406 26.875 -24.234375 C 27.925781 -24.328125 29.234375 -24.628906 30.796875 -25.140625 C 33.210938 -25.828125 35.519531 -26.671875 37.71875 -27.671875 C 39.914062 -28.679688 41.921875 -29.738281 43.734375 -30.84375 C 45.804688 -32.082031 47.828125 -33.40625 49.796875 -34.8125 C 51.773438 -36.226562 53.421875 -37.660156 54.734375 -39.109375 C 55.585938 -40.035156 56.398438 -41.015625 57.171875 -42.046875 C 57.609375 -42.554688 57.910156 -42.957031 58.078125 -43.25 C 58.484375 -43.945312 58.8125 -44.472656 59.0625 -44.828125 C 59.320312 -45.191406 59.523438 -45.625 59.671875 -46.125 C 59.992188 -46.8125 60.140625 -47.347656 60.109375 -47.734375 C 60.191406 -47.929688 60.242188 -48.171875 60.265625 -48.453125 C 60.285156 -48.742188 60.332031 -48.984375 60.40625 -49.171875 L 60.265625 -50.734375 C 60.140625 -51.117188 60.066406 -51.40625 60.046875 -51.59375 C 60.035156 -51.78125 59.972656 -51.960938 59.859375 -52.140625 C 59.515625 -52.765625 59.207031 -53.234375 58.9375 -53.546875 C 58.675781 -53.859375 58.394531 -54.191406 58.09375 -54.546875 C 58.195312 -54.460938 58.0625 -54.59375 57.6875 -54.9375 C 57.320312 -55.289062 57.09375 -55.507812 57 -55.59375 L 55.75 -56.625 C 55.25 -56.863281 54.695312 -57.144531 54.09375 -57.46875 C 53.5 -57.800781 52.910156 -58.039062 52.328125 -58.1875 Z M 52.328125 -58.1875 "/></g></g></g><g fill="#000000" fill-opacity="1"><g transform="translate(571.575606, 345.530556)"><g><path d="M 3.296875 -58.453125 C 3.234375 -60.253906 3.773438 -61.65625 4.921875 -62.65625 C 6.066406 -63.664062 7.347656 -64.234375 8.765625 -64.359375 C 10.191406 -64.484375 11.484375 -64.144531 12.640625 -63.34375 C 13.804688 -62.539062 14.421875 -61.238281 14.484375 -59.4375 C 14.535156 -58.863281 14.5625 -58.265625 14.5625 -57.640625 C 14.570312 -57.023438 14.601562 -56.4375 14.65625 -55.875 C 17.5625 -57.65625 20.640625 -59.234375 23.890625 -60.609375 C 27.148438 -61.984375 30.441406 -62.960938 33.765625 -63.546875 C 37.097656 -64.128906 40.382812 -64.160156 43.625 -63.640625 C 46.875 -63.117188 49.921875 -61.835938 52.765625 -59.796875 C 54.179688 -58.679688 54.878906 -57.410156 54.859375 -55.984375 C 54.847656 -54.554688 54.390625 -53.300781 53.484375 -52.21875 C 52.585938 -51.144531 51.390625 -50.421875 49.890625 -50.046875 C 48.398438 -49.671875 46.90625 -49.984375 45.40625 -50.984375 C 44.269531 -51.753906 43.046875 -52.269531 41.734375 -52.53125 C 40.429688 -52.800781 39.050781 -52.847656 37.59375 -52.671875 C 36.132812 -52.492188 34.679688 -52.195312 33.234375 -51.78125 C 31.796875 -51.375 30.4375 -50.921875 29.15625 -50.421875 C 24.28125 -48.378906 19.785156 -45.84375 15.671875 -42.8125 C 16.265625 -38.207031 16.957031 -33.597656 17.75 -28.984375 C 18.46875 -25.148438 19.148438 -21.1875 19.796875 -17.09375 C 20.441406 -13.007812 21.582031 -9.179688 23.21875 -5.609375 C 23.9375 -3.960938 23.945312 -2.515625 23.25 -1.265625 C 22.550781 -0.015625 21.535156 0.859375 20.203125 1.359375 C 18.867188 1.859375 17.441406 1.890625 15.921875 1.453125 C 14.398438 1.023438 13.285156 -0.015625 12.578125 -1.671875 C 11.617188 -3.785156 10.894531 -5.960938 10.40625 -8.203125 C 9.925781 -10.441406 9.445312 -12.6875 8.96875 -14.9375 C 8.601562 -17.09375 8.203125 -19.269531 7.765625 -21.46875 C 7.328125 -23.675781 6.921875 -25.851562 6.546875 -28 C 5.617188 -33.0625 4.859375 -38.117188 4.265625 -43.171875 C 3.679688 -48.222656 3.359375 -53.316406 3.296875 -58.453125 Z M 3.296875 -58.453125 "/></g></g></g><g fill="#000000" fill-opacity="1"><g transform="translate(636.073845, 339.860912)"><g><path d="M 6.53125 -2 C 6.894531 -6.601562 7.378906 -11.148438 7.984375 -15.640625 C 8.585938 -20.128906 8.925781 -24.660156 9 -29.234375 C 8.988281 -33.703125 8.675781 -38.078125 8.0625 -42.359375 C 7.445312 -46.640625 7.328125 -51.035156 7.703125 -55.546875 C 7.753906 -57.078125 8.523438 -58.285156 10.015625 -59.171875 C 11.515625 -60.066406 12.9375 -60.382812 14.28125 -60.125 C 15.9375 -59.800781 17.128906 -59.003906 17.859375 -57.734375 C 18.585938 -56.460938 18.921875 -55.0625 18.859375 -53.53125 C 18.679688 -51.320312 18.710938 -49.082031 18.953125 -46.8125 C 19.203125 -44.550781 19.472656 -42.296875 19.765625 -40.046875 C 20.148438 -35.679688 20.253906 -31.300781 20.078125 -26.90625 C 19.910156 -22.320312 19.566406 -17.816406 19.046875 -13.390625 C 18.523438 -8.960938 18.085938 -4.492188 17.734375 0.015625 C 17.578125 1.554688 16.773438 2.769531 15.328125 3.65625 C 13.878906 4.539062 12.472656 4.851562 11.109375 4.59375 C 9.460938 4.269531 8.25 3.472656 7.46875 2.203125 C 6.695312 0.941406 6.382812 -0.457031 6.53125 -2 Z M 7.609375 -67.84375 C 6.941406 -67.957031 6.253906 -68.195312 5.546875 -68.5625 C 4.835938 -68.9375 4.320312 -69.445312 4 -70.09375 C 3.644531 -70.820312 3.347656 -71.457031 3.109375 -72 C 2.867188 -72.550781 2.710938 -73.207031 2.640625 -73.96875 C 2.566406 -74.820312 2.632812 -75.679688 2.84375 -76.546875 C 3.082031 -78.296875 3.726562 -79.59375 4.78125 -80.4375 C 5.125 -81.03125 5.609375 -81.503906 6.234375 -81.859375 C 7.222656 -82.617188 8.375 -83.078125 9.6875 -83.234375 C 11.007812 -83.398438 12.222656 -83.148438 13.328125 -82.484375 C 13.828125 -82.140625 14.332031 -81.773438 14.84375 -81.390625 C 15.363281 -81.015625 15.789062 -80.507812 16.125 -79.875 C 16.351562 -79.414062 16.613281 -78.910156 16.90625 -78.359375 C 17.195312 -77.816406 17.316406 -77.257812 17.265625 -76.6875 C 17.222656 -76.007812 17.179688 -75.382812 17.140625 -74.8125 C 17.097656 -74.238281 16.910156 -73.691406 16.578125 -73.171875 C 16.160156 -72.484375 15.820312 -71.984375 15.5625 -71.671875 C 15.3125 -71.367188 14.875 -70.945312 14.25 -70.40625 C 13.894531 -70 13.347656 -69.664062 12.609375 -69.40625 C 10.722656 -68.101562 9.054688 -67.582031 7.609375 -67.84375 Z M 7.609375 -67.84375 "/></g></g></g><g fill="#000000" fill-opacity="1"><g transform="translate(673.771102, 336.547177)"><g><path d="M 16.25 -5.28125 C 12.90625 -6.425781 10.203125 -8.164062 8.140625 -10.5 C 6.078125 -12.84375 4.554688 -15.492188 3.578125 -18.453125 C 2.609375 -21.421875 2.125 -24.546875 2.125 -27.828125 C 2.125 -31.117188 2.507812 -34.328125 3.28125 -37.453125 C 3.925781 -39.878906 4.679688 -42.414062 5.546875 -45.0625 C 6.410156 -47.707031 7.5 -50.1875 8.8125 -52.5 C 10.132812 -54.8125 11.769531 -56.835938 13.71875 -58.578125 C 15.664062 -60.316406 18.035156 -61.550781 20.828125 -62.28125 C 23.710938 -63.007812 26.648438 -63.429688 29.640625 -63.546875 C 32.628906 -63.671875 35.609375 -63.617188 38.578125 -63.390625 C 39.929688 -63.328125 41.238281 -63.132812 42.5 -62.8125 C 43.769531 -62.5 45.035156 -62.164062 46.296875 -61.8125 C 46.265625 -63.226562 46.796875 -64.460938 47.890625 -65.515625 C 48.992188 -66.566406 50.207031 -67.148438 51.53125 -67.265625 C 53.132812 -67.398438 54.484375 -66.96875 55.578125 -65.96875 C 56.671875 -64.96875 57.378906 -63.722656 57.703125 -62.234375 C 58.546875 -57.929688 59.132812 -53.601562 59.46875 -49.25 C 59.800781 -44.894531 60.039062 -40.53125 60.1875 -36.15625 C 60.34375 -31.789062 60.539062 -27.425781 60.78125 -23.0625 C 61.019531 -18.695312 61.425781 -14.351562 62 -10.03125 C 62.257812 -8.238281 61.832031 -6.835938 60.71875 -5.828125 C 59.613281 -4.828125 58.351562 -4.265625 56.9375 -4.140625 C 55.519531 -4.015625 54.179688 -4.347656 52.921875 -5.140625 C 51.660156 -5.941406 50.898438 -7.238281 50.640625 -9.03125 C 45.453125 -6.289062 39.847656 -4.488281 33.828125 -3.625 C 27.804688 -2.757812 21.945312 -3.3125 16.25 -5.28125 Z M 14.546875 -36.140625 C 14.128906 -34.390625 13.773438 -32.40625 13.484375 -30.1875 C 13.203125 -27.976562 13.242188 -25.882812 13.609375 -23.90625 C 13.972656 -21.9375 14.75 -20.171875 15.9375 -18.609375 C 17.125 -17.046875 18.925781 -16.046875 21.34375 -15.609375 C 26.300781 -14.503906 31.1875 -14.5 36 -15.59375 C 40.8125 -16.6875 45.222656 -18.796875 49.234375 -21.921875 C 49.203125 -26.578125 49.109375 -31.085938 48.953125 -35.453125 C 48.804688 -39.828125 48.492188 -44.226562 48.015625 -48.65625 C 46.328125 -49.5625 44.617188 -50.335938 42.890625 -50.984375 C 41.171875 -51.640625 39.300781 -52.03125 37.28125 -52.15625 C 35.269531 -52.257812 33.144531 -52.28125 30.90625 -52.21875 C 28.675781 -52.164062 26.53125 -51.957031 24.46875 -51.59375 C 24.28125 -51.570312 23.796875 -51.410156 23.015625 -51.109375 C 22.234375 -50.804688 21.800781 -50.601562 21.71875 -50.5 C 20.8125 -49.9375 20.023438 -49.109375 19.359375 -48.015625 C 18.285156 -46.191406 17.359375 -44.269531 16.578125 -42.25 C 15.804688 -40.226562 15.128906 -38.191406 14.546875 -36.140625 Z M 14.546875 -36.140625 "/></g></g></g><g fill="#000000" fill-opacity="1"><g transform="translate(749.339394, 329.904433)"><g/></g></g></g></g></g></g></g></svg>