<svg xmlns="http://www.w3.org/2000/svg" xmlns:xlink="http://www.w3.org/1999/xlink" width="1080" zoomAndPan="magnify" viewBox="0 0 810 809.999993" height="1080" preserveAspectRatio="xMidYMid meet" version="1.0"><defs><g/><clipPath id="3b1a413364"><path d="M 0.960938 0 L 675.121094 0 L 675.121094 456.960938 L 0.960938 456.960938 Z M 0.960938 0 " clip-rule="nonzero"/></clipPath><clipPath id="26b2f9e935"><rect x="0" width="676" y="0" height="457"/></clipPath><clipPath id="4be1e0e552"><rect x="0" width="676" y="0" height="457"/></clipPath><clipPath id="10d895d5f2"><path d="M 6.792969 6.792969 L 803.292969 6.792969 L 803.292969 803.292969 L 6.792969 803.292969 Z M 6.792969 6.792969 " clip-rule="nonzero"/></clipPath></defs><g transform="matrix(1, 0, 0, 1, 108, 168)"><g clip-path="url(#4be1e0e552)"><g clip-path="url(#3b1a413364)"><g transform="matrix(1, 0, 0, 1, 0, 0.000000000000056843)"><g clip-path="url(#26b2f9e935)"><g fill="#000000" fill-opacity="1"><g transform="translate(50.755076, 205.675164)"><g><path d="M -6.046875 -92.578125 C -7.609375 -92.222656 -9.046875 -92.640625 -10.359375 -93.828125 C -11.671875 -95.023438 -12.394531 -96.425781 -12.53125 -98.03125 C -12.6875 -99.71875 -12.207031 -101.132812 -11.09375 -102.28125 C -9.988281 -103.4375 -8.65625 -104.1875 -7.09375 -104.53125 C -2.125 -105.363281 2.796875 -105.992188 7.671875 -106.421875 C 12.554688 -106.847656 17.5 -107.132812 22.5 -107.28125 C 23.863281 -107.90625 25.367188 -107.929688 27.015625 -107.359375 C 36.359375 -107.492188 45.832031 -107.128906 55.4375 -106.265625 C 57.070312 -106.097656 58.351562 -105.25 59.28125 -103.71875 C 60.207031 -102.195312 60.484375 -100.71875 60.109375 -99.28125 C 59.765625 -97.550781 58.945312 -96.300781 57.65625 -95.53125 C 56.363281 -94.757812 54.867188 -94.398438 53.171875 -94.453125 C 49.316406 -94.828125 45.519531 -95.097656 41.78125 -95.265625 C 38.050781 -95.441406 34.28125 -95.507812 30.46875 -95.46875 C 29.6875 -88.375 29.476562 -81.328125 29.84375 -74.328125 C 30.207031 -67.328125 31.054688 -60.273438 32.390625 -53.171875 C 33.734375 -45.847656 35.367188 -38.632812 37.296875 -31.53125 C 39.234375 -24.425781 41.21875 -17.285156 43.25 -10.109375 C 43.695312 -8.453125 43.65625 -6.921875 43.125 -5.515625 C 42.601562 -4.117188 41.515625 -3.097656 39.859375 -2.453125 C 38.410156 -1.816406 36.878906 -1.828125 35.265625 -2.484375 C 33.648438 -3.148438 32.617188 -4.265625 32.171875 -5.828125 C 29.878906 -13.765625 27.660156 -21.628906 25.515625 -29.421875 C 23.367188 -37.222656 21.59375 -45.128906 20.1875 -53.140625 C 18.96875 -60.171875 18.203125 -67.1875 17.890625 -74.1875 C 17.578125 -81.195312 17.765625 -88.191406 18.453125 -95.171875 C 10.242188 -94.753906 2.078125 -93.890625 -6.046875 -92.578125 Z M -6.046875 -92.578125 "/></g></g></g><g fill="#000000" fill-opacity="1"><g transform="translate(114.712919, 200.053023)"><g><path d="M 6.109375 -59 C 7.785156 -61.75 9.851562 -64.234375 12.3125 -66.453125 C 14.78125 -68.679688 17.457031 -70.5 20.34375 -71.90625 C 23.226562 -73.3125 26.265625 -74.179688 29.453125 -74.515625 C 32.640625 -74.847656 35.882812 -74.507812 39.1875 -73.5 C 42.382812 -72.570312 45.316406 -71.195312 47.984375 -69.375 C 50.660156 -67.550781 52.832031 -65.109375 54.5 -62.046875 C 55.8125 -59.742188 56.691406 -57.203125 57.140625 -54.421875 C 57.585938 -51.648438 57.054688 -49.046875 55.546875 -46.609375 C 54.242188 -44.390625 52.566406 -42.632812 50.515625 -41.34375 C 48.472656 -40.050781 46.253906 -39.050781 43.859375 -38.34375 C 41.460938 -37.632812 38.992188 -37.164062 36.453125 -36.9375 C 33.910156 -36.71875 31.488281 -36.5625 29.1875 -36.46875 C 26.582031 -36.34375 23.992188 -36.3125 21.421875 -36.375 C 18.859375 -36.445312 16.269531 -36.519531 13.65625 -36.59375 C 14.851562 -32.1875 16.800781 -28.34375 19.5 -25.0625 C 22.195312 -21.789062 25.660156 -19.4375 29.890625 -18 C 31.035156 -17.6875 31.914062 -17.457031 32.53125 -17.3125 C 32.832031 -17.238281 33.109375 -17.191406 33.359375 -17.171875 C 33.609375 -17.148438 33.882812 -17.148438 34.1875 -17.171875 C 35 -17.140625 35.679688 -17.125 36.234375 -17.125 C 36.796875 -17.125 37.316406 -17.195312 37.796875 -17.34375 C 38.484375 -17.5 38.945312 -17.609375 39.1875 -17.671875 C 39.4375 -17.742188 39.707031 -17.84375 40 -17.96875 C 41.0625 -18.363281 42 -18.800781 42.8125 -19.28125 C 43.632812 -19.757812 44.597656 -20.5 45.703125 -21.5 C 46.265625 -22.050781 47 -22.867188 47.90625 -23.953125 C 48.8125 -25.035156 49.582031 -26 50.21875 -26.84375 C 51.09375 -28.34375 52.226562 -29.40625 53.625 -30.03125 C 55.03125 -30.65625 56.519531 -30.582031 58.09375 -29.8125 C 59.457031 -29.125 60.484375 -27.976562 61.171875 -26.375 C 61.867188 -24.78125 61.78125 -23.25 60.90625 -21.78125 C 58.363281 -17.625 55.242188 -14.003906 51.546875 -10.921875 C 47.847656 -7.835938 43.460938 -5.976562 38.390625 -5.34375 C 34.328125 -4.78125 30.328125 -5.15625 26.390625 -6.46875 C 22.460938 -7.78125 18.929688 -9.703125 15.796875 -12.234375 C 11.898438 -15.410156 8.707031 -19.195312 6.21875 -23.59375 C 3.726562 -28 2.164062 -32.582031 1.53125 -37.34375 C 0.570312 -37.96875 -0.175781 -38.78125 -0.71875 -39.78125 C -1.257812 -40.789062 -1.503906 -41.847656 -1.453125 -42.953125 C -1.398438 -44.066406 -1.113281 -45.117188 -0.59375 -46.109375 C -0.0703125 -47.109375 0.769531 -47.8125 1.9375 -48.21875 C 2.707031 -52.007812 4.097656 -55.601562 6.109375 -59 Z M 42.296875 -58.5625 C 41.085938 -59.851562 39.289062 -60.945312 36.90625 -61.84375 C 34.925781 -62.46875 32.664062 -62.664062 30.125 -62.4375 C 27.59375 -62.21875 25.472656 -61.585938 23.765625 -60.546875 C 21.566406 -59.242188 19.65625 -57.539062 18.03125 -55.4375 C 16.40625 -53.34375 15.144531 -51.046875 14.25 -48.546875 C 16.675781 -48.472656 19.097656 -48.390625 21.515625 -48.296875 C 23.941406 -48.203125 26.347656 -48.210938 28.734375 -48.328125 C 30.023438 -48.441406 31.316406 -48.554688 32.609375 -48.671875 C 33.910156 -48.785156 35.210938 -48.945312 36.515625 -49.15625 C 36.910156 -49.1875 37.28125 -49.242188 37.625 -49.328125 C 37.96875 -49.410156 38.335938 -49.472656 38.734375 -49.515625 C 39.609375 -49.785156 40.269531 -49.96875 40.71875 -50.0625 C 41.164062 -50.15625 41.628906 -50.320312 42.109375 -50.5625 C 42.492188 -50.6875 42.976562 -50.875 43.5625 -51.125 C 44.039062 -51.363281 44.328125 -51.535156 44.421875 -51.640625 C 44.515625 -51.753906 44.65625 -51.875 44.84375 -52 L 45.140625 -53.828125 C 44.898438 -54.222656 44.738281 -54.585938 44.65625 -54.921875 C 44.570312 -55.265625 44.421875 -55.578125 44.203125 -55.859375 C 44.066406 -56.140625 43.796875 -56.566406 43.390625 -57.140625 C 42.992188 -57.710938 42.628906 -58.1875 42.296875 -58.5625 Z M 42.296875 -58.5625 "/></g></g></g><g fill="#000000" fill-opacity="1"><g transform="translate(187.191639, 193.681864)"><g><path d="M 3.484375 -61.625 C 3.410156 -63.519531 3.976562 -65 5.1875 -66.0625 C 6.40625 -67.125 7.757812 -67.722656 9.25 -67.859375 C 10.75 -67.992188 12.113281 -67.632812 13.34375 -66.78125 C 14.570312 -65.9375 15.21875 -64.5625 15.28125 -62.65625 C 15.332031 -62.050781 15.363281 -61.425781 15.375 -60.78125 C 15.382812 -60.132812 15.414062 -59.507812 15.46875 -58.90625 C 18.507812 -60.78125 21.75 -62.441406 25.1875 -63.890625 C 28.625 -65.347656 32.097656 -66.382812 35.609375 -67 C 39.128906 -67.613281 42.59375 -67.644531 46 -67.09375 C 49.40625 -66.539062 52.609375 -65.1875 55.609375 -63.03125 C 57.117188 -61.851562 57.867188 -60.507812 57.859375 -59 C 57.847656 -57.5 57.359375 -56.179688 56.390625 -55.046875 C 55.429688 -53.910156 54.164062 -53.144531 52.59375 -52.75 C 51.03125 -52.363281 49.445312 -52.703125 47.84375 -53.765625 C 46.675781 -54.566406 45.398438 -55.109375 44.015625 -55.390625 C 42.640625 -55.671875 41.179688 -55.71875 39.640625 -55.53125 C 38.097656 -55.34375 36.566406 -55.03125 35.046875 -54.59375 C 33.535156 -54.15625 32.09375 -53.6875 30.71875 -53.1875 C 25.59375 -51.007812 20.859375 -48.320312 16.515625 -45.125 C 17.140625 -40.269531 17.875 -35.414062 18.71875 -30.5625 C 19.46875 -26.507812 20.179688 -22.332031 20.859375 -18.03125 C 21.535156 -13.726562 22.742188 -9.691406 24.484375 -5.921875 C 25.242188 -4.179688 25.253906 -2.648438 24.515625 -1.328125 C 23.773438 -0.00390625 22.695312 0.914062 21.28125 1.4375 C 19.875 1.96875 18.367188 2 16.765625 1.53125 C 15.171875 1.0625 14.003906 -0.0351562 13.265625 -1.765625 C 12.253906 -3.984375 11.492188 -6.273438 10.984375 -8.640625 C 10.472656 -11.003906 9.96875 -13.375 9.46875 -15.75 C 9.050781 -18.019531 8.617188 -20.316406 8.171875 -22.640625 C 7.722656 -24.960938 7.300781 -27.257812 6.90625 -29.53125 C 5.925781 -34.875 5.125 -40.203125 4.5 -45.515625 C 3.882812 -50.828125 3.546875 -56.195312 3.484375 -61.625 Z M 3.484375 -61.625 "/></g></g></g><g fill="#000000" fill-opacity="1"><g transform="translate(255.185687, 187.704925)"><g><path d="M 47.59375 -56.75 C 49.476562 -56.914062 50.945312 -56.441406 52 -55.328125 C 53.0625 -54.210938 53.65625 -52.90625 53.78125 -51.40625 C 53.914062 -49.914062 53.5625 -48.503906 52.71875 -47.171875 C 51.875 -45.847656 50.507812 -45.101562 48.625 -44.9375 C 46.238281 -44.632812 43.867188 -44.453125 41.515625 -44.390625 C 39.160156 -44.335938 36.832031 -44.3125 34.53125 -44.3125 C 35.320312 -36.445312 35.890625 -28.5625 36.234375 -20.65625 C 36.578125 -12.75 36.4375 -4.851562 35.8125 3.03125 C 35.757812 4.738281 34.972656 6.0625 33.453125 7 C 31.929688 7.9375 30.398438 8.222656 28.859375 7.859375 C 27.128906 7.515625 25.878906 6.695312 25.109375 5.40625 C 24.335938 4.113281 24.03125 2.601562 24.1875 0.875 C 24.71875 -6.800781 24.722656 -14.429688 24.203125 -22.015625 C 23.691406 -29.597656 23 -37.21875 22.125 -44.875 C 18.28125 -45.144531 14.382812 -45.429688 10.4375 -45.734375 C 6.488281 -46.046875 2.597656 -46.285156 -1.234375 -46.453125 C -2.941406 -46.503906 -4.238281 -47.316406 -5.125 -48.890625 C -6.019531 -50.460938 -6.328125 -51.960938 -6.046875 -53.390625 C -5.691406 -55.140625 -4.84375 -56.398438 -3.5 -57.171875 C -2.164062 -57.941406 -0.695312 -58.296875 0.90625 -58.234375 C 4.238281 -58.015625 7.570312 -57.773438 10.90625 -57.515625 C 14.25 -57.265625 17.640625 -57.046875 21.078125 -56.859375 C 20.929688 -57.335938 20.8125 -58.078125 20.71875 -59.078125 C 19.9375 -68.046875 19.132812 -76.910156 18.3125 -85.671875 C 17.488281 -94.441406 17.128906 -103.347656 17.234375 -112.390625 C 17.296875 -114.003906 17.796875 -115.453125 18.734375 -116.734375 C 19.679688 -118.023438 21 -118.742188 22.6875 -118.890625 C 24.175781 -119.023438 25.644531 -118.550781 27.09375 -117.46875 C 28.550781 -116.394531 29.25 -115.054688 29.1875 -113.453125 C 29.039062 -103.785156 29.40625 -94.242188 30.28125 -84.828125 C 31.164062 -75.421875 32.128906 -65.894531 33.171875 -56.25 C 35.578125 -56.257812 37.984375 -56.289062 40.390625 -56.34375 C 42.796875 -56.40625 45.195312 -56.539062 47.59375 -56.75 Z M 47.59375 -56.75 "/></g></g></g><g fill="#000000" fill-opacity="1"><g transform="translate(320.040464, 182.00394)"><g><path d="M 66.078125 -58.984375 C 66.929688 -50.421875 68.28125 -41.898438 70.125 -33.421875 C 71.976562 -24.941406 74.171875 -16.601562 76.703125 -8.40625 C 77.265625 -6.539062 77.078125 -4.9375 76.140625 -3.59375 C 75.203125 -2.257812 74.050781 -1.332031 72.6875 -0.8125 C 71.332031 -0.289062 69.929688 -0.265625 68.484375 -0.734375 C 67.035156 -1.210938 66.023438 -2.378906 65.453125 -4.234375 C 63.765625 -9.804688 62.226562 -15.300781 60.84375 -20.71875 C 60.488281 -20.175781 60.179688 -19.664062 59.921875 -19.1875 C 59.660156 -18.71875 59.351562 -18.21875 59 -17.6875 C 57.21875 -15.125 55.109375 -12.851562 52.671875 -10.875 C 50.234375 -8.90625 47.585938 -7.316406 44.734375 -6.109375 C 41.878906 -4.910156 38.90625 -4.125 35.8125 -3.75 C 32.726562 -3.382812 29.660156 -3.472656 26.609375 -4.015625 C 21.191406 -5.035156 16.925781 -7.265625 13.8125 -10.703125 C 10.695312 -14.140625 8.332031 -18.175781 6.71875 -22.8125 C 5.113281 -27.445312 3.984375 -32.316406 3.328125 -37.421875 C 2.671875 -42.535156 2.101562 -47.28125 1.625 -51.65625 C 1.457031 -53.550781 1.929688 -55.023438 3.046875 -56.078125 C 4.160156 -57.140625 5.460938 -57.734375 6.953125 -57.859375 C 8.441406 -57.992188 9.851562 -57.640625 11.1875 -56.796875 C 12.53125 -55.960938 13.332031 -54.601562 13.59375 -52.71875 C 14.039062 -48.75 14.46875 -44.71875 14.875 -40.625 C 15.28125 -36.539062 16.039062 -32.738281 17.15625 -29.21875 C 17.738281 -27.269531 18.34375 -25.59375 18.96875 -24.1875 C 19.59375 -22.789062 20.519531 -21.34375 21.75 -19.84375 C 22.3125 -19.1875 22.625 -18.804688 22.6875 -18.703125 C 22.75 -18.609375 22.878906 -18.523438 23.078125 -18.453125 C 24.671875 -17.390625 25.726562 -16.753906 26.25 -16.546875 C 26.78125 -16.347656 27.398438 -16.175781 28.109375 -16.03125 C 32.398438 -15.195312 36.625 -15.691406 40.78125 -17.515625 C 44.945312 -19.335938 48.160156 -22.257812 50.421875 -26.28125 C 51.710938 -28.800781 52.613281 -31.390625 53.125 -34.046875 C 53.644531 -36.710938 53.9375 -39.378906 54 -42.046875 C 54.070312 -44.710938 54.0625 -47.421875 53.96875 -50.171875 C 53.875 -52.921875 53.910156 -55.660156 54.078125 -58.390625 C 53.804688 -61.378906 54.398438 -63.414062 55.859375 -64.5 C 57.316406 -65.582031 58.914062 -66.046875 60.65625 -65.890625 C 61.664062 -65.671875 62.488281 -65.390625 63.125 -65.046875 L 64.421875 -64.125 C 65.671875 -62.414062 66.222656 -60.703125 66.078125 -58.984375 Z M 66.078125 -58.984375 "/></g></g></g><g fill="#000000" fill-opacity="1"><g transform="translate(406.870136, 174.371277)"><g><path d="M 5.6875 -118.765625 C 7.476562 -118.921875 8.925781 -118.441406 10.03125 -117.328125 C 11.132812 -116.222656 11.859375 -114.878906 12.203125 -113.296875 C 14.015625 -103.921875 15.382812 -94.503906 16.3125 -85.046875 C 17.25 -75.585938 17.957031 -66.109375 18.4375 -56.609375 C 18.925781 -47.109375 19.238281 -37.59375 19.375 -28.0625 C 19.507812 -18.53125 19.640625 -9.054688 19.765625 0.359375 C 19.710938 2.085938 19.210938 3.566406 18.265625 4.796875 C 17.316406 6.035156 16 6.726562 14.3125 6.875 C 12.8125 7.007812 11.363281 6.5625 9.96875 5.53125 C 8.570312 4.5 7.851562 3.125 7.8125 1.40625 C 7.6875 -8.007812 7.578125 -17.484375 7.484375 -27.015625 C 7.398438 -36.546875 7.113281 -46.0625 6.625 -55.5625 C 6.144531 -65.0625 5.4375 -74.539062 4.5 -84 C 3.570312 -93.46875 2.195312 -102.882812 0.375 -112.25 C 0.0390625 -113.84375 0.46875 -115.289062 1.65625 -116.59375 C 2.851562 -117.90625 4.195312 -118.628906 5.6875 -118.765625 Z M 5.6875 -118.765625 "/></g></g></g><g fill="#000000" fill-opacity="1"><g transform="translate(444.36841, 171.075034)"><g><path d="M 6.890625 -2.109375 C 7.265625 -6.960938 7.769531 -11.75 8.40625 -16.46875 C 9.050781 -21.195312 9.414062 -25.976562 9.5 -30.8125 C 9.476562 -35.53125 9.144531 -40.144531 8.5 -44.65625 C 7.851562 -49.175781 7.722656 -53.8125 8.109375 -58.5625 C 8.171875 -60.175781 8.984375 -61.453125 10.546875 -62.390625 C 12.117188 -63.328125 13.628906 -63.660156 15.078125 -63.390625 C 16.804688 -63.035156 18.054688 -62.1875 18.828125 -60.84375 C 19.597656 -59.507812 19.957031 -58.039062 19.90625 -56.4375 C 19.695312 -54.101562 19.722656 -51.742188 19.984375 -49.359375 C 20.242188 -46.972656 20.535156 -44.585938 20.859375 -42.203125 C 21.253906 -37.617188 21.351562 -33.007812 21.15625 -28.375 C 20.96875 -23.53125 20.601562 -18.773438 20.0625 -14.109375 C 19.53125 -9.453125 19.066406 -4.738281 18.671875 0.03125 C 18.523438 1.632812 17.6875 2.90625 16.15625 3.84375 C 14.632812 4.78125 13.15625 5.117188 11.71875 4.859375 C 9.988281 4.503906 8.710938 3.660156 7.890625 2.328125 C 7.066406 0.992188 6.734375 -0.484375 6.890625 -2.109375 Z M 8.015625 -71.515625 C 7.304688 -71.648438 6.582031 -71.910156 5.84375 -72.296875 C 5.101562 -72.679688 4.554688 -73.210938 4.203125 -73.890625 C 3.828125 -74.660156 3.515625 -75.332031 3.265625 -75.90625 C 3.023438 -76.488281 2.867188 -77.179688 2.796875 -77.984375 C 2.722656 -78.878906 2.796875 -79.785156 3.015625 -80.703125 C 3.242188 -82.546875 3.921875 -83.914062 5.046875 -84.8125 C 5.398438 -85.4375 5.914062 -85.929688 6.59375 -86.296875 C 7.613281 -87.085938 8.816406 -87.570312 10.203125 -87.75 C 11.597656 -87.925781 12.882812 -87.660156 14.0625 -86.953125 C 14.582031 -86.597656 15.109375 -86.21875 15.640625 -85.8125 C 16.179688 -85.40625 16.632812 -84.867188 17 -84.203125 C 17.25 -83.722656 17.523438 -83.191406 17.828125 -82.609375 C 18.128906 -82.035156 18.257812 -81.445312 18.21875 -80.84375 C 18.175781 -80.132812 18.128906 -79.472656 18.078125 -78.859375 C 18.035156 -78.253906 17.832031 -77.679688 17.46875 -77.140625 C 17.03125 -76.410156 16.675781 -75.882812 16.40625 -75.5625 C 16.132812 -75.238281 15.671875 -74.796875 15.015625 -74.234375 C 14.648438 -73.796875 14.078125 -73.441406 13.296875 -73.171875 C 11.304688 -71.796875 9.546875 -71.242188 8.015625 -71.515625 Z M 8.015625 -71.515625 "/></g></g></g><g fill="#000000" fill-opacity="1"><g transform="translate(484.109042, 167.58168)"><g><path d="M 17.140625 -5.5625 C 13.617188 -6.757812 10.769531 -8.59375 8.59375 -11.0625 C 6.414062 -13.53125 4.8125 -16.328125 3.78125 -19.453125 C 2.757812 -22.578125 2.242188 -25.875 2.234375 -29.34375 C 2.234375 -32.8125 2.640625 -36.1875 3.453125 -39.46875 C 4.128906 -42.03125 4.921875 -44.707031 5.828125 -47.5 C 6.742188 -50.300781 7.894531 -52.914062 9.28125 -55.34375 C 10.675781 -57.78125 12.394531 -59.914062 14.4375 -61.75 C 16.488281 -63.59375 18.988281 -64.894531 21.9375 -65.65625 C 24.988281 -66.425781 28.09375 -66.875 31.25 -67 C 34.40625 -67.125 37.550781 -67.070312 40.6875 -66.84375 C 42.082031 -66.78125 43.445312 -66.578125 44.78125 -66.234375 C 46.125 -65.890625 47.46875 -65.523438 48.8125 -65.140625 C 48.78125 -66.648438 49.34375 -67.957031 50.5 -69.0625 C 51.664062 -70.164062 52.941406 -70.78125 54.328125 -70.90625 C 56.023438 -71.050781 57.445312 -70.597656 58.59375 -69.546875 C 59.738281 -68.492188 60.484375 -67.179688 60.828125 -65.609375 C 61.710938 -61.066406 62.335938 -56.5 62.703125 -51.90625 C 63.066406 -47.3125 63.320312 -42.710938 63.46875 -38.109375 C 63.625 -33.515625 63.828125 -28.914062 64.078125 -24.3125 C 64.328125 -19.707031 64.753906 -15.125 65.359375 -10.5625 C 65.628906 -8.6875 65.179688 -7.21875 64.015625 -6.15625 C 62.847656 -5.09375 61.515625 -4.492188 60.015625 -4.359375 C 58.523438 -4.234375 57.113281 -4.59375 55.78125 -5.4375 C 54.457031 -6.28125 53.664062 -7.640625 53.40625 -9.515625 C 47.925781 -6.628906 42.015625 -4.726562 35.671875 -3.8125 C 29.328125 -2.90625 23.148438 -3.488281 17.140625 -5.5625 Z M 15.328125 -38.09375 C 14.890625 -36.257812 14.519531 -34.171875 14.21875 -31.828125 C 13.925781 -29.492188 13.972656 -27.285156 14.359375 -25.203125 C 14.742188 -23.128906 15.554688 -21.269531 16.796875 -19.625 C 18.046875 -17.976562 19.945312 -16.914062 22.5 -16.4375 C 27.726562 -15.289062 32.875 -15.289062 37.9375 -16.4375 C 43.007812 -17.59375 47.664062 -19.804688 51.90625 -23.078125 C 51.875 -28.003906 51.78125 -32.769531 51.625 -37.375 C 51.46875 -41.988281 51.128906 -46.632812 50.609375 -51.3125 C 48.828125 -52.25 47.023438 -53.0625 45.203125 -53.75 C 43.390625 -54.445312 41.421875 -54.851562 39.296875 -54.96875 C 37.179688 -55.09375 34.945312 -55.125 32.59375 -55.0625 C 30.238281 -55 27.976562 -54.773438 25.8125 -54.390625 C 25.613281 -54.367188 25.097656 -54.195312 24.265625 -53.875 C 23.429688 -53.550781 22.972656 -53.335938 22.890625 -53.234375 C 21.941406 -52.660156 21.117188 -51.785156 20.421875 -50.609375 C 19.273438 -48.703125 18.289062 -46.679688 17.46875 -44.546875 C 16.65625 -42.410156 15.941406 -40.257812 15.328125 -38.09375 Z M 15.328125 -38.09375 "/></g></g></g><g fill="#000000" fill-opacity="1"><g transform="translate(563.775811, 160.578663)"><g/></g></g><g fill="#000000" fill-opacity="1"><g transform="translate(32.003223, 399.271501)"><g><path d="M 74.9375 -43.796875 C 74.976562 -37.671875 73.660156 -32.101562 70.984375 -27.09375 C 68.304688 -22.09375 64.570312 -17.726562 59.78125 -14 C 56.570312 -11.601562 53.097656 -9.382812 49.359375 -7.34375 C 45.617188 -5.3125 41.851562 -3.675781 38.0625 -2.4375 C 34.632812 -1.34375 31.242188 -0.695312 27.890625 -0.5 C 24.546875 -0.300781 21.164062 -0.25 17.75 -0.34375 C 17.019531 0.613281 16.097656 1.316406 14.984375 1.765625 C 13.878906 2.222656 12.765625 2.347656 11.640625 2.140625 C 9.296875 1.734375 7.769531 0.410156 7.0625 -1.828125 C 5.769531 -2.910156 5.050781 -4.300781 4.90625 -6 C 4.707031 -8.195312 5.546875 -10.03125 7.421875 -11.5 C 7.671875 -15.539062 7.796875 -19.566406 7.796875 -23.578125 C 7.796875 -27.597656 7.710938 -31.660156 7.546875 -35.765625 C 7.429688 -40.578125 7.265625 -45.332031 7.046875 -50.03125 C 6.835938 -54.738281 6.472656 -59.476562 5.953125 -64.25 C 5.691406 -67.238281 5.316406 -70.316406 4.828125 -73.484375 C 4.347656 -76.660156 3.96875 -79.816406 3.6875 -82.953125 C 3.414062 -86.097656 3.316406 -89.226562 3.390625 -92.34375 C 3.472656 -95.457031 3.941406 -98.515625 4.796875 -101.515625 C 4.148438 -103.054688 4.097656 -104.703125 4.640625 -106.453125 C 5.191406 -108.210938 6.453125 -109.378906 8.421875 -109.953125 C 9.492188 -111.359375 10.859375 -112.082031 12.515625 -112.125 C 14.171875 -112.175781 15.585938 -111.75 16.765625 -110.84375 C 21.691406 -110.863281 26.53125 -110.351562 31.28125 -109.3125 C 36.039062 -108.28125 40.507812 -106.347656 44.6875 -103.515625 C 49.800781 -100.148438 54.035156 -95.925781 57.390625 -90.84375 C 60.753906 -85.757812 63.582031 -80.457031 65.875 -74.9375 C 66.894531 -72.507812 67.941406 -70.039062 69.015625 -67.53125 C 70.085938 -65.019531 71.066406 -62.441406 71.953125 -59.796875 C 72.835938 -57.160156 73.546875 -54.507812 74.078125 -51.84375 C 74.617188 -49.1875 74.90625 -46.503906 74.9375 -43.796875 Z M 51.609375 -22.90625 C 52.835938 -23.820312 53.941406 -24.722656 54.921875 -25.609375 C 55.898438 -26.503906 56.882812 -27.546875 57.875 -28.734375 C 58.695312 -29.816406 59.328125 -30.675781 59.765625 -31.3125 C 60.203125 -31.945312 60.71875 -32.894531 61.3125 -34.15625 C 62.707031 -37.800781 63.164062 -41.8125 62.6875 -46.1875 C 62.46875 -48.675781 62.0625 -50.972656 61.46875 -53.078125 C 60.882812 -55.191406 60.070312 -57.5625 59.03125 -60.1875 C 57.988281 -62.894531 56.921875 -65.582031 55.828125 -68.25 C 54.742188 -70.914062 53.539062 -73.5 52.21875 -76 C 51.238281 -78.125 49.960938 -80.394531 48.390625 -82.8125 C 46.816406 -85.238281 45.257812 -87.238281 43.71875 -88.8125 C 39.863281 -92.6875 35.660156 -95.351562 31.109375 -96.8125 C 26.554688 -98.269531 21.679688 -98.921875 16.484375 -98.765625 C 15.617188 -95.878906 15.195312 -92.90625 15.21875 -89.84375 C 15.238281 -86.78125 15.429688 -83.707031 15.796875 -80.625 C 16.171875 -77.550781 16.617188 -74.476562 17.140625 -71.40625 C 17.671875 -68.34375 18.007812 -65.359375 18.15625 -62.453125 C 18.5 -53.953125 18.859375 -45.546875 19.234375 -37.234375 C 19.617188 -28.929688 19.632812 -20.550781 19.28125 -12.09375 C 21.082031 -12.0625 22.910156 -12.070312 24.765625 -12.125 C 26.617188 -12.1875 28.4375 -12.398438 30.21875 -12.765625 C 33.96875 -13.484375 37.691406 -14.785156 41.390625 -16.671875 C 45.085938 -18.554688 48.492188 -20.632812 51.609375 -22.90625 Z M 51.609375 -22.90625 "/></g></g></g><g fill="#000000" fill-opacity="1"><g transform="translate(122.570123, 391.310322)"><g><path d="M 6.890625 -2.109375 C 7.265625 -6.960938 7.769531 -11.75 8.40625 -16.46875 C 9.050781 -21.195312 9.414062 -25.976562 9.5 -30.8125 C 9.476562 -35.53125 9.144531 -40.144531 8.5 -44.65625 C 7.851562 -49.175781 7.722656 -53.8125 8.109375 -58.5625 C 8.171875 -60.175781 8.984375 -61.453125 10.546875 -62.390625 C 12.117188 -63.328125 13.628906 -63.660156 15.078125 -63.390625 C 16.804688 -63.035156 18.054688 -62.1875 18.828125 -60.84375 C 19.597656 -59.507812 19.957031 -58.039062 19.90625 -56.4375 C 19.695312 -54.101562 19.722656 -51.742188 19.984375 -49.359375 C 20.242188 -46.972656 20.535156 -44.585938 20.859375 -42.203125 C 21.253906 -37.617188 21.351562 -33.007812 21.15625 -28.375 C 20.96875 -23.53125 20.601562 -18.773438 20.0625 -14.109375 C 19.53125 -9.453125 19.066406 -4.738281 18.671875 0.03125 C 18.523438 1.632812 17.6875 2.90625 16.15625 3.84375 C 14.632812 4.78125 13.15625 5.117188 11.71875 4.859375 C 9.988281 4.503906 8.710938 3.660156 7.890625 2.328125 C 7.066406 0.992188 6.734375 -0.484375 6.890625 -2.109375 Z M 8.015625 -71.515625 C 7.304688 -71.648438 6.582031 -71.910156 5.84375 -72.296875 C 5.101562 -72.679688 4.554688 -73.210938 4.203125 -73.890625 C 3.828125 -74.660156 3.515625 -75.332031 3.265625 -75.90625 C 3.023438 -76.488281 2.867188 -77.179688 2.796875 -77.984375 C 2.722656 -78.878906 2.796875 -79.785156 3.015625 -80.703125 C 3.242188 -82.546875 3.921875 -83.914062 5.046875 -84.8125 C 5.398438 -85.4375 5.914062 -85.929688 6.59375 -86.296875 C 7.613281 -87.085938 8.816406 -87.570312 10.203125 -87.75 C 11.597656 -87.925781 12.882812 -87.660156 14.0625 -86.953125 C 14.582031 -86.597656 15.109375 -86.21875 15.640625 -85.8125 C 16.179688 -85.40625 16.632812 -84.867188 17 -84.203125 C 17.25 -83.722656 17.523438 -83.191406 17.828125 -82.609375 C 18.128906 -82.035156 18.257812 -81.445312 18.21875 -80.84375 C 18.175781 -80.132812 18.128906 -79.472656 18.078125 -78.859375 C 18.035156 -78.253906 17.832031 -77.679688 17.46875 -77.140625 C 17.03125 -76.410156 16.675781 -75.882812 16.40625 -75.5625 C 16.132812 -75.238281 15.671875 -74.796875 15.015625 -74.234375 C 14.648438 -73.796875 14.078125 -73.441406 13.296875 -73.171875 C 11.304688 -71.796875 9.546875 -71.242188 8.015625 -71.515625 Z M 8.015625 -71.515625 "/></g></g></g><g fill="#000000" fill-opacity="1"><g transform="translate(162.310734, 387.816969)"><g><path d="M 17.140625 -5.5625 C 13.617188 -6.757812 10.769531 -8.59375 8.59375 -11.0625 C 6.414062 -13.53125 4.8125 -16.328125 3.78125 -19.453125 C 2.757812 -22.578125 2.242188 -25.875 2.234375 -29.34375 C 2.234375 -32.8125 2.640625 -36.1875 3.453125 -39.46875 C 4.128906 -42.03125 4.921875 -44.707031 5.828125 -47.5 C 6.742188 -50.300781 7.894531 -52.914062 9.28125 -55.34375 C 10.675781 -57.78125 12.394531 -59.914062 14.4375 -61.75 C 16.488281 -63.59375 18.988281 -64.894531 21.9375 -65.65625 C 24.988281 -66.425781 28.09375 -66.875 31.25 -67 C 34.40625 -67.125 37.550781 -67.070312 40.6875 -66.84375 C 42.082031 -66.78125 43.445312 -66.578125 44.78125 -66.234375 C 46.125 -65.890625 47.46875 -65.523438 48.8125 -65.140625 C 48.78125 -66.648438 49.34375 -67.957031 50.5 -69.0625 C 51.664062 -70.164062 52.941406 -70.78125 54.328125 -70.90625 C 56.023438 -71.050781 57.445312 -70.597656 58.59375 -69.546875 C 59.738281 -68.492188 60.484375 -67.179688 60.828125 -65.609375 C 61.710938 -61.066406 62.335938 -56.5 62.703125 -51.90625 C 63.066406 -47.3125 63.320312 -42.710938 63.46875 -38.109375 C 63.625 -33.515625 63.828125 -28.914062 64.078125 -24.3125 C 64.328125 -19.707031 64.753906 -15.125 65.359375 -10.5625 C 65.628906 -8.6875 65.179688 -7.21875 64.015625 -6.15625 C 62.847656 -5.09375 61.515625 -4.492188 60.015625 -4.359375 C 58.523438 -4.234375 57.113281 -4.59375 55.78125 -5.4375 C 54.457031 -6.28125 53.664062 -7.640625 53.40625 -9.515625 C 47.925781 -6.628906 42.015625 -4.726562 35.671875 -3.8125 C 29.328125 -2.90625 23.148438 -3.488281 17.140625 -5.5625 Z M 15.328125 -38.09375 C 14.890625 -36.257812 14.519531 -34.171875 14.21875 -31.828125 C 13.925781 -29.492188 13.972656 -27.285156 14.359375 -25.203125 C 14.742188 -23.128906 15.554688 -21.269531 16.796875 -19.625 C 18.046875 -17.976562 19.945312 -16.914062 22.5 -16.4375 C 27.726562 -15.289062 32.875 -15.289062 37.9375 -16.4375 C 43.007812 -17.59375 47.664062 -19.804688 51.90625 -23.078125 C 51.875 -28.003906 51.78125 -32.769531 51.625 -37.375 C 51.46875 -41.988281 51.128906 -46.632812 50.609375 -51.3125 C 48.828125 -52.25 47.023438 -53.0625 45.203125 -53.75 C 43.390625 -54.445312 41.421875 -54.851562 39.296875 -54.96875 C 37.179688 -55.09375 34.945312 -55.125 32.59375 -55.0625 C 30.238281 -55 27.976562 -54.773438 25.8125 -54.390625 C 25.613281 -54.367188 25.097656 -54.195312 24.265625 -53.875 C 23.429688 -53.550781 22.972656 -53.335938 22.890625 -53.234375 C 21.941406 -52.660156 21.117188 -51.785156 20.421875 -50.609375 C 19.273438 -48.703125 18.289062 -46.679688 17.46875 -44.546875 C 16.65625 -42.410156 15.941406 -40.257812 15.328125 -38.09375 Z M 15.328125 -38.09375 "/></g></g></g><g fill="#000000" fill-opacity="1"><g transform="translate(241.964931, 380.815058)"><g><path d="M 5.6875 -118.765625 C 7.476562 -118.921875 8.925781 -118.441406 10.03125 -117.328125 C 11.132812 -116.222656 11.859375 -114.878906 12.203125 -113.296875 C 14.015625 -103.921875 15.382812 -94.503906 16.3125 -85.046875 C 17.25 -75.585938 17.957031 -66.109375 18.4375 -56.609375 C 18.925781 -47.109375 19.238281 -37.59375 19.375 -28.0625 C 19.507812 -18.53125 19.640625 -9.054688 19.765625 0.359375 C 19.710938 2.085938 19.210938 3.566406 18.265625 4.796875 C 17.316406 6.035156 16 6.726562 14.3125 6.875 C 12.8125 7.007812 11.363281 6.5625 9.96875 5.53125 C 8.570312 4.5 7.851562 3.125 7.8125 1.40625 C 7.6875 -8.007812 7.578125 -17.484375 7.484375 -27.015625 C 7.398438 -36.546875 7.113281 -46.0625 6.625 -55.5625 C 6.144531 -65.0625 5.4375 -74.539062 4.5 -84 C 3.570312 -93.46875 2.195312 -102.882812 0.375 -112.25 C 0.0390625 -113.84375 0.46875 -115.289062 1.65625 -116.59375 C 2.851562 -117.90625 4.195312 -118.628906 5.6875 -118.765625 Z M 5.6875 -118.765625 "/></g></g></g><g fill="#000000" fill-opacity="1"><g transform="translate(279.463205, 377.518815)"><g><path d="M 37.140625 -72.71875 C 40.296875 -73.394531 43.625 -73.8125 47.125 -73.96875 C 50.632812 -74.125 54.023438 -73.820312 57.296875 -73.0625 C 60.578125 -72.300781 63.601562 -70.984375 66.375 -69.109375 C 69.144531 -67.234375 71.382812 -64.671875 73.09375 -61.421875 C 74.289062 -59.109375 75.019531 -56.734375 75.28125 -54.296875 C 75.550781 -51.859375 75.410156 -49.484375 74.859375 -47.171875 C 74.316406 -44.867188 73.410156 -42.628906 72.140625 -40.453125 C 70.878906 -38.285156 69.378906 -36.269531 67.640625 -34.40625 C 63.867188 -30.363281 59.65625 -26.828125 55 -23.796875 C 50.34375 -20.773438 45.390625 -18.335938 40.140625 -16.484375 C 37.898438 -15.679688 35.570312 -14.945312 33.15625 -14.28125 C 30.75 -13.625 28.300781 -13.179688 25.8125 -12.953125 C 23.320312 -12.734375 20.859375 -12.796875 18.421875 -13.140625 C 15.984375 -13.484375 13.660156 -14.203125 11.453125 -15.296875 C 9.878906 -16.078125 8.882812 -17.203125 8.46875 -18.671875 C 7.71875 -20.304688 6.921875 -21.835938 6.078125 -23.265625 C 5.242188 -24.703125 4.4375 -26.191406 3.65625 -27.734375 C 2.875 -29.285156 2.210938 -30.835938 1.671875 -32.390625 C 1.140625 -33.953125 0.796875 -35.578125 0.640625 -37.265625 C 0.347656 -40.660156 0.785156 -43.9375 1.953125 -47.09375 C 3.128906 -50.257812 4.863281 -53.101562 7.15625 -55.625 C 10.988281 -59.976562 15.539062 -63.585938 20.8125 -66.453125 C 26.082031 -69.328125 31.523438 -71.414062 37.140625 -72.71875 Z M 55.171875 -61.34375 C 52.390625 -62.101562 49.453125 -62.347656 46.359375 -62.078125 C 43.066406 -61.890625 39.804688 -61.273438 36.578125 -60.234375 C 33.359375 -59.191406 30.3125 -57.894531 27.4375 -56.34375 C 24.738281 -55 22.003906 -53.226562 19.234375 -51.03125 C 16.460938 -48.832031 14.507812 -46.273438 13.375 -43.359375 C 12.695312 -41.785156 12.453125 -40.226562 12.640625 -38.6875 C 12.828125 -37.144531 13.210938 -35.625 13.796875 -34.125 C 14.378906 -32.632812 15.109375 -31.144531 15.984375 -29.65625 C 16.867188 -28.175781 17.679688 -26.710938 18.421875 -25.265625 C 20.035156 -25.003906 21.046875 -24.890625 21.453125 -24.921875 C 21.660156 -24.847656 21.914062 -24.820312 22.21875 -24.84375 C 22.519531 -24.875 22.769531 -24.894531 22.96875 -24.90625 C 24.976562 -24.882812 26.769531 -25.09375 28.34375 -25.53125 C 29.425781 -25.625 30.800781 -25.945312 32.46875 -26.5 C 35.019531 -27.226562 37.453125 -28.117188 39.765625 -29.171875 C 42.078125 -30.222656 44.1875 -31.335938 46.09375 -32.515625 C 48.289062 -33.828125 50.429688 -35.226562 52.515625 -36.71875 C 54.597656 -38.207031 56.320312 -39.707031 57.6875 -41.21875 C 58.613281 -42.21875 59.476562 -43.25 60.28125 -44.3125 C 60.738281 -44.851562 61.054688 -45.28125 61.234375 -45.59375 C 61.671875 -46.34375 62.019531 -46.90625 62.28125 -47.28125 C 62.550781 -47.65625 62.765625 -48.097656 62.921875 -48.609375 C 63.253906 -49.335938 63.398438 -49.90625 63.359375 -50.3125 C 63.453125 -50.519531 63.507812 -50.773438 63.53125 -51.078125 C 63.550781 -51.378906 63.601562 -51.640625 63.6875 -51.859375 L 63.546875 -53.484375 C 63.398438 -53.878906 63.316406 -54.175781 63.296875 -54.375 C 63.285156 -54.570312 63.222656 -54.765625 63.109375 -54.953125 C 62.742188 -55.640625 62.421875 -56.144531 62.140625 -56.46875 C 61.867188 -56.789062 61.566406 -57.132812 61.234375 -57.5 C 61.347656 -57.414062 61.207031 -57.554688 60.8125 -57.921875 C 60.425781 -58.285156 60.179688 -58.515625 60.078125 -58.609375 L 58.78125 -59.703125 C 58.25 -59.960938 57.664062 -60.257812 57.03125 -60.59375 C 56.40625 -60.9375 55.785156 -61.1875 55.171875 -61.34375 Z M 41.28125 -104.40625 C 42.488281 -105.519531 43.832031 -106.21875 45.3125 -106.5 C 46.800781 -106.78125 48.25 -106.328125 49.65625 -105.140625 C 50.851562 -104.148438 51.578125 -102.785156 51.828125 -101.046875 C 52.078125 -99.316406 51.601562 -97.84375 50.40625 -96.625 C 43.71875 -90.507812 36.660156 -85.117188 29.234375 -80.453125 C 27.617188 -79.398438 26.035156 -79.132812 24.484375 -79.65625 C 22.929688 -80.175781 21.722656 -81.050781 20.859375 -82.28125 C 19.992188 -83.519531 19.597656 -84.894531 19.671875 -86.40625 C 19.742188 -87.914062 20.585938 -89.1875 22.203125 -90.21875 C 25.628906 -92.332031 28.921875 -94.53125 32.078125 -96.8125 C 35.242188 -99.101562 38.3125 -101.632812 41.28125 -104.40625 Z M 41.28125 -104.40625 "/></g></g></g><g fill="#000000" fill-opacity="1"><g transform="translate(366.591855, 369.859871)"><g><path d="M 11.28125 37.578125 C 13.65625 39.472656 16.320312 40.71875 19.28125 41.3125 C 22.25 41.90625 25.164062 41.921875 28.03125 41.359375 C 30.894531 40.804688 33.5625 39.71875 36.03125 38.09375 C 38.507812 36.476562 40.484375 34.347656 41.953125 31.703125 C 45.097656 26.304688 46.921875 20.5 47.421875 14.28125 C 47.929688 8.0625 47.8125 1.867188 47.0625 -4.296875 C 42.351562 -3.066406 37.460938 -2.457031 32.390625 -2.46875 C 27.316406 -2.476562 22.46875 -3.128906 17.84375 -4.421875 C 15.457031 -5.117188 13.1875 -6 11.03125 -7.0625 C 8.882812 -8.132812 7.113281 -9.765625 5.71875 -11.953125 C 3.289062 -15.660156 2.019531 -19.867188 1.90625 -24.578125 C 1.71875 -29.066406 2.109375 -33.488281 3.078125 -37.84375 C 4.046875 -42.207031 5.191406 -46.554688 6.515625 -50.890625 C 7.242188 -52.960938 8.03125 -55.164062 8.875 -57.5 C 9.71875 -59.832031 10.914062 -61.972656 12.46875 -63.921875 C 13.988281 -65.960938 15.800781 -67.578125 17.90625 -68.765625 C 20.007812 -69.953125 22.300781 -70.753906 24.78125 -71.171875 C 24.257812 -72.535156 24.140625 -73.859375 24.421875 -75.140625 C 24.710938 -76.421875 25.472656 -77.515625 26.703125 -78.421875 C 27.929688 -79.328125 29.429688 -79.65625 31.203125 -79.40625 C 32.984375 -79.164062 34.285156 -78.382812 35.109375 -77.0625 C 35.585938 -76.1875 36.039062 -75.316406 36.46875 -74.453125 C 36.894531 -73.585938 37.296875 -72.722656 37.671875 -71.859375 C 40.140625 -66.640625 42.4375 -61.363281 44.5625 -56.03125 C 46.6875 -50.695312 48.742188 -45.304688 50.734375 -39.859375 C 53.097656 -33.441406 55.023438 -26.882812 56.515625 -20.1875 C 58.003906 -13.488281 58.957031 -6.640625 59.375 0.359375 C 59.625 4.242188 59.65625 8.253906 59.46875 12.390625 C 59.28125 16.535156 58.703125 20.554688 57.734375 24.453125 C 56.773438 28.347656 55.398438 32.109375 53.609375 35.734375 C 51.816406 39.359375 49.390625 42.5625 46.328125 45.34375 C 43.441406 48.007812 40.175781 50.023438 36.53125 51.390625 C 32.894531 52.765625 29.144531 53.519531 25.28125 53.65625 C 21.414062 53.800781 17.597656 53.285156 13.828125 52.109375 C 10.066406 50.929688 6.671875 49.125 3.640625 46.6875 C 2.140625 45.507812 1.414062 44.140625 1.46875 42.578125 C 1.53125 41.015625 2.039062 39.660156 3 38.515625 C 3.96875 37.378906 5.210938 36.644531 6.734375 36.3125 C 8.265625 35.976562 9.78125 36.398438 11.28125 37.578125 Z M 23.34375 -15.46875 C 26.914062 -14.863281 30.585938 -14.550781 34.359375 -14.53125 C 38.128906 -14.507812 41.722656 -15.054688 45.140625 -16.171875 C 44.085938 -21.203125 42.78125 -26.007812 41.21875 -30.59375 C 39.664062 -35.175781 37.984375 -39.800781 36.171875 -44.46875 C 35.117188 -47.1875 34.050781 -49.851562 32.96875 -52.46875 C 31.894531 -55.082031 30.785156 -57.695312 29.640625 -60.3125 C 29.367188 -60.082031 29.035156 -59.925781 28.640625 -59.84375 C 28.242188 -59.757812 27.800781 -59.644531 27.3125 -59.5 C 24.3125 -59.226562 22.140625 -57.679688 20.796875 -54.859375 C 19.835938 -53.078125 19.09375 -51.203125 18.5625 -49.234375 C 18.40625 -48.722656 18.25 -48.234375 18.09375 -47.765625 C 17.9375 -47.304688 17.78125 -46.816406 17.625 -46.296875 C 16.4375 -42.566406 15.46875 -38.988281 14.71875 -35.5625 C 13.96875 -32.132812 13.632812 -28.816406 13.71875 -25.609375 L 13.953125 -22.921875 C 14.117188 -22.234375 14.265625 -21.691406 14.390625 -21.296875 C 14.671875 -20.410156 14.84375 -19.875 14.90625 -19.6875 C 14.976562 -19.5 15.300781 -19.03125 15.875 -18.28125 C 16.507812 -17.832031 17.085938 -17.476562 17.609375 -17.21875 C 18.140625 -16.957031 18.457031 -16.78125 18.5625 -16.6875 C 19.382812 -16.46875 20.179688 -16.238281 20.953125 -16 C 21.722656 -15.769531 22.519531 -15.59375 23.34375 -15.46875 Z M 23.34375 -15.46875 "/></g></g></g><g fill="#000000" fill-opacity="1"><g transform="translate(434.735412, 363.869789)"><g><path d="M 6.890625 -2.109375 C 7.265625 -6.960938 7.769531 -11.75 8.40625 -16.46875 C 9.050781 -21.195312 9.414062 -25.976562 9.5 -30.8125 C 9.476562 -35.53125 9.144531 -40.144531 8.5 -44.65625 C 7.851562 -49.175781 7.722656 -53.8125 8.109375 -58.5625 C 8.171875 -60.175781 8.984375 -61.453125 10.546875 -62.390625 C 12.117188 -63.328125 13.628906 -63.660156 15.078125 -63.390625 C 16.804688 -63.035156 18.054688 -62.1875 18.828125 -60.84375 C 19.597656 -59.507812 19.957031 -58.039062 19.90625 -56.4375 C 19.695312 -54.101562 19.722656 -51.742188 19.984375 -49.359375 C 20.242188 -46.972656 20.535156 -44.585938 20.859375 -42.203125 C 21.253906 -37.617188 21.351562 -33.007812 21.15625 -28.375 C 20.96875 -23.53125 20.601562 -18.773438 20.0625 -14.109375 C 19.53125 -9.453125 19.066406 -4.738281 18.671875 0.03125 C 18.523438 1.632812 17.6875 2.90625 16.15625 3.84375 C 14.632812 4.78125 13.15625 5.117188 11.71875 4.859375 C 9.988281 4.503906 8.710938 3.660156 7.890625 2.328125 C 7.066406 0.992188 6.734375 -0.484375 6.890625 -2.109375 Z M 8.015625 -71.515625 C 7.304688 -71.648438 6.582031 -71.910156 5.84375 -72.296875 C 5.101562 -72.679688 4.554688 -73.210938 4.203125 -73.890625 C 3.828125 -74.660156 3.515625 -75.332031 3.265625 -75.90625 C 3.023438 -76.488281 2.867188 -77.179688 2.796875 -77.984375 C 2.722656 -78.878906 2.796875 -79.785156 3.015625 -80.703125 C 3.242188 -82.546875 3.921875 -83.914062 5.046875 -84.8125 C 5.398438 -85.4375 5.914062 -85.929688 6.59375 -86.296875 C 7.613281 -87.085938 8.816406 -87.570312 10.203125 -87.75 C 11.597656 -87.925781 12.882812 -87.660156 14.0625 -86.953125 C 14.582031 -86.597656 15.109375 -86.21875 15.640625 -85.8125 C 16.179688 -85.40625 16.632812 -84.867188 17 -84.203125 C 17.25 -83.722656 17.523438 -83.191406 17.828125 -82.609375 C 18.128906 -82.035156 18.257812 -81.445312 18.21875 -80.84375 C 18.175781 -80.132812 18.128906 -79.472656 18.078125 -78.859375 C 18.035156 -78.253906 17.832031 -77.679688 17.46875 -77.140625 C 17.03125 -76.410156 16.675781 -75.882812 16.40625 -75.5625 C 16.132812 -75.238281 15.671875 -74.796875 15.015625 -74.234375 C 14.648438 -73.796875 14.078125 -73.441406 13.296875 -73.171875 C 11.304688 -71.796875 9.546875 -71.242188 8.015625 -71.515625 Z M 8.015625 -71.515625 "/></g></g></g><g fill="#000000" fill-opacity="1"><g transform="translate(474.476001, 360.376439)"><g><path d="M 48.609375 -16.015625 C 49.128906 -14.671875 49.054688 -13.160156 48.390625 -11.484375 C 47.734375 -9.816406 46.628906 -8.769531 45.078125 -8.34375 C 39.765625 -6.957031 34.421875 -6.554688 29.046875 -7.140625 C 23.679688 -7.722656 18.597656 -9.5625 13.796875 -12.65625 C 9.109375 -15.757812 5.601562 -19.945312 3.28125 -25.21875 C 0.957031 -30.488281 0.15625 -35.914062 0.875 -41.5 C 1.539062 -46.476562 3.457031 -50.910156 6.625 -54.796875 C 9.800781 -58.691406 13.539062 -61.835938 17.84375 -64.234375 C 21.664062 -66.484375 25.722656 -68.347656 30.015625 -69.828125 C 34.316406 -71.304688 38.671875 -72.039062 43.078125 -72.03125 C 44.796875 -71.976562 46.269531 -71.476562 47.5 -70.53125 C 48.726562 -69.582031 49.421875 -68.265625 49.578125 -66.578125 C 49.703125 -65.078125 49.25 -63.628906 48.21875 -62.234375 C 47.195312 -60.835938 45.832031 -60.113281 44.125 -60.0625 C 40.914062 -60.082031 37.789062 -59.660156 34.75 -58.796875 C 31.707031 -57.929688 28.800781 -56.71875 26.03125 -55.15625 C 24.414062 -54.207031 22.820312 -53.210938 21.25 -52.171875 C 19.6875 -51.128906 18.351562 -50.007812 17.25 -48.8125 C 16.0625 -47.507812 15.09375 -46.222656 14.34375 -44.953125 C 13.601562 -43.679688 13.109375 -42.226562 12.859375 -40.59375 C 12.585938 -38.96875 12.582031 -37.257812 12.84375 -35.46875 C 13.101562 -33.6875 13.582031 -31.945312 14.28125 -30.25 C 14.988281 -28.5625 15.898438 -27.035156 17.015625 -25.671875 C 18.140625 -24.316406 19.445312 -23.203125 20.9375 -22.328125 C 24 -20.492188 27.285156 -19.347656 30.796875 -18.890625 C 34.304688 -18.441406 37.679688 -18.664062 40.921875 -19.5625 C 42.484375 -20 43.992188 -19.925781 45.453125 -19.34375 C 46.910156 -18.769531 47.960938 -17.660156 48.609375 -16.015625 Z M 48.609375 -16.015625 "/></g></g></g><g fill="#000000" fill-opacity="1"><g transform="translate(536.340974, 354.938269)"><g><path d="M 17.140625 -5.5625 C 13.617188 -6.757812 10.769531 -8.59375 8.59375 -11.0625 C 6.414062 -13.53125 4.8125 -16.328125 3.78125 -19.453125 C 2.757812 -22.578125 2.242188 -25.875 2.234375 -29.34375 C 2.234375 -32.8125 2.640625 -36.1875 3.453125 -39.46875 C 4.128906 -42.03125 4.921875 -44.707031 5.828125 -47.5 C 6.742188 -50.300781 7.894531 -52.914062 9.28125 -55.34375 C 10.675781 -57.78125 12.394531 -59.914062 14.4375 -61.75 C 16.488281 -63.59375 18.988281 -64.894531 21.9375 -65.65625 C 24.988281 -66.425781 28.09375 -66.875 31.25 -67 C 34.40625 -67.125 37.550781 -67.070312 40.6875 -66.84375 C 42.082031 -66.78125 43.445312 -66.578125 44.78125 -66.234375 C 46.125 -65.890625 47.46875 -65.523438 48.8125 -65.140625 C 48.78125 -66.648438 49.34375 -67.957031 50.5 -69.0625 C 51.664062 -70.164062 52.941406 -70.78125 54.328125 -70.90625 C 56.023438 -71.050781 57.445312 -70.597656 58.59375 -69.546875 C 59.738281 -68.492188 60.484375 -67.179688 60.828125 -65.609375 C 61.710938 -61.066406 62.335938 -56.5 62.703125 -51.90625 C 63.066406 -47.3125 63.320312 -42.710938 63.46875 -38.109375 C 63.625 -33.515625 63.828125 -28.914062 64.078125 -24.3125 C 64.328125 -19.707031 64.753906 -15.125 65.359375 -10.5625 C 65.628906 -8.6875 65.179688 -7.21875 64.015625 -6.15625 C 62.847656 -5.09375 61.515625 -4.492188 60.015625 -4.359375 C 58.523438 -4.234375 57.113281 -4.59375 55.78125 -5.4375 C 54.457031 -6.28125 53.664062 -7.640625 53.40625 -9.515625 C 47.925781 -6.628906 42.015625 -4.726562 35.671875 -3.8125 C 29.328125 -2.90625 23.148438 -3.488281 17.140625 -5.5625 Z M 15.328125 -38.09375 C 14.890625 -36.257812 14.519531 -34.171875 14.21875 -31.828125 C 13.925781 -29.492188 13.972656 -27.285156 14.359375 -25.203125 C 14.742188 -23.128906 15.554688 -21.269531 16.796875 -19.625 C 18.046875 -17.976562 19.945312 -16.914062 22.5 -16.4375 C 27.726562 -15.289062 32.875 -15.289062 37.9375 -16.4375 C 43.007812 -17.59375 47.664062 -19.804688 51.90625 -23.078125 C 51.875 -28.003906 51.78125 -32.769531 51.625 -37.375 C 51.46875 -41.988281 51.128906 -46.632812 50.609375 -51.3125 C 48.828125 -52.25 47.023438 -53.0625 45.203125 -53.75 C 43.390625 -54.445312 41.421875 -54.851562 39.296875 -54.96875 C 37.179688 -55.09375 34.945312 -55.125 32.59375 -55.0625 C 30.238281 -55 27.976562 -54.773438 25.8125 -54.390625 C 25.613281 -54.367188 25.097656 -54.195312 24.265625 -53.875 C 23.429688 -53.550781 22.972656 -53.335938 22.890625 -53.234375 C 21.941406 -52.660156 21.117188 -51.785156 20.421875 -50.609375 C 19.273438 -48.703125 18.289062 -46.679688 17.46875 -44.546875 C 16.65625 -42.410156 15.941406 -40.257812 15.328125 -38.09375 Z M 15.328125 -38.09375 "/></g></g></g><g fill="#000000" fill-opacity="1"><g transform="translate(616.01484, 347.934629)"><g/></g></g></g></g></g></g></g><g clip-path="url(#10d895d5f2)"><path fill="#ffdb1c" d="M 404.988281 42.742188 C 205.242188 42.742188 42.738281 205.242188 42.738281 404.992188 C 42.738281 604.738281 205.242188 767.246094 404.988281 767.246094 C 604.730469 767.246094 767.234375 604.738281 767.234375 404.992188 C 767.234375 205.242188 604.730469 42.742188 404.988281 42.742188 Z M 404.988281 803.1875 C 185.425781 803.1875 6.800781 624.554688 6.800781 404.992188 C 6.800781 185.429688 185.425781 6.800781 404.988281 6.800781 C 624.550781 6.800781 803.179688 185.429688 803.179688 404.992188 C 803.179688 624.554688 624.550781 803.1875 404.988281 803.1875 " fill-opacity="1" fill-rule="nonzero"/></g></svg>