<svg xmlns="http://www.w3.org/2000/svg" xmlns:xlink="http://www.w3.org/1999/xlink" width="1080" zoomAndPan="magnify" viewBox="0 0 810 809.999993" height="1080" preserveAspectRatio="xMidYMid meet" version="1.0"><path fill="#f9cd1d" d="M 1045.410156 404.394531 C 1045.054688 536.582031 1004.003906 665.726562 927.441406 773.550781 C 853.921875 877.074219 748.183594 957.992188 628.90625 1001.535156 C 502.984375 1047.46875 363.921875 1052.78125 234.957031 1016.109375 C 111.347656 980.949219 0.703125 907.804688 -81.296875 809.015625 C -164.179688 709.144531 -215.023438 583.144531 -224.660156 453.75 C -234.503906 321.660156 -203.496094 188.742188 -134.859375 75.355469 C -68.636719 -34.058594 30.277344 -121.671875 146.511719 -174.929688 C 267.199219 -230.226562 406.007812 -245.53125 536.007812 -219.027344 C 663.011719 -193.128906 779.972656 -128.390625 869.523438 -34.6875 C 958.976562 58.894531 1017.921875 178.773438 1038.058594 306.585938 C 1043.167969 338.902344 1045.332031 371.671875 1045.410156 404.367188 C 1045.484375 428.65625 1083.238281 428.707031 1083.164062 404.367188 C 1082.785156 265.484375 1039.898438 127.984375 959.078125 14.796875 C 879.820312 -96.175781 768.546875 -181.523438 640.507812 -228.617188 C 508.269531 -277.269531 360.375 -282.300781 224.914062 -243.769531 C 94.460938 -206.667969 -23.988281 -129.246094 -110.117188 -24.417969 C -197.832031 82.375 -251.164062 213.761719 -262.164062 351.539062 C -273.289062 490.898438 -239.890625 632.855469 -167.476562 752.484375 C -95.066406 872.117188 7.347656 962.019531 130.476562 1017.695312 C 259.746094 1076.136719 405.226562 1092.523438 544.335938 1064.535156 C 677.886719 1037.652344 802.121094 968.589844 896.203125 870.152344 C 990.640625 771.363281 1054.394531 644.03125 1074.984375 508.796875 C 1080.242188 474.214844 1083.0625 439.378906 1083.164062 404.367188 C 1083.238281 380.078125 1045.484375 380.027344 1045.410156 404.367188 Z M 1045.410156 404.394531 " fill-opacity="1" fill-rule="nonzero"/><path fill="#f9cd1d" d="M 749.519531 169.714844 L 749.519531 624.523438 C 749.519531 628.375 749.492188 632.199219 749.519531 636.050781 C 749.542969 640.253906 747.855469 641.3125 749.695312 636.730469 L 758.378906 625.457031 L 757.144531 625.984375 L 766.683594 623.417969 L 52.25 623.417969 L 61.789062 625.984375 L 60.558594 625.457031 L 69.242188 636.730469 C 70.648438 640.28125 69.367188 641.238281 69.417969 637.082031 C 69.441406 634.011719 69.417969 630.917969 69.417969 627.820312 L 69.417969 169.992188 L 66.847656 179.53125 L 67.78125 177.917969 L 51.472656 187.257812 L 53.257812 187.359375 L 43.71875 184.789062 C 88.796875 216.957031 133.902344 249.125 178.980469 281.289062 C 232.867188 319.722656 286.730469 358.15625 340.617188 396.589844 C 359.214844 409.855469 377.238281 425.058594 396.84375 436.683594 C 413.40625 446.527344 428.9375 430.089844 441.621094 421.082031 C 452.671875 413.226562 463.71875 405.398438 474.792969 397.546875 C 522.011719 364.019531 569.230469 330.519531 616.449219 296.996094 C 667.867188 260.5 719.742188 224.53125 770.761719 187.484375 C 771.289062 187.105469 771.816406 186.730469 772.347656 186.351562 C 772.421875 186.300781 772.496094 186.25 772.574219 186.199219 C 772.625 186.148438 776.347656 183.28125 776.398438 183.230469 C 775.921875 183.65625 771.765625 186.679688 775.339844 184.464844 L 765.800781 187.03125 L 767.539062 187.03125 C 762.101562 183.910156 756.664062 180.789062 751.230469 177.667969 L 752.109375 179.253906 C 763.914062 200.496094 796.535156 181.46875 784.703125 160.199219 L 783.824219 158.613281 C 780.625 152.875 774.058594 149.199219 767.511719 149.277344 C 759.058594 149.351562 756.488281 154.285156 749.667969 156.527344 C 749.769531 156.5 755.40625 152.472656 752.5625 154.234375 C 750.421875 155.542969 748.433594 157.15625 746.398438 158.613281 C 737.585938 164.882812 728.753906 171.125 719.945312 177.390625 C 689.289062 199.136719 658.632812 220.910156 628 242.65625 C 572.324219 282.171875 516.675781 321.660156 461 361.175781 C 440.539062 375.699219 420.101562 390.222656 399.636719 404.746094 L 409.175781 402.179688 L 407.214844 402.179688 C 410.386719 403.035156 413.558594 403.890625 416.753906 404.746094 C 379.023438 377.839844 341.296875 350.933594 303.59375 324.027344 C 238.855469 277.867188 174.144531 231.679688 109.410156 185.519531 C 97.707031 177.164062 85.976562 168.808594 74.273438 160.453125 C 66.621094 154.988281 61.386719 150.132812 51.421875 149.554688 C 44.925781 149.175781 38.28125 153.40625 35.109375 158.890625 C 28.011719 171.199219 31.613281 191.636719 31.613281 205.101562 L 31.613281 617 C 31.613281 634.140625 27.734375 659.535156 52.328125 661.171875 C 85.777344 663.410156 120.15625 661.171875 153.660156 661.171875 C 306.410156 661.171875 459.164062 661.171875 611.890625 661.171875 L 756.488281 661.171875 C 771.894531 661.171875 786.492188 657.847656 787.246094 638.367188 C 787.925781 620.722656 787.246094 602.902344 787.246094 585.261719 L 787.246094 169.765625 C 787.246094 145.476562 749.492188 145.425781 749.492188 169.765625 Z M 749.519531 169.714844 " fill-opacity="1" fill-rule="nonzero"/><path fill="#f9cd1d" d="M 339.207031 371.472656 C 251.945312 445.820312 164.707031 520.199219 77.445312 594.546875 C 64.960938 605.195312 52.476562 615.839844 39.96875 626.488281 L 53.308594 620.949219 L 51.472656 621.175781 L 67.78125 630.515625 L 66.800781 628.878906 L 69.367188 638.417969 L 69.367188 169.964844 L 66.800781 179.503906 L 67.730469 177.894531 L 51.421875 187.230469 L 53.207031 187.332031 L 43.667969 184.765625 C 131.007812 247.058594 218.34375 309.378906 305.679688 371.671875 L 332.585938 390.878906 C 335.078125 392.664062 337.546875 394.527344 340.113281 396.238281 C 345.449219 399.835938 339.910156 398.578125 336.890625 392.890625 L 336.890625 373.835938 L 336.261719 375.324219 C 332.210938 384.761719 333.542969 395.457031 343.03125 401.144531 C 350.9375 405.878906 364.828125 403.738281 368.855469 394.375 C 378.648438 371.574219 354.964844 360.648438 339.433594 349.550781 C 315.699219 332.636719 291.988281 315.695312 268.253906 298.78125 C 211.925781 258.613281 155.597656 218.417969 99.269531 178.246094 L 71.882812 158.714844 C 64.910156 153.730469 60.734375 150.082031 51.445312 149.527344 C 44.953125 149.152344 38.308594 153.378906 35.136719 158.867188 C 31.007812 166.039062 31.636719 172.734375 31.636719 180.535156 L 31.636719 624.875 C 31.636719 633.382812 30.605469 641.992188 35.210938 649.617188 C 38.332031 654.777344 45.078125 659.785156 51.519531 658.957031 C 67.605469 656.917969 81.171875 640.859375 93.101562 630.714844 L 162.945312 571.191406 C 217.664062 524.550781 272.40625 477.914062 327.125 431.273438 C 340.0625 420.25 353 409.226562 365.910156 398.203125 C 384.4375 382.421875 357.605469 355.816406 339.207031 371.496094 Z M 339.207031 371.472656 " fill-opacity="1" fill-rule="nonzero"/><path fill="#f9cd1d" d="M 749.519531 169.714844 L 749.519531 638.394531 L 752.085938 628.851562 L 751.078125 630.488281 L 767.386719 621.152344 L 765.550781 620.898438 L 778.890625 626.4375 C 691.804688 551.507812 604.71875 476.578125 517.632812 401.648438 C 508.546875 393.847656 499.484375 386.019531 490.398438 378.21875 C 487.90625 376.050781 485.441406 373.835938 482.875 371.75 C 479.929688 369.332031 481.035156 368.25 482.546875 371.800781 L 482.546875 390.851562 C 479.449219 396.617188 474.015625 397.722656 478.746094 394.628906 C 480.886719 393.21875 482.949219 391.632812 485.0625 390.148438 L 506.808594 374.71875 C 530.921875 357.601562 555.058594 340.488281 579.171875 323.347656 C 632.429688 285.542969 685.6875 247.738281 738.945312 209.933594 C 747.429688 203.917969 755.910156 197.902344 764.394531 191.886719 C 766.558594 190.351562 768.746094 188.84375 770.886719 187.28125 C 771.363281 186.929688 771.84375 186.628906 772.320312 186.277344 C 782.566406 178.699219 771.1875 186.957031 775.316406 184.414062 L 765.777344 186.980469 L 767.515625 186.980469 C 762.078125 183.859375 756.640625 180.738281 751.203125 177.617188 L 752.085938 179.203125 C 763.890625 200.445312 796.507812 181.417969 784.679688 160.148438 L 783.796875 158.5625 C 780.601562 152.824219 774.03125 149.152344 767.488281 149.226562 C 764.292969 149.25 750.902344 151.464844 749.644531 156.476562 C 750.953125 151.164062 754.929688 152.875 752.992188 153.859375 C 751.328125 154.714844 749.820312 156.121094 748.285156 157.203125 L 726.992188 172.332031 C 701.59375 190.351562 676.222656 208.375 650.828125 226.394531 C 594.777344 266.164062 538.75 305.957031 482.699219 345.722656 C 468.753906 355.613281 439.230469 369.859375 449.925781 390.878906 C 455.839844 402.503906 471.421875 411.589844 481.011719 419.847656 C 533.289062 464.824219 585.566406 509.800781 637.816406 554.753906 C 665.175781 578.289062 692.535156 601.820312 719.867188 625.355469 C 733.03125 636.679688 749.390625 656.566406 767.363281 658.90625 C 773.78125 659.734375 780.550781 654.703125 783.671875 649.566406 C 787.875 642.644531 787.246094 635.875 787.246094 628.25 L 787.246094 169.6875 C 787.246094 145.402344 749.492188 145.351562 749.492188 169.6875 Z M 749.519531 169.714844 " fill-opacity="1" fill-rule="nonzero"/><path fill="#f9cd1d" d="M 752.1875 182.828125 L 753.898438 184.035156 L 745.214844 162.71875 C 745.742188 159.921875 757.773438 150.6875 751.054688 155.292969 C 748.335938 157.15625 745.691406 159.09375 743 161.003906 L 714.332031 181.34375 C 683.523438 203.214844 652.691406 225.085938 621.882812 246.960938 C 568.070312 285.167969 514.234375 323.375 460.421875 361.582031 C 440.1875 375.953125 419.949219 390.296875 399.738281 404.671875 L 409.277344 402.101562 L 407.164062 402.101562 C 410.335938 402.957031 413.507812 403.8125 416.703125 404.671875 C 379.957031 378.46875 343.207031 352.242188 306.460938 326.042969 C 242.734375 280.585938 179.003906 235.128906 115.300781 189.671875 C 103.195312 181.039062 91.085938 172.40625 78.980469 163.75 C 75.609375 161.359375 72.285156 158.890625 68.863281 156.550781 C 62.972656 152.5 67.226562 152.597656 71.050781 159.21875 L 72.964844 173.765625 L 73.394531 172.28125 L 64.710938 183.558594 L 66.144531 182.878906 L 56.605469 185.445312 L 761.726562 185.445312 C 786.011719 185.445312 786.0625 147.691406 761.726562 147.691406 L 465.480469 147.691406 C 336.664062 147.691406 207.875 147.691406 79.054688 147.691406 C 69.367188 147.691406 56.027344 145.652344 47.089844 150.257812 C 29.496094 159.34375 35.691406 178.925781 48.625 188.289062 C 54.917969 192.84375 61.285156 197.324219 67.605469 201.832031 C 124.035156 242.101562 180.488281 282.347656 236.917969 322.617188 C 273.414062 348.644531 309.910156 374.695312 346.40625 400.71875 C 360.070312 410.460938 373.738281 420.226562 387.40625 429.964844 C 399.035156 438.246094 409.78125 443.65625 423.148438 434.195312 C 441.320312 421.28125 459.515625 408.371094 477.6875 395.484375 C 574.261719 326.945312 670.8125 258.410156 767.386719 189.851562 C 773.855469 185.269531 779.972656 181.492188 781.632812 172.757812 C 783.296875 164.027344 780.324219 156.574219 772.949219 151.441406 L 771.238281 150.234375 C 751.28125 136.289062 732.378906 169.007812 752.1875 182.828125 Z M 752.1875 182.828125 " fill-opacity="1" fill-rule="nonzero"/></svg>