<svg xmlns="http://www.w3.org/2000/svg" xmlns:xlink="http://www.w3.org/1999/xlink" width="1080" zoomAndPan="magnify" viewBox="0 0 810 809.999993" height="1080" preserveAspectRatio="xMidYMid meet" version="1.0"><path fill="#f9cd1d" d="M 724.949219 167.695312 C 515.585938 88.519531 274.882812 118.820312 56.632812 142.855469 C 19.890625 151.085938 11.433594 194.5 7.808594 226.386719 C -8.148438 347.238281 1.464844 473.378906 1.492188 594.859375 C 3.203125 654.355469 65.242188 678.238281 114.84375 689.035156 C 272.34375 720.394531 434.320312 696.613281 593.226562 692.308594 C 651.964844 690.394531 701.21875 688.910156 739.347656 637.167969 C 817.667969 502.671875 811.628906 296.425781 724.949219 167.695312 Z M 729.429688 577.191406 C 685.0625 696.5625 536.171875 642.351562 438.042969 662.660156 C 350.410156 659.691406 65.59375 697.945312 39.21875 594.859375 C 49.9375 529.222656 3.65625 158.9375 87.941406 176.679688 C 241.964844 162.863281 594.410156 119.074219 713.425781 214.835938 C 762.398438 325.140625 767.785156 462.882812 729.429688 577.191406 Z M 729.429688 577.191406 " fill-opacity="1" fill-rule="nonzero"/><path fill="#f9cd1d" d="M 419.117188 305.839844 C 335.863281 262.851562 236.707031 181.136719 267.5625 344.34375 C 282.105469 381.140625 251.605469 609.859375 304.054688 579.761719 C 388.917969 530.027344 472.144531 477.632812 553.664062 422.617188 C 594.257812 382.195312 446.25 328.714844 419.117188 305.839844 Z M 511.15625 405.300781 C 446.097656 448.636719 379.957031 490.265625 312.8125 530.253906 C 312.9375 449.039062 306.417969 368.101562 301.285156 287.164062 C 357.988281 314.949219 458.882812 367.726562 511.15625 405.300781 Z M 511.15625 405.300781 " fill-opacity="1" fill-rule="nonzero"/></svg>